<svg width="27" height="27" viewBox="0 0 27 27" fill="none" xmlns="http://www.w3.org/2000/svg">
<path d="M1.63037 17.4737C1.63037 20.1072 3.77285 22.2497 6.40632 22.2497C9.03974 22.2497 11.1822 20.1072 11.1822 17.4737C11.1822 14.8402 9.03974 12.6978 6.40632 12.6978C3.77285 12.6977 1.63037 14.8402 1.63037 17.4737ZM10.3935 17.4737C10.3935 19.6722 8.60485 21.4609 6.40637 21.4609C4.20789 21.4609 2.41917 19.6722 2.41917 17.4737C2.41917 15.2752 4.20784 13.4866 6.40632 13.4866C8.6048 13.4866 10.3935 15.2751 10.3935 17.4737Z" fill="#FFBE2E"/>
<path d="M26.0933 14.1917C26.0924 14.1896 26.0917 14.1875 26.0907 14.1854L22.8916 7.55317C22.4496 6.63674 21.7154 5.90979 20.8345 5.46207L20.5326 4.83598C20.0297 3.79345 18.9568 3.11987 17.7994 3.11987C16.1262 3.11987 14.7649 4.48112 14.7649 6.15437V7.31953C14.4991 7.79622 14.316 8.32498 14.235 8.88644H12.7651C12.6841 8.32498 12.501 7.79617 12.2351 7.31942V6.15437C12.2351 4.48118 10.8739 3.11987 9.20067 3.11987C8.04324 3.11987 6.97043 3.7935 6.46749 4.83603L6.16554 5.46207C5.28461 5.90984 4.55046 6.6368 4.10847 7.55317L3.55437 8.70186C3.45971 8.89801 3.54206 9.13381 3.73821 9.22846C3.93441 9.32301 4.17015 9.24082 4.26481 9.04457L4.81891 7.89582C5.447 6.59357 6.78717 5.75214 8.23298 5.75214C10.3231 5.75214 12.0235 7.45252 12.0235 9.54261V14.3944C11.6521 13.7176 11.1574 13.1053 10.5539 12.5921C10.388 12.451 10.1391 12.4711 9.99804 12.637C9.85689 12.8029 9.87703 13.0519 10.0429 13.193C11.3017 14.2633 12.0235 15.8236 12.0235 17.4737C12.0235 20.5711 9.50357 23.0911 6.40618 23.0911C3.30879 23.0911 0.788796 20.5712 0.788796 17.4738C0.788796 14.3764 3.30873 11.8565 6.40612 11.8565C7.21127 11.8565 7.9884 12.0231 8.71598 12.3518C8.91428 12.4414 9.14808 12.3533 9.23779 12.1547C9.32745 11.9562 9.23921 11.7226 9.04075 11.6329C8.21041 11.2579 7.32402 11.0677 6.40612 11.0677C5.03804 11.0677 3.76892 11.499 2.72708 12.2325L3.53275 10.5621C3.62741 10.3659 3.54506 10.1302 3.34891 10.0355C3.15282 9.94106 2.91697 10.0232 2.82231 10.2194L0.909324 14.1854C0.908324 14.1875 0.907641 14.1896 0.906694 14.1917C0.331347 15.1522 0 16.2749 0 17.4738C0 21.0061 2.87374 23.8799 6.40612 23.8799C9.89397 23.8799 12.7394 21.0781 12.8106 17.607H14.1895C14.2607 21.0781 17.1061 23.8799 20.5939 23.8799C24.1263 23.8799 27 21.0061 27 17.4738C27 16.2749 26.6687 15.1522 26.0933 14.1917ZM22.1811 7.89582L24.2729 12.2324C23.2311 11.4989 21.962 11.0676 20.5939 11.0676C18.176 11.0676 16.0669 12.4143 14.9766 14.3969V9.54261C14.9766 7.45252 16.677 5.75214 18.7671 5.75214C20.2129 5.75214 21.553 6.59362 22.1811 7.89582ZM14.1878 16.8182H12.8123V9.67519H14.1878V16.8182ZM17.7994 3.90867C18.6172 3.90867 19.3769 4.3637 19.768 5.07624C19.4428 5.00247 19.1074 4.96339 18.7671 4.96339C17.5162 4.96339 16.381 5.46775 15.5537 6.28352V6.15437C15.5537 4.91607 16.5611 3.90867 17.7994 3.90867ZM8.23298 4.96334C7.89264 4.96334 7.55729 5.00241 7.23205 5.07619C7.62318 4.36365 8.3829 3.90862 9.20067 3.90862C10.4389 3.90862 11.4463 4.91601 11.4463 6.15432V6.28347C10.619 5.4677 9.48385 4.96334 8.23298 4.96334ZM20.5939 23.0911C17.4965 23.0911 14.9766 20.5712 14.9766 17.4738C14.9766 14.3764 17.4965 11.8565 20.5939 11.8565C23.6913 11.8565 26.2112 14.3764 26.2112 17.4738C26.2112 20.5712 23.6913 23.0911 20.5939 23.0911Z" fill="#FFBE2E"/>
<path d="M22.3851 13.0477C22.1833 12.9657 21.9531 13.0629 21.8713 13.2647C21.7892 13.4665 21.8864 13.6966 22.0882 13.7785C23.6022 14.3935 24.5805 15.844 24.5805 17.4737C24.5805 19.6723 22.7918 21.4609 20.5933 21.4609C18.3948 21.4609 16.6062 19.6723 16.6062 17.4737C16.6062 15.2796 18.3913 13.4911 20.5855 13.4868C20.8033 13.4864 20.9795 13.3094 20.9791 13.0916C20.9787 12.8741 20.8022 12.698 20.5847 12.698C20.5844 12.698 20.5842 12.698 20.5839 12.698C17.9557 12.7031 15.8174 14.8455 15.8174 17.4737C15.8174 20.1072 17.9599 22.2497 20.5933 22.2497C23.2267 22.2497 25.3692 20.1072 25.3692 17.4737C25.3693 15.5215 24.198 13.7841 22.3851 13.0477Z" fill="#FFBE2E"/>
</svg>
