<svg width="754" height="735" viewBox="0 0 754 735" fill="none" xmlns="http://www.w3.org/2000/svg">
<g clip-path="url(#clip0_1_17108)">
<path d="M525.736 134.701C623.382 236.757 650.468 312.481 650.468 312.481C650.468 312.481 701.3 415.511 718.824 551.637C736.457 687.92 700.97 733.969 700.97 733.969L89.086 735.681C89.086 735.681 -6.24536 360.282 93.6046 183.395C193.565 6.50825 427.981 32.6446 525.736 134.701Z" fill="#FFEECC"/>
<path d="M54.0077 735.681H734.431C738.065 735.681 741.039 730.86 741.039 724.967C741.039 719.075 738.065 714.254 734.431 714.254H54.0077C50.3732 714.254 47.3995 719.075 47.3995 724.967C47.3995 730.86 50.3732 735.681 54.0077 735.681Z" fill="#5C8097"/>
</g>
<path d="M467.074 299.938L320.931 271.531L171.892 271.136L139.172 587.365L287.484 594.797L434.089 618.738L582.777 620.733L615.152 307.83L467.074 299.938Z" fill="#BDD0FB"/>
<path d="M291.068 591.068L150.155 583.993L181.193 284.005L322.798 284.404L291.068 591.068Z" fill="#91B3FA"/>
<path d="M430.691 610.648L291.395 587.917L323.125 281.252L461.982 308.224L430.691 610.648Z" fill="#7D97F4"/>
<path d="M571.962 612.566L430.691 610.648L461.982 308.224L602.674 315.733L571.962 612.566Z" fill="#91B3FA"/>
<path opacity="0.47" d="M288.215 587.671L291.388 587.999L323.126 281.252L319.627 284.075L288.215 587.671Z" fill="white"/>
<path d="M169.745 394.665C179.258 419.986 202.844 443.569 224.181 460.168C233.892 467.722 244.105 474.995 255.764 478.913C267.424 482.831 280.861 483.019 291.494 476.825C305.315 468.772 311.872 452.146 326.28 444.947C333.627 441.276 341.764 443.684 349.426 439.899C356.968 436.172 363.121 429.29 365.074 421C366.505 414.923 365.925 408.556 366.76 402.368C369.969 378.597 392.566 362.591 402.748 340.876C408.874 327.811 410.287 313.103 411.614 298.733C418.924 300.691 426.418 301.965 433.963 302.535C427.121 322.862 420.187 343.389 408.965 361.662C403.297 370.89 396.543 379.534 392.275 389.488C390.515 393.593 389.183 398.052 389.745 402.483C390.307 406.914 393.153 411.284 397.442 412.513C405.053 414.694 413.927 407.356 420.303 404.122C428.489 399.968 437.136 396.619 446.224 395.114C455.037 393.654 464.167 392.898 472.201 388.987C484.648 382.928 492.459 370.321 498.523 357.867C505.936 342.643 511.774 326.652 515.914 310.233C530.201 311.691 539.865 312.896 553.296 313.097C532.029 336.925 515.383 364.104 506.215 394.712C504.441 400.633 502.905 406.793 503.591 412.934C505.621 431.144 534.91 446.445 547.004 458.586C560.538 472.172 572.766 487.307 583.261 503.386L580.968 525.551C563.828 502.996 543.108 483.643 519.527 467.983C510.87 462.234 493.973 446.111 483.272 447.355C477.894 447.98 472.595 449.297 467.551 451.267C465.196 452.185 462.847 453.279 461.027 455.033C458.834 457.149 457.593 460.038 456.407 462.848C454.673 466.955 452.923 471.118 452.276 475.529C451.972 477.599 451.915 479.697 451.954 481.79C452.125 491.143 454.208 500.456 458.039 508.986C460.046 513.457 464.682 518.351 467.572 522.478C476.143 534.719 486.577 545.833 492.84 559.403C497.167 568.776 499.341 578.905 502.645 588.642C505.494 596.674 510.629 603.796 513.83 611.723C509.09 611.692 504.349 611.659 499.606 611.627C494.834 599.062 488.297 587.171 480.248 576.412C475.703 570.338 471.928 564.555 466.428 559.081C455.288 547.997 443.71 536.533 429.336 529.726C414.069 522.497 400.269 531.152 385.754 537.113C364.763 545.736 342.671 548.804 320.108 548.012C310.757 547.684 305.031 552.885 296.001 554.593C286.256 556.435 277.612 553.461 270.151 547.058C242.855 523.63 217.176 497.798 196.412 468.302C185.743 453.148 164.857 433.419 167.332 414.877C169.217 400.775 168.765 395.192 169.745 394.665Z" fill="url(#paint0_linear_1_17108)"/>
<path d="M219.516 540.138C219.032 540.088 218.563 539.872 218.201 539.492C217.39 538.643 217.418 537.295 218.268 536.481C219.742 535.069 221.219 533.668 222.7 532.281C223.556 531.477 224.901 531.521 225.705 532.38C226.508 533.239 226.463 534.586 225.605 535.39C224.136 536.766 222.672 538.157 221.208 539.559C220.736 540.007 220.116 540.2 219.516 540.138ZM230.658 529.786C230.15 529.733 229.658 529.499 229.291 529.087C228.509 528.21 228.584 526.865 229.46 526.081C231.034 524.674 232.582 523.318 234.065 522.045C234.958 521.281 236.301 521.382 237.065 522.275C237.829 523.168 237.725 524.513 236.834 525.276C235.373 526.529 233.847 527.868 232.295 529.256C231.83 529.672 231.232 529.845 230.658 529.786ZM439.547 542.007C438.394 541.888 437.545 540.862 437.648 539.702C437.753 538.53 438.787 537.665 439.955 537.769C441.175 537.877 442.408 537.969 443.62 538.041C444.244 537.953 444.863 537.858 445.477 537.761C446.64 537.578 447.725 538.373 447.907 539.534C448.089 540.694 447.296 541.785 446.137 541.968C445.432 542.079 444.722 542.185 444.006 542.286L443.798 542.316L443.588 542.303C442.262 542.228 440.914 542.128 439.578 542.01C439.569 542.009 439.558 542.008 439.547 542.007ZM430.51 540.883C430.471 540.878 430.433 540.875 430.394 540.867C428.395 540.549 426.357 540.18 424.336 539.772C423.185 539.54 422.441 538.416 422.673 537.263C422.905 536.111 424.028 535.369 425.18 535.598C427.141 535.995 429.121 536.353 431.061 536.662C432.221 536.845 433.012 537.938 432.827 539.099C432.649 540.221 431.626 540.998 430.51 540.883ZM242.259 519.968C241.708 519.911 241.181 519.64 240.811 519.172C240.083 518.249 240.238 516.91 241.159 516.181C242.796 514.884 244.438 513.624 246.036 512.438C246.981 511.738 248.312 511.938 249.011 512.883C249.71 513.827 249.511 515.16 248.567 515.86C247.003 517.018 245.4 518.249 243.799 519.519C243.345 519.878 242.792 520.023 242.259 519.968ZM415.668 537.737C415.56 537.726 415.453 537.706 415.345 537.678C413.402 537.167 411.412 536.608 409.432 536.015C408.307 535.679 407.667 534.492 408.004 533.365C408.34 532.24 409.534 531.599 410.651 531.936C412.587 532.515 414.527 533.062 416.424 533.559C417.559 533.857 418.239 535.022 417.942 536.158C417.671 537.188 416.694 537.843 415.668 537.737ZM454.524 540.247C453.646 540.157 452.884 539.52 452.672 538.612C452.407 537.466 453.118 536.323 454.263 536.055C456.216 535.6 458.153 535.094 460.023 534.55C461.154 534.222 462.331 534.872 462.658 536.001C462.985 537.129 462.335 538.311 461.208 538.639C459.265 539.204 457.252 539.73 455.225 540.202C454.989 540.257 454.753 540.271 454.524 540.247ZM401.158 533.28C400.996 533.263 400.834 533.228 400.675 533.172C398.793 532.514 396.857 531.809 394.92 531.075C393.822 530.659 393.269 529.431 393.683 528.33C394.099 527.231 395.322 526.675 396.425 527.091C398.328 527.813 400.228 528.505 402.075 529.149C403.185 529.537 403.768 530.751 403.383 531.86C403.051 532.813 402.116 533.379 401.158 533.28ZM386.99 527.829C386.788 527.808 386.586 527.758 386.391 527.676C384.575 526.918 382.684 526.109 380.766 525.267C379.691 524.795 379.202 523.539 379.674 522.463C380.145 521.386 381.4 520.895 382.476 521.367C384.369 522.198 386.236 522.998 388.027 523.744C389.112 524.197 389.623 525.443 389.172 526.529C388.8 527.417 387.899 527.923 386.99 527.829ZM469.017 535.792C468.251 535.712 467.553 535.216 467.254 534.447C466.827 533.352 467.367 532.117 468.463 531.689C470.321 530.964 472.156 530.179 473.913 529.356C474.976 528.857 476.241 529.316 476.739 530.382C477.236 531.448 476.776 532.715 475.713 533.212C473.87 534.074 471.951 534.897 470.006 535.655C469.68 535.784 469.343 535.825 469.017 535.792ZM254.563 511.055C253.947 510.991 253.363 510.659 252.999 510.099C252.359 509.115 252.637 507.794 253.621 507.153C255.38 506.005 257.149 504.912 258.878 503.9C259.892 503.307 261.194 503.649 261.786 504.663C262.377 505.679 262.037 506.982 261.022 507.574C259.353 508.551 257.643 509.609 255.942 510.719C255.517 510.997 255.031 511.103 254.563 511.055ZM373.094 521.676C372.865 521.652 372.637 521.591 372.418 521.49C370.561 520.627 368.721 519.759 366.899 518.888C365.838 518.383 365.389 517.113 365.894 516.05C366.4 514.988 367.669 514.537 368.728 515.045C370.538 515.908 372.364 516.771 374.208 517.626C375.273 518.121 375.735 519.387 375.241 520.454C374.85 521.301 373.972 521.767 373.094 521.676ZM482.627 529.121C481.986 529.055 481.381 528.699 481.024 528.103C480.417 527.096 480.741 525.788 481.746 525.18C483.436 524.16 485.099 523.07 486.69 521.938C487.648 521.257 488.974 521.482 489.655 522.441C490.335 523.4 490.11 524.728 489.152 525.41C487.475 526.601 485.723 527.751 483.943 528.825C483.532 529.074 483.069 529.167 482.627 529.121ZM359.383 515.118C359.142 515.093 358.902 515.026 358.67 514.913L353.207 512.244C352.15 511.729 351.713 510.454 352.228 509.397C352.743 508.339 354.018 507.903 355.072 508.416L360.534 511.085C361.59 511.6 362.028 512.875 361.513 513.931C361.111 514.758 360.245 515.207 359.383 515.118ZM267.783 503.59C267.069 503.516 266.408 503.081 266.078 502.383C265.577 501.32 266.03 500.05 267.092 499.548C268.997 498.647 270.919 497.813 272.803 497.074C273.894 496.644 275.129 497.183 275.558 498.279C275.987 499.374 275.448 500.609 274.354 501.037C272.559 501.742 270.726 502.536 268.909 503.397C268.544 503.568 268.156 503.628 267.783 503.59ZM345.715 508.471C345.479 508.447 345.242 508.382 345.017 508.274C343.169 507.389 341.343 506.524 339.543 505.689C338.477 505.195 338.015 503.929 338.509 502.863C339.004 501.796 340.265 501.331 341.333 501.828C343.15 502.671 344.99 503.541 346.853 504.435C347.912 504.943 348.361 506.214 347.852 507.274C347.454 508.105 346.584 508.561 345.715 508.471ZM282.015 498.337C281.159 498.248 280.407 497.64 280.178 496.757C279.881 495.619 280.56 494.456 281.696 494.159C283.729 493.626 285.787 493.181 287.813 492.835C288.973 492.639 290.068 493.418 290.265 494.577C290.461 495.736 289.683 496.835 288.526 497.034C286.622 497.358 284.687 497.777 282.772 498.28C282.518 498.345 282.262 498.362 282.015 498.337ZM494.807 520.102C494.301 520.05 493.812 519.817 493.445 519.409C492.659 518.536 492.731 517.19 493.604 516.403C495.06 515.091 496.484 513.705 497.836 512.282C498.644 511.429 499.99 511.396 500.841 512.207C501.692 513.018 501.726 514.365 500.915 515.216C499.487 516.718 497.983 518.183 496.447 519.567C495.983 519.985 495.385 520.162 494.807 520.102ZM331.892 502.159C331.687 502.137 331.479 502.085 331.279 502C329.34 501.175 327.468 500.415 325.715 499.738C324.62 499.315 324.073 498.084 324.496 496.986C324.919 495.89 326.147 495.339 327.245 495.764C329.042 496.457 330.959 497.236 332.943 498.08C334.023 498.54 334.527 499.791 334.068 500.872C333.693 501.753 332.795 502.252 331.892 502.159ZM317.649 496.9C317.519 496.887 317.389 496.861 317.26 496.824C315.271 496.232 313.349 495.738 311.542 495.353C310.394 495.108 309.66 493.978 309.904 492.828C310.149 491.679 311.276 490.941 312.428 491.188C314.343 491.596 316.377 492.119 318.474 492.742C319.6 493.077 320.241 494.262 319.906 495.389C319.607 496.385 318.646 497.004 317.649 496.9ZM296.68 494.582C295.737 494.484 294.944 493.759 294.797 492.777C294.624 491.613 295.426 490.531 296.588 490.358C298.62 490.054 300.785 489.932 303.017 489.996C304.197 490.025 305.115 491.009 305.083 492.184C305.051 493.359 304.071 494.284 302.897 494.252C300.911 494.196 298.999 494.304 297.211 494.569C297.033 494.596 296.855 494.6 296.68 494.582ZM505.046 508.914C504.673 508.875 504.305 508.737 503.985 508.494C503.048 507.786 502.863 506.452 503.571 505.512C504.745 503.958 505.886 502.324 506.964 500.656C507.603 499.67 508.92 499.387 509.905 500.026C510.89 500.666 511.173 501.982 510.536 502.971C509.403 504.724 508.203 506.443 506.967 508.078C506.496 508.696 505.76 508.988 505.046 508.914ZM513.076 496.033C512.822 496.007 512.568 495.933 512.326 495.809C511.281 495.273 510.868 493.992 511.402 492.944C512.289 491.211 513.142 489.401 513.943 487.565C514.413 486.486 515.665 485.993 516.742 486.463C517.818 486.933 518.31 488.188 517.84 489.265C517.005 491.181 516.113 493.071 515.187 494.882C514.776 495.69 513.924 496.12 513.076 496.033ZM518.955 482.022C518.8 482.006 518.644 481.972 518.489 481.919C517.377 481.542 516.782 480.333 517.159 479.219C517.787 477.366 518.382 475.447 518.932 473.511C519.252 472.38 520.425 471.72 521.558 472.043C522.687 472.364 523.344 473.541 523.023 474.672C522.455 476.677 521.837 478.665 521.185 480.585C520.862 481.547 519.92 482.122 518.955 482.022ZM522.952 467.352C522.877 467.345 522.802 467.333 522.725 467.316C521.577 467.072 520.843 465.939 521.089 464.79C521.496 462.88 521.878 460.898 522.223 458.896C522.423 457.736 523.535 456.959 524.682 457.16C525.838 457.359 526.615 458.461 526.416 459.619C526.061 461.675 525.668 463.714 525.25 465.678C525.019 466.752 524.02 467.463 522.952 467.352ZM525.417 452.342C525.404 452.341 525.392 452.339 525.379 452.338C524.213 452.197 523.382 451.137 523.523 449.97C523.666 448.781 523.797 447.607 523.916 446.45C524.002 445.617 524.082 444.793 524.157 443.98C524.266 442.809 525.303 441.947 526.47 442.055C526.477 442.056 526.486 442.057 526.494 442.058C527.651 442.178 528.499 443.209 528.392 444.372C528.315 445.202 528.234 446.041 528.146 446.889C528.023 448.071 527.89 449.269 527.743 450.481C527.608 451.634 526.569 452.461 525.417 452.342Z" fill="white"/>
<path d="M212.749 555.69C215.537 555.979 218.031 553.949 218.32 551.158C218.609 548.367 216.583 545.87 213.795 545.581C211.006 545.293 208.512 547.322 208.223 550.113C207.934 552.905 209.96 555.402 212.749 555.69Z" fill="white"/>
<path d="M215.937 518.517C226.472 519.607 235.897 511.94 236.989 501.392C238.08 490.844 230.424 481.41 219.889 480.32C209.353 479.23 199.928 486.897 198.836 497.445C197.745 507.993 205.401 517.427 215.937 518.517Z" fill="url(#paint1_linear_1_17108)"/>
<path d="M237.114 499.835L218.072 497.865L198.996 495.892C198.996 495.892 196.353 506.6 210.375 537.396C210.987 538.74 212.252 539.77 213.719 539.922C215.185 540.074 216.644 539.272 217.516 538.082C237.545 510.807 237.114 499.835 237.114 499.835Z" fill="url(#paint2_linear_1_17108)"/>
<path d="M213.99 540.711L213.981 540.792L213.634 540.756C211.973 540.585 210.516 539.523 209.83 538.014C201.635 520.012 199.099 508.909 198.413 502.77C198.184 501.349 198.109 499.978 198.186 498.581C198.218 497.15 198.368 496.562 198.385 496.5L198.467 496.201C200.297 486.022 209.652 478.92 219.927 479.983C230.338 481.061 238.105 490.049 237.618 500.45C237.618 500.587 237.611 500.934 237.541 501.506L237.534 501.576C237.34 503.452 236.883 505.283 236.176 507.018C234.204 512.878 229.613 523.141 218.102 538.815C217.112 540.16 215.552 540.873 213.99 540.711ZM199.39 497.198C199.384 497.197 199.314 497.962 199.301 498.582L199.3 498.615C199.227 499.937 199.297 501.241 199.516 502.589L199.52 502.62C200.194 508.677 202.706 519.652 210.846 537.532C211.371 538.683 212.656 539.499 213.925 539.63L214.042 540.203L214.1 539.648C214.724 539.713 216.638 539.224 217.393 538.195C228.828 522.621 233.663 512.473 235.527 506.683L235.53 506.649C236.33 505.021 236.573 503.269 236.757 501.492L236.704 501.408L236.704 501.403C236.761 500.85 236.639 500.535 236.638 500.456L236.572 500.417C237.04 490.6 229.674 482.11 219.845 481.093C210.036 480.078 201.103 486.921 199.524 496.711L199.426 497.202L199.39 497.198Z" fill="url(#paint3_linear_1_17108)"/>
<path d="M208.72 486.801C208.668 486.795 208.618 486.768 208.587 486.721C208.528 486.637 208.549 486.521 208.634 486.462C212.003 484.121 216.109 483.065 220.192 483.488C220.295 483.498 220.369 483.59 220.358 483.692C220.348 483.795 220.256 483.869 220.154 483.859C216.158 483.445 212.142 484.48 208.844 486.768C208.807 486.795 208.764 486.805 208.72 486.801Z" fill="white"/>
<path d="M201.491 499.04C201.388 499.029 201.314 498.938 201.324 498.835C201.655 495.642 202.861 492.618 204.814 490.09C204.877 490.009 204.993 489.994 205.074 490.057C205.155 490.12 205.17 490.236 205.107 490.317C203.198 492.79 202.017 495.749 201.693 498.873C201.683 498.976 201.591 499.05 201.491 499.04Z" fill="white"/>
<path d="M531.415 433.217C534.28 433.513 536.844 431.428 537.141 428.559C537.438 425.69 535.355 423.123 532.49 422.827C529.624 422.53 527.06 424.616 526.763 427.485C526.466 430.354 528.549 432.92 531.415 433.217Z" fill="white"/>
<path d="M535.502 396.013C546.722 397.174 556.76 389.009 557.922 377.775C559.085 366.542 550.931 356.494 539.711 355.333C528.49 354.172 518.452 362.338 517.29 373.571C516.128 384.805 524.281 394.852 535.502 396.013Z" fill="url(#paint4_linear_1_17108)"/>
<path d="M558.054 376.117L537.775 374.019L517.459 371.917C517.459 371.917 514.644 383.321 529.577 416.12C530.229 417.552 531.577 418.648 533.139 418.811C534.701 418.973 536.254 418.119 537.184 416.851C558.513 387.8 558.054 376.117 558.054 376.117Z" fill="url(#paint5_linear_1_17108)"/>
<path d="M533.422 419.647L533.413 419.734L533.044 419.695C531.275 419.512 529.724 418.381 528.993 416.774C520.265 397.602 517.562 385.778 516.833 379.239C516.589 377.728 516.509 376.264 516.59 374.779C516.624 373.255 516.784 372.628 516.801 372.563L516.889 372.244C518.838 361.402 528.8 353.84 539.745 354.972C550.831 356.12 559.104 365.692 558.583 376.769C558.585 376.915 558.576 377.284 558.502 377.894L558.496 377.969C558.289 379.968 557.801 381.917 557.048 383.764C554.947 390.005 550.058 400.936 537.8 417.629C536.748 419.061 535.087 419.819 533.422 419.647ZM517.874 373.307C517.869 373.307 517.794 374.121 517.78 374.782L517.778 374.816C517.7 376.223 517.776 377.614 518.008 379.049L518.011 379.082C518.728 385.532 521.405 397.221 530.074 416.263C530.633 417.488 532.002 418.358 533.354 418.498L533.478 419.108L533.539 418.517C534.205 418.586 536.242 418.065 537.046 416.97C549.224 400.384 554.373 389.576 556.357 383.409L556.361 383.372C557.214 381.639 557.472 379.772 557.668 377.88L557.612 377.791L557.613 377.783C557.673 377.194 557.543 376.86 557.542 376.774L557.47 376.732C557.97 366.277 550.125 357.236 539.657 356.153C529.211 355.072 519.694 362.359 518.015 372.785L517.91 373.308L517.874 373.304L517.874 373.307Z" fill="url(#paint6_linear_1_17108)"/>
<path d="M450.477 547.569C455.841 548.124 460.639 544.221 461.195 538.851C461.75 533.481 457.853 528.678 452.489 528.123C447.125 527.568 442.327 531.471 441.771 536.841C441.216 542.211 445.113 547.014 450.477 547.569Z" fill="url(#paint7_linear_1_17108)"/>
<path d="M224.228 507.212C228.53 503.714 229.184 497.387 225.691 493.082C222.197 488.777 215.878 488.123 211.577 491.622C207.276 495.12 206.621 501.447 210.115 505.752C213.609 510.057 219.927 510.711 224.228 507.212Z" fill="white"/>
<path d="M227.952 499.636L217.99 498.605L208.01 497.573C208.01 497.573 206.629 503.174 213.962 519.285C214.282 519.989 214.944 520.527 215.712 520.607C216.479 520.686 217.243 520.266 217.7 519.645C228.177 505.376 227.952 499.636 227.952 499.636Z" fill="white"/>
<path d="M542.471 385.766C545.808 383.051 546.316 378.143 543.605 374.803C540.895 371.463 535.992 370.956 532.655 373.67C529.318 376.384 528.811 381.293 531.521 384.633C534.232 387.973 539.134 388.48 542.471 385.766Z" fill="white"/>
<path d="M545.36 379.885L537.632 379.085L529.889 378.284C529.889 378.284 528.817 382.63 534.507 395.129C534.757 395.674 535.27 396.093 535.864 396.155C536.46 396.216 537.05 395.891 537.406 395.407C545.534 384.338 545.36 379.885 545.36 379.885Z" fill="white"/>
<path d="M382.078 211.508L343.738 193.027C342.95 192.646 342.044 192.583 341.21 192.849L295.45 207.444C294.215 207.836 293.311 208.893 293.106 210.171C292.902 211.449 293.435 212.736 294.483 213.496L325.2 235.733L382.078 211.508Z" fill="url(#paint8_linear_1_17108)"/>
<path d="M74.9372 286.259C74.9372 286.259 502.62 161.543 520.215 165.179C537.809 168.816 570.143 183.639 579.112 182.719C588.081 181.797 620.025 183.958 614.256 207.238C608.486 230.517 254.229 337.702 210.601 327.666C166.974 317.631 57.4831 301.662 57.4831 301.662C57.4831 301.662 46.0527 287.413 74.9372 286.259Z" fill="url(#paint9_linear_1_17108)"/>
<path d="M198.899 251.766L132.462 223.518C128.295 221.747 124.711 218.84 122.113 215.13L91.8733 171.943C89.4775 168.52 85.126 167.061 81.1578 168.352C68.447 172.483 42.1158 181.425 42.3116 184.503C42.57 188.56 66.5027 288.555 66.5027 288.555L198.899 251.766Z" fill="url(#paint10_linear_1_17108)"/>
<path d="M80.5505 300.35L77.5984 322.284C77.1001 325.986 78.3106 329.568 80.906 332.251C83.5015 334.932 87.1669 336.134 90.8777 335.752L113.048 333.474C116.55 333.114 119.737 331.397 121.767 328.517L156.556 279.228L80.5505 300.35Z" fill="url(#paint11_linear_1_17108)"/>
<path d="M316.503 347.556C316.503 347.556 331.649 362.672 353.511 360.425C375.374 358.179 401.656 349.353 405.908 341.089C410.157 332.825 415.05 274.511 371.501 287.306C327.95 300.1 278.815 331.352 316.503 347.556Z" fill="url(#paint12_linear_1_17108)"/>
<path d="M285.555 291.034L387.259 262.019L311.871 382.972C310.813 384.667 309.097 385.843 307.136 386.216L245.615 397.86C242.953 398.365 240.234 397.318 238.595 395.157C236.956 392.996 236.679 390.093 237.878 387.659L285.555 291.034Z" fill="url(#paint13_linear_1_17108)"/>
<path d="M400.37 343.253C400.644 343.281 400.904 343.266 401.152 343.207C402.518 342.879 403.76 341.297 404.837 338.5C408.307 329.513 409.17 310.957 400.238 297.841C397.591 293.956 393.215 291.742 388.525 291.9C384.675 292.038 379.913 293.686 379.086 300.765C377.792 311.859 390.784 335.757 397.339 341.584C398.494 342.608 399.491 343.161 400.37 343.253ZM390.181 293.857C393.572 294.211 396.727 296.062 398.668 298.914C407.122 311.322 406.288 329.461 403.064 337.815C402.129 340.236 401.211 341.237 400.711 341.357C400.645 341.374 400.062 341.464 398.601 340.163C391.782 334.1 379.831 310.787 380.974 300.986C381.52 296.315 384.011 293.968 388.593 293.804C389.123 293.781 389.657 293.801 390.181 293.857Z" fill="url(#paint14_linear_1_17108)"/>
<path d="M47.3145 208.298L58.0752 207.192L75.2214 274.94L64.1824 278.75L47.3145 208.298Z" fill="url(#paint15_linear_1_17108)"/>
<path d="M232.707 272.843C232.344 269.299 234.919 266.131 238.459 265.767L238.866 265.726C242.407 265.363 245.571 267.941 245.934 271.485L246.364 275.677C246.727 279.221 244.152 282.389 240.612 282.753L240.205 282.794C236.664 283.157 233.5 280.579 233.137 277.035L232.707 272.843Z" fill="url(#paint16_linear_1_17108)"/>
<path d="M257.078 268.426C256.715 264.882 259.29 261.714 262.83 261.35L263.237 261.309C266.778 260.946 269.942 263.523 270.305 267.068L270.735 271.259C271.098 274.804 268.523 277.972 264.983 278.335L264.576 278.377C261.036 278.74 257.871 276.162 257.508 272.618L257.078 268.426Z" fill="url(#paint17_linear_1_17108)"/>
<path d="M281.067 260.225C280.704 256.681 283.278 253.512 286.818 253.149L287.226 253.108C290.766 252.744 293.931 255.322 294.294 258.867L294.723 263.058C295.086 266.603 292.512 269.771 288.971 270.134L288.564 270.175C285.024 270.539 281.859 267.961 281.496 264.417L281.067 260.225Z" fill="url(#paint18_linear_1_17108)"/>
<path d="M303.356 254.11C302.993 250.566 305.567 247.397 309.107 247.034L309.515 246.993C313.055 246.629 316.22 249.207 316.583 252.752L317.012 256.943C317.375 260.488 314.801 263.656 311.26 264.019L310.853 264.06C307.313 264.424 304.148 261.846 303.785 258.302L303.356 254.11Z" fill="url(#paint19_linear_1_17108)"/>
<path d="M329.43 247.606C329.067 244.062 331.641 240.894 335.182 240.53L335.589 240.489C339.129 240.126 342.294 242.703 342.657 246.248L343.086 250.44C343.45 253.984 340.875 257.152 337.335 257.516L336.927 257.557C333.387 257.92 330.223 255.342 329.859 251.798L329.43 247.606Z" fill="url(#paint20_linear_1_17108)"/>
<path d="M353.606 241.296C353.243 237.752 355.817 234.583 359.357 234.22L359.765 234.179C363.305 233.815 366.47 236.393 366.833 239.938L367.262 244.129C367.625 247.674 365.051 250.842 361.51 251.205L361.103 251.247C357.563 251.61 354.398 249.032 354.035 245.488L353.606 241.296Z" fill="url(#paint21_linear_1_17108)"/>
<path d="M377.59 233.095C377.227 229.55 379.802 226.382 383.342 226.019L383.749 225.977C387.289 225.614 390.454 228.192 390.817 231.736L391.246 235.928C391.61 239.472 389.035 242.641 385.495 243.004L385.088 243.045C381.547 243.409 378.383 240.831 378.02 237.286L377.59 233.095Z" fill="url(#paint22_linear_1_17108)"/>
<path d="M400.075 228.873C399.711 225.328 402.286 222.16 405.826 221.797L406.233 221.755C409.774 221.392 412.938 223.97 413.301 227.514L413.731 231.706C414.094 235.25 411.519 238.419 407.979 238.782L407.572 238.823C404.032 239.187 400.867 236.609 400.504 233.064L400.075 228.873Z" fill="url(#paint23_linear_1_17108)"/>
<path d="M424.254 222.562C423.891 219.018 426.466 215.85 430.006 215.486L430.413 215.445C433.953 215.082 437.118 217.659 437.481 221.204L437.911 225.395C438.274 228.94 435.699 232.108 432.159 232.471L431.752 232.513C428.211 232.876 425.047 230.298 424.684 226.754L424.254 222.562Z" fill="url(#paint24_linear_1_17108)"/>
<path d="M448.239 214.361C447.875 210.817 450.45 207.648 453.99 207.285L454.398 207.244C457.938 206.88 461.102 209.458 461.466 213.003L461.895 217.194C462.258 220.739 459.683 223.907 456.143 224.27L455.736 224.311C452.196 224.675 449.031 222.097 448.668 218.553L448.239 214.361Z" fill="url(#paint25_linear_1_17108)"/>
<path d="M470.723 210.139C470.36 206.595 472.934 203.427 476.475 203.063L476.882 203.022C480.422 202.659 483.587 205.236 483.95 208.781L484.379 212.973C484.742 216.517 482.168 219.685 478.628 220.049L478.22 220.09C474.68 220.453 471.515 217.875 471.152 214.331L470.723 210.139Z" fill="url(#paint26_linear_1_17108)"/>
<path d="M552.038 175.544L510.163 191.959C507.017 193.196 505.195 196.502 505.837 199.822C506.6 203.769 507.662 208.209 508.51 207.738C510.011 206.904 575.824 182.774 575.824 182.774L552.038 175.544Z" fill="url(#paint27_linear_1_17108)"/>
<defs>
<linearGradient id="paint0_linear_1_17108" x1="-343.889" y1="1535.14" x2="573.247" y2="167.149" gradientUnits="userSpaceOnUse">
<stop stop-color="#4F52FF"/>
<stop offset="1" stop-color="#4042E2"/>
</linearGradient>
<linearGradient id="paint1_linear_1_17108" x1="219.371" y1="474.684" x2="215.448" y2="541.364" gradientUnits="userSpaceOnUse">
<stop stop-color="#FFBE2E"/>
<stop offset="1" stop-color="#FBBD32"/>
</linearGradient>
<linearGradient id="paint2_linear_1_17108" x1="219.386" y1="474.685" x2="215.463" y2="541.365" gradientUnits="userSpaceOnUse">
<stop stop-color="#FFBE2E"/>
<stop offset="1" stop-color="#FBBD32"/>
</linearGradient>
<linearGradient id="paint3_linear_1_17108" x1="213.387" y1="473.315" x2="226.034" y2="547.35" gradientUnits="userSpaceOnUse">
<stop stop-color="#FFBE2E"/>
<stop offset="1" stop-color="#FFBE2E" stop-opacity="0.2"/>
</linearGradient>
<linearGradient id="paint4_linear_1_17108" x1="541.006" y1="351.634" x2="531.268" y2="420.43" gradientUnits="userSpaceOnUse">
<stop stop-color="#FBBD32"/>
<stop offset="1" stop-color="#FFEECC"/>
</linearGradient>
<linearGradient id="paint5_linear_1_17108" x1="540.957" y1="351.628" x2="531.218" y2="420.424" gradientUnits="userSpaceOnUse">
<stop stop-color="#FFBE2E"/>
<stop offset="1" stop-color="#FBBD32"/>
</linearGradient>
<linearGradient id="paint6_linear_1_17108" x1="532.782" y1="347.871" x2="546.25" y2="426.719" gradientUnits="userSpaceOnUse">
<stop stop-color="#FFBE2E"/>
<stop offset="1" stop-color="#FFBE2E" stop-opacity="0.2"/>
</linearGradient>
<linearGradient id="paint7_linear_1_17108" x1="460.07" y1="431.27" x2="456.559" y2="474.877" gradientUnits="userSpaceOnUse">
<stop stop-color="#FFBE2E"/>
<stop offset="1" stop-color="#FBBD32"/>
</linearGradient>
<linearGradient id="paint8_linear_1_17108" x1="295.641" y1="248.827" x2="431.746" y2="124.237" gradientUnits="userSpaceOnUse">
<stop stop-color="#FDF53F"/>
<stop offset="1" stop-color="#D93C65"/>
</linearGradient>
<linearGradient id="paint9_linear_1_17108" x1="393.594" y1="242.942" x2="-185.31" y2="359.236" gradientUnits="userSpaceOnUse">
<stop stop-color="#FFBE2E"/>
<stop offset="1" stop-color="#D93C65"/>
</linearGradient>
<linearGradient id="paint10_linear_1_17108" x1="105.495" y1="211.991" x2="223.136" y2="462.943" gradientUnits="userSpaceOnUse">
<stop stop-color="#FFBE2E"/>
<stop offset="1" stop-color="#D93C65"/>
</linearGradient>
<linearGradient id="paint11_linear_1_17108" x1="99.4098" y1="257.736" x2="171.793" y2="442.06" gradientUnits="userSpaceOnUse">
<stop stop-color="#FDF53F"/>
<stop offset="1" stop-color="#D93C65"/>
</linearGradient>
<linearGradient id="paint12_linear_1_17108" x1="410.928" y1="287.591" x2="301.227" y2="376.333" gradientUnits="userSpaceOnUse">
<stop stop-color="#FDF53F"/>
<stop offset="1" stop-color="#D93C65"/>
</linearGradient>
<linearGradient id="paint13_linear_1_17108" x1="310.19" y1="331.793" x2="262.737" y2="472.082" gradientUnits="userSpaceOnUse">
<stop stop-color="#FFBE2E"/>
<stop offset="1" stop-color="#FBBD33"/>
</linearGradient>
<linearGradient id="paint14_linear_1_17108" x1="281.879" y1="455.769" x2="438.476" y2="261.245" gradientUnits="userSpaceOnUse">
<stop stop-color="#FDF53F"/>
<stop offset="1" stop-color="#D93C65"/>
</linearGradient>
<linearGradient id="paint15_linear_1_17108" x1="-67.9248" y1="131.32" x2="119.584" y2="293.16" gradientUnits="userSpaceOnUse">
<stop stop-color="#FDF53F"/>
<stop offset="1" stop-color="#D93C65"/>
</linearGradient>
<linearGradient id="paint16_linear_1_17108" x1="568.218" y1="92.3742" x2="427.953" y2="169.816" gradientUnits="userSpaceOnUse">
<stop stop-color="#2C759E"/>
<stop offset="1" stop-color="#051042"/>
</linearGradient>
<linearGradient id="paint17_linear_1_17108" x1="571.414" y1="99.6766" x2="431.147" y2="177.119" gradientUnits="userSpaceOnUse">
<stop stop-color="#2C759E"/>
<stop offset="1" stop-color="#051042"/>
</linearGradient>
<linearGradient id="paint18_linear_1_17108" x1="574.219" y1="103.196" x2="433.952" y2="180.639" gradientUnits="userSpaceOnUse">
<stop stop-color="#2C759E"/>
<stop offset="1" stop-color="#051042"/>
</linearGradient>
<linearGradient id="paint19_linear_1_17108" x1="575.33" y1="108.802" x2="435.062" y2="186.245" gradientUnits="userSpaceOnUse">
<stop stop-color="#2C759E"/>
<stop offset="1" stop-color="#051042"/>
</linearGradient>
<linearGradient id="paint20_linear_1_17108" x1="580.221" y1="114.02" x2="439.953" y2="191.463" gradientUnits="userSpaceOnUse">
<stop stop-color="#2C759E"/>
<stop offset="1" stop-color="#051042"/>
</linearGradient>
<linearGradient id="paint21_linear_1_17108" x1="583.214" y1="119.432" x2="442.947" y2="196.875" gradientUnits="userSpaceOnUse">
<stop stop-color="#2C759E"/>
<stop offset="1" stop-color="#051042"/>
</linearGradient>
<linearGradient id="paint22_linear_1_17108" x1="586.016" y1="122.953" x2="445.751" y2="200.394" gradientUnits="userSpaceOnUse">
<stop stop-color="#2C759E"/>
<stop offset="1" stop-color="#051042"/>
</linearGradient>
<linearGradient id="paint23_linear_1_17108" x1="587.321" y1="130.451" x2="447.054" y2="207.893" gradientUnits="userSpaceOnUse">
<stop stop-color="#2C759E"/>
<stop offset="1" stop-color="#051042"/>
</linearGradient>
<linearGradient id="paint24_linear_1_17108" x1="590.319" y1="135.863" x2="450.052" y2="213.305" gradientUnits="userSpaceOnUse">
<stop stop-color="#2C759E"/>
<stop offset="1" stop-color="#051042"/>
</linearGradient>
<linearGradient id="paint25_linear_1_17108" x1="593.123" y1="139.382" x2="452.857" y2="216.825" gradientUnits="userSpaceOnUse">
<stop stop-color="#2C759E"/>
<stop offset="1" stop-color="#051042"/>
</linearGradient>
<linearGradient id="paint26_linear_1_17108" x1="594.425" y1="146.881" x2="454.16" y2="224.322" gradientUnits="userSpaceOnUse">
<stop stop-color="#2C759E"/>
<stop offset="1" stop-color="#051042"/>
</linearGradient>
<linearGradient id="paint27_linear_1_17108" x1="601.9" y1="154.733" x2="459.631" y2="233.281" gradientUnits="userSpaceOnUse">
<stop stop-color="#2C759E"/>
<stop offset="1" stop-color="#051042"/>
</linearGradient>
<clipPath id="clip0_1_17108">
<rect width="748" height="735" fill="white" transform="translate(5)"/>
</clipPath>
</defs>
</svg>
