<svg width="693" height="726" viewBox="0 0 693 726" fill="none" xmlns="http://www.w3.org/2000/svg">
<g clip-path="url(#clip0_1_17283)">
<path d="M482.452 85.7711C572.918 194.607 598.012 275.361 598.012 275.361C598.012 275.361 645.106 385.234 661.341 530.404C677.678 675.739 644.8 724.847 644.8 724.847L77.9079 726.672C77.9079 726.672 -10.4138 326.337 82.0942 137.7C174.704 -50.9368 391.884 -23.0643 482.452 85.7711Z" fill="#FFEECC"/>
<path d="M45.4075 726.672H675.8C679.167 726.672 681.922 721.531 681.922 715.248C681.922 708.964 679.167 703.823 675.8 703.823H45.4075C42.0402 703.823 39.2852 708.964 39.2852 715.248C39.2852 721.531 42.0402 726.672 45.4075 726.672Z" fill="#5C8097"/>
</g>
<path d="M349.28 449.382H252.117V703.771H349.28V449.382Z" fill="#F0F0F0"/>
<path d="M339.551 449.382H225.43V703.771H339.551V449.382Z" fill="#FAFAFA"/>
<path d="M244.749 457.44H231.266V470.917H244.749V457.44Z" fill="#EBEBEB"/>
<path d="M266.714 457.44H253.23V470.917H266.714V457.44Z" fill="#EBEBEB"/>
<path d="M288.675 457.44H275.191V470.917H288.675V457.44Z" fill="#EBEBEB"/>
<path d="M310.64 457.44H297.156V470.917H310.64V457.44Z" fill="#EBEBEB"/>
<path d="M332.601 457.44H319.117V470.917H332.601V457.44Z" fill="#EBEBEB"/>
<path d="M244.749 475.501H231.266V488.978H244.749V475.501Z" fill="#EBEBEB"/>
<path d="M266.714 475.501H253.23V488.978H266.714V475.501Z" fill="#EBEBEB"/>
<path d="M288.675 475.501H275.191V488.978H288.675V475.501Z" fill="#EBEBEB"/>
<path d="M310.64 475.501H297.156V488.978H310.64V475.501Z" fill="#EBEBEB"/>
<path d="M332.601 475.501H319.117V488.978H332.601V475.501Z" fill="#EBEBEB"/>
<path d="M244.749 493.702H231.266V507.178H244.749V493.702Z" fill="#EBEBEB"/>
<path d="M266.714 493.702H253.23V507.178H266.714V493.702Z" fill="#EBEBEB"/>
<path d="M288.675 493.702H275.191V507.178H288.675V493.702Z" fill="#EBEBEB"/>
<path d="M310.64 493.702H297.156V507.178H310.64V493.702Z" fill="#EBEBEB"/>
<path d="M332.601 493.702H319.117V507.178H332.601V493.702Z" fill="#EBEBEB"/>
<path d="M244.749 511.763H231.266V525.24H244.749V511.763Z" fill="#EBEBEB"/>
<path d="M266.714 511.763H253.23V525.24H266.714V511.763Z" fill="#EBEBEB"/>
<path d="M288.675 511.763H275.191V525.24H288.675V511.763Z" fill="#EBEBEB"/>
<path d="M310.64 511.763H297.156V525.24H310.64V511.763Z" fill="#EBEBEB"/>
<path d="M332.601 511.763H319.117V525.24H332.601V511.763Z" fill="#EBEBEB"/>
<path d="M244.749 529.825H231.266V543.301H244.749V529.825Z" fill="#EBEBEB"/>
<path d="M266.714 529.825H253.23V543.301H266.714V529.825Z" fill="#EBEBEB"/>
<path d="M288.675 529.825H275.191V543.301H288.675V529.825Z" fill="#EBEBEB"/>
<path d="M310.64 529.825H297.156V543.301H310.64V529.825Z" fill="#EBEBEB"/>
<path d="M332.601 529.825H319.117V543.301H332.601V529.825Z" fill="#EBEBEB"/>
<path d="M474.245 417.844H375.691V703.909H474.245V417.844Z" fill="#E6E6E6"/>
<path d="M445.611 417.844H349.004V703.909H445.611V417.844Z" fill="#F5F5F5"/>
<path d="M438.801 427.708H356.789V438.267H438.801V427.708Z" fill="#E0E0E0"/>
<path d="M438.801 444.102H356.789V454.661H438.801V444.102Z" fill="#E0E0E0"/>
<path d="M438.801 460.497H356.789V471.056H438.801V460.497Z" fill="#E0E0E0"/>
<path d="M438.801 476.891H356.789V487.45H438.801V476.891Z" fill="#E0E0E0"/>
<path d="M438.801 493.146H356.789V503.705H438.801V493.146Z" fill="#E0E0E0"/>
<path d="M225.428 552.054H126.875V703.909H225.428V552.054Z" fill="#E6E6E6"/>
<path d="M196.795 552.054H100.188V703.909H196.795V552.054Z" fill="#F0F0F0"/>
<path d="M189.426 560.807H107.414V571.366H189.426V560.807Z" fill="#E0E0E0"/>
<path d="M189.426 577.201H107.414V587.76H189.426V577.201Z" fill="#E0E0E0"/>
<path d="M189.426 593.596H107.414V604.155H189.426V593.596Z" fill="#E0E0E0"/>
<path d="M189.426 609.851H107.414V620.41H189.426V609.851Z" fill="#E0E0E0"/>
<path d="M189.426 626.245H107.414V636.804H189.426V626.245Z" fill="#E0E0E0"/>
<path d="M599.487 552.054H500.934V703.909H599.487V552.054Z" fill="#E6E6E6"/>
<path d="M570.853 552.054H474.246V703.909H570.853V552.054Z" fill="#F0F0F0"/>
<path d="M496.487 560.807H483.004V574.284H496.487V560.807Z" fill="#FAFAFA"/>
<path d="M518.448 560.807H504.965V574.284H518.448V560.807Z" fill="#FAFAFA"/>
<path d="M540.272 560.807H526.789V574.284H540.272V560.807Z" fill="#FAFAFA"/>
<path d="M562.233 560.807H548.75V574.284H562.233V560.807Z" fill="#FAFAFA"/>
<path d="M496.487 580.953H483.004V594.429H496.487V580.953Z" fill="#FAFAFA"/>
<path d="M518.448 580.953H504.965V594.429H518.448V580.953Z" fill="#FAFAFA"/>
<path d="M540.272 580.953H526.789V594.429H540.272V580.953Z" fill="#FAFAFA"/>
<path d="M562.233 580.953H548.75V594.429H562.233V580.953Z" fill="#FAFAFA"/>
<path d="M496.487 601.237H483.004V614.714H496.487V601.237Z" fill="#FAFAFA"/>
<path d="M518.448 601.237H504.965V614.714H518.448V601.237Z" fill="#FAFAFA"/>
<path d="M540.272 601.237H526.789V614.714H540.272V601.237Z" fill="#FAFAFA"/>
<path d="M562.233 601.237H548.75V614.714H562.233V601.237Z" fill="#FAFAFA"/>
<path d="M496.487 621.383H483.004V634.859H496.487V621.383Z" fill="#FAFAFA"/>
<path d="M518.448 621.383H504.965V634.859H518.448V621.383Z" fill="#FAFAFA"/>
<path d="M540.272 621.383H526.789V634.859H540.272V621.383Z" fill="#FAFAFA"/>
<path d="M562.233 621.383H548.75V634.859H562.233V621.383Z" fill="#FAFAFA"/>
<path d="M448.203 317.739C446.673 322.462 440.835 324.268 440.835 324.268L171.308 338.579C152.265 338.995 138.643 336.634 128.912 333.16C122.24 330.798 117.375 327.742 113.9 324.685C105.143 317.044 105.004 308.986 105.004 308.986L142.257 307.041C145.315 306.902 148.651 306.763 152.126 306.485L163.524 305.929C247.343 301.622 392.74 294.259 403.305 294.259C407.892 294.259 413.73 295.37 419.846 297.176C424.711 298.566 429.715 300.511 434.163 302.595C439.723 305.234 444.449 308.152 446.952 310.792C447.925 311.903 448.48 312.876 448.759 313.848C448.62 315.377 448.62 316.627 448.203 317.739Z" fill="#FFBE2E"/>
<path d="M163.385 306.068L151.987 306.624L142.118 307.179L104.865 309.125L100 268.834L116.263 268.139C116.263 268.139 119.182 273.279 130.303 288.84C141.562 304.123 163.385 306.068 163.385 306.068Z" fill="#407BFF"/>
<path d="M448.204 317.739C446.675 322.462 440.837 324.268 440.837 324.268L171.31 338.579C152.267 338.995 138.644 336.634 128.914 333.16L448.204 317.739Z" fill="#263238"/>
<path opacity="0.1" d="M446.673 310.931L113.9 324.685C105.003 317.044 105.003 308.986 105.003 308.986V308.569L104.725 306.068L100.277 268.834L116.541 268.139C116.541 268.139 119.46 273.279 130.58 288.84C141.7 304.262 163.524 306.068 163.524 306.068C247.343 301.761 392.74 294.397 403.304 294.397C407.891 294.397 413.729 295.509 419.845 297.315C420.401 297.454 421.096 297.593 421.652 297.871C425.962 299.26 430.271 300.927 434.163 302.734C434.858 303.011 435.692 303.428 436.387 303.845C440.696 306.068 444.588 308.569 446.673 310.931Z" fill="#FFBE2E"/>
<path d="M178.536 317.877H177.98C176.868 317.877 175.895 317.044 175.756 315.932L175.617 313.432C175.617 312.32 176.451 311.347 177.563 311.209H178.119C179.231 311.209 180.204 312.042 180.343 313.154L180.482 315.654C180.482 316.766 179.648 317.738 178.536 317.877Z" fill="white"/>
<path d="M188.405 317.461H187.849C186.737 317.6 185.764 316.766 185.625 315.654L185.347 313.154C185.208 312.042 186.042 311.07 187.154 310.931H187.71C188.822 310.792 189.795 311.625 189.934 312.737L190.212 315.238C190.351 316.349 189.517 317.322 188.405 317.461Z" fill="white"/>
<path d="M198.138 317.044H197.582C196.47 317.044 195.497 316.21 195.358 315.099L195.219 312.598C195.219 311.486 196.053 310.514 197.165 310.375H197.721C198.833 310.375 199.806 311.209 199.945 312.32L200.084 314.821C200.223 315.932 199.389 316.905 198.138 317.044Z" fill="white"/>
<path d="M208.005 316.627H207.449C206.337 316.627 205.364 315.793 205.225 314.682L205.086 312.181C205.086 311.07 205.92 310.097 207.032 309.958H207.588C208.7 309.958 209.673 310.792 209.812 311.903L209.951 314.404C210.09 315.515 209.117 316.488 208.005 316.627Z" fill="white"/>
<path d="M218.431 316.21H217.875C216.763 316.21 215.79 315.377 215.651 314.265L215.512 311.764C215.512 310.653 216.346 309.68 217.458 309.541H218.014C219.126 309.541 220.099 310.375 220.238 311.486L220.377 313.987C220.516 315.099 219.682 316.071 218.431 316.21Z" fill="white"/>
<path d="M228.716 315.654H228.16C227.048 315.654 226.075 314.821 225.936 313.709L225.797 311.209C225.797 310.097 226.631 309.125 227.743 308.986H228.299C229.411 308.986 230.384 309.819 230.523 310.931L230.662 313.431C230.801 314.682 229.828 315.654 228.716 315.654Z" fill="white"/>
<path d="M322.267 311.764H321.711C320.599 311.764 319.626 310.931 319.487 309.819L319.348 307.318C319.348 306.207 320.182 305.234 321.294 305.095H321.85C322.962 305.095 323.935 305.929 324.074 307.041L324.213 309.541C324.352 310.792 323.379 311.764 322.267 311.764Z" fill="white"/>
<path d="M332.692 311.347H332.136C331.024 311.347 330.051 310.514 329.912 309.402L329.773 306.902C329.773 305.79 330.607 304.818 331.719 304.679H332.275C333.387 304.679 334.361 305.512 334.5 306.624L334.639 309.125C334.778 310.375 333.804 311.347 332.692 311.347Z" fill="white"/>
<path d="M342.005 310.931H341.449C340.337 310.931 339.364 310.097 339.225 308.986L339.086 306.485C339.086 305.373 339.92 304.401 341.032 304.262H341.588C342.7 304.262 343.673 305.095 343.812 306.207L343.951 308.708C344.09 309.958 343.117 310.931 342.005 310.931Z" fill="white"/>
<path d="M351.735 310.514H351.179C350.067 310.514 349.094 309.68 348.955 308.569L348.816 306.068C348.816 304.957 349.65 303.984 350.762 303.845H351.318C352.43 303.845 353.404 304.679 353.543 305.79L353.682 308.291C353.682 309.541 352.848 310.514 351.735 310.514Z" fill="white"/>
<path d="M360.771 310.097H360.215C359.103 310.097 358.13 309.263 357.991 308.152L357.852 305.651C357.852 304.54 358.686 303.567 359.798 303.428H360.354C361.466 303.428 362.439 304.262 362.578 305.373L362.717 307.874C362.856 309.125 362.022 310.097 360.771 310.097Z" fill="white"/>
<path d="M316.287 309.402L216.344 276.753C212.591 275.502 208.838 274.947 204.946 275.086L182.566 275.919L240.948 313.015L316.287 309.402Z" fill="#263238"/>
<path d="M273.196 333.16L252.484 352.611L260.547 353.028C264.439 353.167 268.331 352.611 271.945 351.499L337.832 329.826L273.196 333.16Z" fill="#263238"/>
<path d="M193.966 331.91L190.49 328.02L157.269 320.378C152.96 319.406 148.651 318.989 144.341 319.267L129.746 320.239L157.825 333.716L193.966 331.91Z" fill="#263238"/>
<path d="M163.387 306.068L105.006 308.569L104.728 306.068L102.782 289.952L101.809 282.449L100.141 268.695L116.404 268C116.404 268 118.35 271.473 125.161 281.338C126.551 283.422 128.219 285.645 130.165 288.284C130.304 288.423 130.304 288.562 130.443 288.562C141.564 304.123 163.387 306.068 163.387 306.068Z" fill="#263238"/>
<path d="M130.164 288.423L102.641 289.952L101.668 282.449L125.159 281.477C126.689 283.422 128.218 285.784 130.164 288.423Z" fill="white"/>
<path d="M436.109 303.706C421.931 304.679 381.759 306.624 375.921 306.207C368.554 305.651 369.527 300.233 369.527 300.233L421.514 297.871C425.823 299.26 430.132 300.927 434.024 302.734C434.719 303.011 435.414 303.289 436.109 303.706Z" fill="white"/>
<path d="M141.008 411.519C142.259 408.879 222.047 329.826 222.047 329.826L231.499 423.606" stroke="#263238" stroke-width="0.5" stroke-miterlimit="10" stroke-linecap="round" stroke-linejoin="round"/>
<path d="M156.297 412.77L222.045 329.687L243.591 425.551" stroke="#263238" stroke-width="0.5" stroke-miterlimit="10" stroke-linecap="round" stroke-linejoin="round"/>
<path d="M243.87 425.227L153.32 412.346L144.056 477.405L234.606 490.286L243.87 425.227Z" fill="#DD9A06"/>
<path d="M226.833 423.465L153.266 413L144.002 478.059L217.569 488.524L226.833 423.465Z" fill="#FFBE2E"/>
<path opacity="0.5" d="M182.26 475.007C195.918 474.565 206.632 463.14 206.19 449.489C205.748 435.838 194.318 425.129 180.66 425.571C167.002 426.012 156.288 437.437 156.73 451.088C157.172 464.74 168.602 475.448 182.26 475.007Z" fill="white"/>
<path opacity="0.5" d="M235.971 430.779L219.457 428.43L218.674 433.931L235.187 436.28L235.971 430.779Z" fill="white"/>
<path opacity="0.5" d="M229.701 475.102L213.188 472.753L212.404 478.255L228.918 480.604L229.701 475.102Z" fill="white"/>
<path d="M166.443 438.472L171.447 441.529C172.003 441.946 172.281 442.64 171.864 443.335L169.64 446.947C169.223 447.503 168.528 447.781 167.833 447.364L162.829 444.308C162.69 448.059 165.748 450.976 169.362 451.115C170.196 451.115 171.03 450.976 171.725 450.699C173.254 450.143 174.922 450.421 176.173 451.393L193.687 463.62C195.355 464.731 197.58 464.453 198.831 462.786C199.943 461.119 199.526 458.896 197.997 457.784C197.858 457.645 197.719 457.645 197.719 457.645L178.814 447.503C177.424 446.808 176.451 445.28 176.312 443.752C175.895 440.14 172.559 437.5 168.945 437.917C167.972 437.778 167.138 438.056 166.443 438.472ZM197.858 461.813C197.441 462.508 196.607 462.647 196.051 462.23C195.356 461.813 195.217 460.98 195.634 460.424C196.051 459.729 196.885 459.59 197.441 460.007C197.997 460.424 198.275 461.258 197.858 461.813Z" fill="white"/>
<path d="M347.982 512.524L351.318 324.685L267.082 504.327" stroke="#263238" stroke-width="0.5" stroke-miterlimit="10" stroke-linecap="round" stroke-linejoin="round"/>
<path d="M358.545 514.886L351.317 324.685L281.398 506.689" stroke="#263238" stroke-width="0.5" stroke-miterlimit="10" stroke-linecap="round" stroke-linejoin="round"/>
<path d="M359.282 513.895L277.715 504.108L270.673 562.736L352.24 572.523L359.282 513.895Z" fill="#DD9A06"/>
<path d="M348.013 512.633L266.445 502.846L259.403 561.474L340.971 571.261L348.013 512.633Z" fill="#FBBD32"/>
<path opacity="0.5" d="M322.758 549.169C329.108 538.66 325.732 524.996 315.218 518.648C304.704 512.301 291.032 515.675 284.682 526.184C278.332 536.693 281.707 550.358 292.221 556.705C302.736 563.052 316.407 559.679 322.758 549.169Z" fill="white"/>
<path opacity="0.8" d="M290.158 532.392C290.853 531.558 292.104 531.697 293.077 532.67L299.055 538.505L296.413 541.562C296.413 541.562 292.382 536.143 291.548 535.032C290.714 533.92 289.741 532.948 290.158 532.392Z" fill="white"/>
<path d="M296.83 532.809C296.969 531.697 298.081 531.281 299.471 531.558C300.583 531.836 306.004 534.198 306.004 534.198C306.004 534.198 311.981 533.226 315.039 534.476C316.012 534.893 316.151 535.865 315.734 536.699C315.456 537.533 314.622 538.088 313.788 537.949L305.17 538.088C305.031 538.088 304.892 538.088 304.753 538.088C302.668 536.56 300.444 535.31 298.081 534.059C296.969 533.503 296.691 533.365 296.83 532.809Z" fill="white"/>
<path d="M315.872 535.032C314.899 534.337 312.953 534.198 310.868 534.754C308.644 535.31 306.698 536.282 304.891 537.671H304.752L298.219 538.227L291.408 532.809C290.296 531.975 289.045 531.836 288.489 532.67C288.072 533.226 289.184 534.198 290.157 535.171C290.991 536.004 294.605 539.894 295.578 541.006C295.856 541.284 295.995 541.423 296.273 541.562L297.802 542.256C298.636 542.534 299.47 542.812 300.304 542.673L312.953 541.284L320.32 547.814L321.293 539.478L315.872 535.032Z" fill="white"/>
<path opacity="0.5" d="M352.135 518.995L337.367 517.223L336.771 522.189L351.538 523.961L352.135 518.995Z" fill="white"/>
<path opacity="0.5" d="M347.26 558.86L332.492 557.088L331.896 562.054L346.663 563.826L347.26 558.86Z" fill="white"/>
<path d="M431.227 202.11L424.972 201.277L408.848 199.332L407.18 213.503L426.779 215.865L429.559 216.282L431.227 202.11Z" fill="#407BFF"/>
<path opacity="0.7" d="M431.227 202.11L424.972 201.277L408.848 199.332L407.18 213.503L426.779 215.865L429.559 216.282L431.227 202.11Z" fill="black"/>
<path d="M368.259 180.853L366.312 194.469L385.356 197.248L387.858 197.525L389.804 183.91L375.626 181.965L368.259 180.853Z" fill="#407BFF"/>
<path opacity="0.7" d="M368.259 180.853L366.312 194.469L385.356 197.248L387.858 197.525L389.804 183.91L375.626 181.965L368.259 180.853Z" fill="black"/>
<path d="M475.845 140.007C475.706 139.59 475.567 139.173 475.15 138.617C475.011 138.478 474.872 138.339 474.733 138.2C473.621 137.228 471.814 136.116 469.729 135.144C469.451 135.005 469.312 134.866 469.034 134.866C467.366 134.171 465.42 133.477 463.613 132.921C461.25 132.226 458.887 131.809 456.941 131.67C456.802 131.67 456.663 131.67 456.385 131.67C454.161 131.67 437.48 132.504 417.047 133.477C411.348 133.754 405.371 134.032 399.255 134.31L385.771 129.864C384.242 129.309 382.574 129.17 380.906 129.17L371.315 129.448L380.35 135.144C370.62 135.7 361.307 136.116 353.245 136.533C353.245 136.533 348.796 136.116 344.487 133.755C342.541 132.643 340.595 131.115 339.066 129.031C337.259 126.53 336.008 124.724 335.035 123.334C335.035 123.334 335.035 123.195 334.896 123.195C334.757 123.057 334.618 122.918 334.618 122.64C334.479 122.501 334.34 122.362 334.34 122.223C334.34 122.223 334.34 122.223 334.34 122.084C334.201 121.945 334.201 121.806 334.062 121.667C334.062 121.667 334.062 121.667 334.062 121.528C333.923 121.389 333.923 121.25 333.784 121.25C333.506 120.834 333.367 120.556 333.228 120.278C333.228 120.278 333.228 120.139 333.089 120.139C333.089 120.139 333.089 120.139 333.089 120L328.919 120.139L326 120.278L328.085 137.228V137.506V137.645C328.085 137.645 328.085 138.2 328.363 138.895C328.78 140.145 329.614 142.229 331.977 144.314C333.506 145.564 335.591 146.953 338.51 147.926C342.68 149.454 348.519 150.427 356.72 150.288L400.645 147.926L391.748 156.262L395.224 156.401C396.892 156.54 398.56 156.262 400.228 155.706L428.584 146.398L472.926 144.036C472.926 144.036 475.428 143.341 476.123 141.257C475.845 141.118 475.984 140.562 475.845 140.007Z" fill="#407BFF"/>
<path opacity="0.7" d="M475.845 140.007C475.706 139.59 475.567 139.173 475.15 138.617C475.011 138.478 474.872 138.339 474.733 138.2C473.621 137.228 471.814 136.116 469.729 135.144C469.451 135.005 469.312 134.866 469.034 134.866C467.366 134.171 465.42 133.477 463.613 132.921C461.25 132.226 458.887 131.809 456.941 131.67C456.802 131.67 456.663 131.67 456.385 131.67C454.161 131.67 437.48 132.504 417.047 133.477C411.348 133.754 405.371 134.032 399.255 134.31L385.771 129.864C384.242 129.309 382.574 129.17 380.906 129.17L371.315 129.448L380.35 135.144C370.62 135.7 361.307 136.116 353.245 136.533C353.245 136.533 348.796 136.116 344.487 133.755C342.541 132.643 340.595 131.115 339.066 129.031C337.259 126.53 336.008 124.724 335.035 123.334C335.035 123.334 335.035 123.195 334.896 123.195C334.757 123.057 334.618 122.918 334.618 122.64C334.479 122.501 334.34 122.362 334.34 122.223C334.34 122.223 334.34 122.223 334.34 122.084C334.201 121.945 334.201 121.806 334.062 121.667C334.062 121.667 334.062 121.667 334.062 121.528C333.923 121.389 333.923 121.25 333.784 121.25C333.506 120.834 333.367 120.556 333.228 120.278C333.228 120.278 333.228 120.139 333.089 120.139C333.089 120.139 333.089 120.139 333.089 120L328.919 120.139L326 120.278L328.085 137.228V137.506V137.645C328.085 137.645 328.085 138.2 328.363 138.895C328.78 140.145 329.614 142.229 331.977 144.314C333.506 145.564 335.591 146.953 338.51 147.926C342.68 149.454 348.519 150.427 356.72 150.288L400.645 147.926L391.748 156.262L395.224 156.401C396.892 156.54 398.56 156.262 400.228 155.706L428.584 146.398L472.926 144.036C472.926 144.036 475.428 143.341 476.123 141.257C475.845 141.118 475.984 140.562 475.845 140.007Z" fill="black"/>
<path d="M388.827 186.133L388.41 148.065L368.672 182.52" stroke="#263238" stroke-width="0.5" stroke-miterlimit="10" stroke-linecap="round" stroke-linejoin="round"/>
<path d="M430.807 202.944L430.112 145.147L409.262 200.304" stroke="#263238" stroke-width="0.5" stroke-miterlimit="10" stroke-linecap="round" stroke-linejoin="round"/>
<defs>
<clipPath id="clip0_1_17283">
<rect width="693" height="726" fill="white"/>
</clipPath>
</defs>
</svg>
