<svg width="234" height="146" viewBox="0 0 234 146" fill="none" xmlns="http://www.w3.org/2000/svg">
<path d="M233.539 81.6909C233.539 82.4563 233.539 83.2131 233.531 83.9785C233.514 85.3889 233.471 86.8079 233.419 88.2097C232.221 117.527 222.982 144.866 222.982 144.866L168.875 144.884H164.26H155.723H142.152H130.515L107.123 144.892H102.002H90.3743L73.6261 144.901L56.8778 144.909L5.01476 144.927C-5.41436 125.224 3.92732 118.12 10.8201 108.058C14.5106 102.675 17.4989 96.4399 16.3772 86.9627C15.9833 83.6775 15.1014 80.0053 13.5773 75.8429C12.8923 73.9767 12.6782 72.0331 12.3528 70.1755C12.2073 69.3413 12.0788 68.5071 11.9675 67.6815C11.9333 67.4665 11.9076 67.2429 11.8819 67.0279C6.53889 24.2256 28.8956 4.06725 63.6764 0.687445C90.9651 -1.96996 102.285 6.08825 109.452 12.478C133.17 33.6169 134.985 13.6562 185.752 18.0766C213.28 20.476 225.979 37.0654 230.902 57.5077C231.236 58.9009 231.536 60.3113 231.801 61.7389C231.938 62.4957 232.075 63.2525 232.195 64.0179C232.418 65.4197 232.615 66.8301 232.777 68.2491C232.871 69.0489 232.957 69.8573 233.026 70.6657C233.154 72.0675 233.257 73.4865 233.334 74.8969C233.377 75.7397 233.419 76.5825 233.445 77.4253C233.514 78.8701 233.539 80.2805 233.539 81.6909Z" fill="#EBF3FA"/>
<path d="M61.3902 17.036L77.3679 17.0102C77.8902 16.09 78.1214 15.1354 78.0272 14.1808C77.9501 13.467 77.7018 12.7962 77.2908 12.177L61.3731 16.6146L61.3902 17.036Z" fill="#D9E5FC"/>
<path d="M59.772 17.3112L44.1283 20.5792C43.4348 19.788 43.0067 18.9022 42.9125 17.9476C42.8354 17.2338 42.9467 16.5286 43.2293 15.832L59.7121 16.8984L59.772 17.3112Z" fill="#D9E5FC"/>
<path d="M54.8829 8.56505L59.9176 17.2339L60.9109 17.1307L64.0533 7.59325C62.5891 7.57605 61.0735 7.64485 59.5152 7.79965C57.8969 7.97165 56.3471 8.22965 54.8829 8.56505Z" fill="#D9E5FC"/>
<path d="M56.9979 25.3866C58.385 25.3952 59.8235 25.3264 61.2962 25.1716C62.7176 25.0254 64.0876 24.8018 65.4062 24.5266L60.8167 17.1392L59.9519 17.2252L56.9979 25.3866Z" fill="#D9E5FC"/>
<path d="M71.1515 35.9646C71.2457 36.8762 53.8981 38.708 53.8039 37.7706C53.7953 37.719 53.7953 37.6674 53.7867 37.6158C53.6669 36.1624 53.8981 34.7606 54.4204 33.505C55.6106 30.6412 58.2821 28.5084 61.5701 28.1644C64.8324 27.829 67.8635 29.3426 69.6188 31.8624C70.4151 33.0148 70.9546 34.3736 71.1258 35.8614C71.1429 35.8872 71.1429 35.9216 71.1515 35.9646Z" fill="#233862"/>
<path d="M60.029 20.519L60.166 33.9952L64.7384 33.5222L61.6302 20.347L60.029 20.519Z" fill="#233862"/>
<path d="M25.1881 33.2556L9.54441 36.5236C8.85085 35.7324 8.42273 34.8466 8.32854 33.892C8.25148 33.1782 8.36279 32.473 8.64535 31.7764L25.1282 32.8428L25.1881 33.2556Z" fill="#D9E5FC"/>
<path d="M27.1062 32.8084L43.0838 32.7826C43.6061 31.8624 43.8373 30.9078 43.7431 29.9532C43.666 29.2394 43.4177 28.5686 43.0067 27.9494L27.0891 32.387L27.1062 32.8084Z" fill="#D9E5FC"/>
<path d="M29.8717 23.4344L26.7207 32.9546L25.7275 33.0578L20.7013 24.3718C22.1312 24.0536 23.6297 23.8042 25.188 23.6408C26.7978 23.4774 28.3647 23.4086 29.8717 23.4344Z" fill="#D9E5FC"/>
<path d="M31.2333 40.3334C29.8719 40.6258 28.4505 40.858 26.9778 41.0128C25.5564 41.159 24.1693 41.2278 22.825 41.2278L25.8047 33.0492L26.6695 32.9632L31.2333 40.3334Z" fill="#D9E5FC"/>
<path d="M62.3923 36.8763L26.4298 36.0851L26.5839 34.3737L62.0584 32.8687L62.3923 36.8763Z" fill="#233862"/>
<path d="M28.4333 37.0569L24.7429 37.4439C23.801 37.5385 22.9619 36.8591 22.8677 35.9131V35.8959C22.7735 34.9499 23.45 34.1071 24.3918 34.0125L28.0823 33.6255C29.0241 33.5309 29.8633 34.2103 29.9575 35.1563V35.1735C30.0602 36.1109 29.3752 36.9537 28.4333 37.0569Z" fill="#FF9E55"/>
<path d="M27.7741 33.247L24.6145 33.5738L24.5546 32.9804C24.5204 32.6364 24.7687 32.3354 25.1112 32.2924L27.1319 32.086C27.423 32.0602 27.6799 32.2666 27.7056 32.559L27.7741 33.247Z" fill="#FF9E55"/>
<path d="M26.8085 33.3426L25.4798 33.4808L25.5221 33.8914L26.8508 33.7532L26.8085 33.3426Z" fill="#FF9E55"/>
<path d="M98.0978 25.5329L114.075 25.5071C114.598 24.5869 114.829 23.6323 114.735 22.6777C114.658 21.9639 114.409 21.2931 113.998 20.6739L98.0807 25.1115L98.0978 25.5329Z" fill="#D9E5FC"/>
<path d="M96.2485 25.6791L80.6048 28.9471C79.9112 28.1559 79.4831 27.2701 79.3889 26.3155C79.3118 25.6017 79.4232 24.8965 79.7057 24.1999L96.1886 25.2663L96.2485 25.6791Z" fill="#D9E5FC"/>
<path d="M91.6246 16.5545L96.6594 25.2233L97.6526 25.1201L100.795 15.5827C99.3309 15.5655 97.8153 15.6343 96.2569 15.7891C94.6472 15.9611 93.0974 16.2191 91.6246 16.5545Z" fill="#D9E5FC"/>
<path d="M93.7394 33.3761C95.1266 33.3847 96.5651 33.3159 98.0378 33.1611C99.4592 33.0149 100.829 32.7913 102.148 32.5161L97.5583 25.1287L96.6935 25.2147L93.7394 33.3761Z" fill="#D9E5FC"/>
<path d="M62.6319 36.8505L97.6696 28.6805L97.1644 27.0379L62.1353 32.8601L62.6319 36.8505Z" fill="#233862"/>
<path d="M95.7346 29.7985L99.7247 29.3857C100.581 29.2997 101.206 28.5257 101.12 27.6657L101.112 27.6055C101.026 26.7455 100.256 26.1177 99.3993 26.2037L95.4092 26.6165C94.553 26.7025 93.9279 27.4765 94.0135 28.3365L94.0221 28.3967C94.1077 29.2567 94.8698 29.8845 95.7346 29.7985Z" fill="#FF9E55"/>
<path d="M95.923 26.1521L98.7828 25.8511L98.7229 25.2319C98.6887 24.9051 98.3975 24.6643 98.0722 24.6987L96.2998 24.8793C96.0258 24.9051 95.8288 25.1545 95.8545 25.4297L95.923 26.1521Z" fill="#FF9E55"/>
<path d="M96.8055 26.4719L98.0234 26.3452L97.9811 25.9346L96.7631 26.0613L96.8055 26.4719Z" fill="#FF9E55"/>
<path d="M51.7317 64.0179L51.4577 61.3519L51.4663 61.2831L56.501 38.7941L58.7787 38.5619L58.8643 39.3531L57.1518 39.5337L52.2626 61.3949L52.4424 63.1321L54.4632 62.9257L54.5488 63.7255L51.7317 64.0179Z" fill="#233862"/>
<path d="M42.8526 66.6667L42.5786 64.0007L42.5872 63.9405L47.6219 41.4429L49.8996 41.2107L49.9852 42.0105L48.2727 42.1825L43.3835 64.0523L43.5633 65.7895L45.5841 65.5745L45.6697 66.3743L42.8526 66.6667Z" fill="#233862"/>
<path d="M85.1086 32.2065L85.4254 38.7597L65.1494 42.9823C64.4644 43.1371 63.2913 43.2489 62.5892 43.2317L42.6471 43.1629L40.5322 39.3875C40.4208 38.2781 41.2942 37.3235 42.4074 37.3493L53.7869 37.6073L62.5977 37.8137L62.5892 37.7535L71.1346 35.8443L85.1086 32.2065Z" fill="#94B0ED"/>
<path d="M60.8425 32.0173L41.7653 36.4205C40.909 36.6183 40.3354 37.4267 40.421 38.3039L40.7806 41.8213C40.8748 42.7415 41.7482 43.3693 42.6472 43.1629L62.0156 38.6737C62.4523 38.5705 62.889 38.5275 63.3342 38.5275L84.8603 38.8027C85.7423 38.8113 86.4444 38.0459 86.3502 37.1601L85.9649 33.4449C85.8793 32.6451 85.22 32.0431 84.4237 32.0345L63.1287 31.7679C62.3667 31.7593 61.596 31.8453 60.8425 32.0173Z" fill="#AEC3FF"/>
<path d="M57.7086 37.2803L45.0703 40.2387C44.5652 40.3591 44.1113 40.0323 44.06 39.5249L43.9658 38.5789C43.9144 38.0629 44.2826 37.5469 44.7878 37.4351L57.426 34.4767C57.9312 34.3563 58.385 34.6831 58.4364 35.1905L58.5306 36.1365C58.582 36.6439 58.2138 37.1599 57.7086 37.2803Z" fill="#233862"/>
<path d="M44.5784 80.2435L77.2764 74.8005L72.8077 47.7199L40.1097 53.1629L44.5784 80.2435Z" fill="#ED823A"/>
<path d="M60.93 77.5179L93.6279 72.0749L89.1592 44.9943L56.4613 50.4374L60.93 77.5179Z" fill="#FF9E55"/>
<path d="M43.469 73.3661L48.6493 72.5061L47.9472 71.1129L48.2298 69.9949L43.0494 70.8549L43.469 73.3661Z" fill="#DD732C"/>
<path d="M57.8455 58.8149L63.0258 57.9549L62.3237 56.5617L62.6062 55.4437L57.4259 56.3037L57.8455 58.8149Z" fill="#FFB27D"/>
<path d="M57.4261 56.3037L52.2457 57.1723L52.9479 58.5569L52.6653 59.6749L57.8456 58.8149L57.4261 56.3037Z" fill="#DD732C"/>
<path d="M92.5408 65.4971L87.3605 66.3571L88.0541 67.7503L87.7715 68.8683L92.9518 68.0083L92.5408 65.4971Z" fill="#FFB27D"/>
<path d="M87.3137 47.1836L77.9038 48.75L78.51 52.4236L87.9199 50.8571L87.3137 47.1836Z" fill="white"/>
<path d="M74.4994 58.4794C74.2939 58.4794 74.1227 58.3246 74.1056 58.1182C74.0799 57.8946 74.2426 57.6968 74.4652 57.6796L75.3557 57.585C75.9808 57.5162 76.4346 56.9572 76.3661 56.3294L76.3233 55.9166C76.3147 55.7962 76.2804 55.6758 76.2291 55.564L67.3926 36.085C67.1871 35.6378 66.7247 35.3712 66.2366 35.4228L65.3375 35.5174C65.1149 35.5432 64.918 35.3798 64.9009 35.1562C64.8752 34.9326 65.0379 34.7348 65.2605 34.7176L66.1595 34.623C66.9901 34.537 67.7779 34.9928 68.1204 35.7496L76.9569 55.2286C77.0425 55.4178 77.1025 55.6242 77.1196 55.8306L77.1624 56.2434C77.2737 57.3098 76.4945 58.2644 75.4328 58.3762L74.5423 58.4708C74.5251 58.4794 74.508 58.4794 74.4994 58.4794Z" fill="#233862"/>
<path d="M86.9409 57.1723C86.744 57.1723 86.5813 57.0261 86.5556 56.8197C86.5299 56.6047 86.684 56.4155 86.8981 56.3897L87.7886 56.2951C88.4222 56.2263 88.876 55.6587 88.8161 55.0309L88.7904 54.7643C88.7733 54.6353 88.739 54.5063 88.6876 54.3859L80.0138 36.1969C79.8083 35.7583 79.3374 35.5003 78.8579 35.5433L77.9417 35.6379C77.7276 35.6637 77.5392 35.5089 77.5135 35.2939C77.4879 35.0789 77.642 34.8897 77.856 34.8639L78.7722 34.7693C79.5771 34.6833 80.3563 35.1219 80.7074 35.8529L89.3812 54.0419C89.4754 54.2397 89.5353 54.4547 89.561 54.6783L89.5867 54.9449C89.698 56.0027 88.9274 56.9573 87.8742 57.0691L86.9837 57.1637C86.9666 57.1723 86.9495 57.1723 86.9409 57.1723Z" fill="#233862"/>
<path d="M87.8633 50.4619L75.2186 52.4637L75.3439 53.2623L87.9887 51.2605L87.8633 50.4619Z" fill="#233862"/>
<path d="M58.7873 21.491L63.197 21.0352C63.9334 20.9578 64.4728 20.2956 64.3957 19.5474L64.3358 18.9454C64.2587 18.2058 63.5994 17.664 62.8545 17.7414L58.4448 18.1972C57.7084 18.2746 57.169 18.9368 57.246 19.685L57.306 20.287C57.383 21.0266 58.0424 21.5684 58.7873 21.491Z" fill="#FF9E55"/>
<path d="M59.1211 17.7155L62.1094 17.4059L62.0495 16.7953C62.0152 16.4599 61.7155 16.2191 61.3901 16.2535L59.515 16.4513C59.2324 16.4771 59.0269 16.7351 59.0612 17.0189L59.1211 17.7155Z" fill="#FF9E55"/>
<path d="M60.0349 18.0325L61.3125 17.8996L61.2702 17.489L59.9926 17.6218L60.0349 18.0325Z" fill="#FF9E55"/>
<path d="M123.674 100.052C123.186 99.9573 113.013 105.066 113.501 108.007C113.99 110.957 118.879 113.511 120.84 112.23C122.792 110.957 123.288 104.962 123.288 104.962L123.674 100.052Z" fill="#F77D48"/>
<path d="M133.315 68.8166C133.315 68.8166 127.964 71.345 126.414 81.6736C124.068 97.2912 121.619 101.221 121.525 109.28C121.465 113.906 124.333 116.504 127.065 111.077C129.788 105.659 133.315 68.8166 133.315 68.8166Z" fill="#F77D48"/>
<path d="M156.537 130.161C156.537 130.161 156.537 130.195 156.528 130.272C156.528 130.281 156.528 130.29 156.528 130.298C156.528 130.324 156.528 130.35 156.52 130.384C156.52 130.393 156.52 130.401 156.52 130.419C156.511 130.513 156.511 130.625 156.503 130.763C156.503 130.797 156.503 130.823 156.494 130.857C156.494 130.866 156.494 130.874 156.494 130.883C156.494 130.9 156.494 130.926 156.494 130.943C156.494 130.978 156.494 131.003 156.485 131.038C156.485 131.089 156.477 131.15 156.477 131.21C156.477 131.279 156.468 131.347 156.468 131.425C156.468 131.502 156.46 131.58 156.46 131.666C156.46 131.7 156.46 131.726 156.451 131.76C156.443 131.915 156.434 132.078 156.425 132.259C156.425 132.328 156.417 132.397 156.417 132.465C156.408 132.603 156.4 132.749 156.391 132.904C156.391 132.964 156.383 133.024 156.383 133.093C156.383 133.153 156.374 133.205 156.374 133.265C156.374 133.343 156.366 133.429 156.366 133.506C156.366 133.515 156.366 133.523 156.366 133.532C156.357 133.626 156.357 133.73 156.348 133.824C156.348 133.902 156.34 133.979 156.34 134.065C156.34 134.074 156.34 134.082 156.34 134.091C156.34 134.16 156.331 134.22 156.331 134.289C156.323 134.504 156.306 134.719 156.297 134.942C156.288 135.106 156.28 135.278 156.271 135.458C156.263 135.699 156.246 135.948 156.229 136.206C156.22 136.327 156.22 136.447 156.211 136.568C156.194 136.808 156.186 137.049 156.169 137.29C156.169 137.367 156.16 137.445 156.16 137.514C156.151 137.608 156.151 137.694 156.143 137.789C156.134 137.987 156.117 138.184 156.109 138.382C156.109 138.451 156.1 138.528 156.1 138.597C156.092 138.743 156.083 138.881 156.074 139.027C156.066 139.173 156.057 139.32 156.049 139.466C156.04 139.689 156.023 139.913 156.014 140.145C156.014 140.223 156.006 140.3 156.006 140.377C156.006 140.395 156.006 140.42 156.006 140.438C155.997 140.575 155.989 140.704 155.98 140.842C155.972 141.057 155.955 141.272 155.946 141.495C155.929 141.839 155.912 142.183 155.886 142.536C155.877 142.648 155.877 142.76 155.869 142.871C155.852 143.155 155.835 143.439 155.818 143.723C155.792 144.11 155.775 144.497 155.749 144.892H142.177H130.541C130.541 144.858 130.533 144.832 130.533 144.798C130.524 144.729 130.524 144.66 130.515 144.591C130.507 144.48 130.498 144.376 130.49 144.265C130.43 143.508 130.37 142.768 130.318 142.046C130.293 141.745 130.267 141.452 130.25 141.16C130.25 141.134 130.25 141.108 130.241 141.083C130.224 140.868 130.207 140.653 130.19 140.438C130.181 140.369 130.181 140.3 130.173 140.223C130.164 140.119 130.156 140.016 130.147 139.913C130.139 139.758 130.122 139.603 130.113 139.449C130.087 139.148 130.07 138.855 130.044 138.563C130.027 138.374 130.01 138.176 130.002 137.987C129.993 137.892 129.985 137.806 129.976 137.72C129.967 137.66 129.967 137.608 129.959 137.548C129.95 137.462 129.942 137.376 129.942 137.299C129.942 137.273 129.933 137.238 129.933 137.213C129.925 137.101 129.916 136.989 129.907 136.886C129.907 136.834 129.899 136.783 129.899 136.722C129.89 136.654 129.89 136.576 129.882 136.507C129.873 136.37 129.865 136.241 129.848 136.103C129.848 136.095 129.848 136.095 129.848 136.086C129.839 135.957 129.83 135.828 129.813 135.699C129.813 135.69 129.813 135.69 129.813 135.682C129.805 135.553 129.796 135.432 129.788 135.303C129.779 135.235 129.779 135.174 129.77 135.106C129.753 134.856 129.728 134.607 129.711 134.366C129.711 134.306 129.702 134.254 129.693 134.194C129.685 134.048 129.668 133.902 129.659 133.755C129.556 132.508 129.505 131.82 129.505 131.82L136.843 131.365L140.482 131.141L156.537 130.161Z" fill="#2B478B"/>
<path d="M156.537 130.16C156.537 130.16 156.537 130.195 156.528 130.272C156.528 130.281 156.528 130.289 156.528 130.298C156.528 130.324 156.528 130.35 156.52 130.384C156.52 130.393 156.52 130.401 156.52 130.418C156.511 130.513 156.511 130.625 156.503 130.762C156.503 130.797 156.503 130.823 156.494 130.857C156.494 130.866 156.494 130.874 156.494 130.883C156.494 130.9 156.494 130.926 156.494 130.943C156.494 130.977 156.494 131.003 156.485 131.038C156.485 131.089 156.477 131.149 156.477 131.21C156.477 131.278 156.468 131.347 156.468 131.425C156.468 131.502 156.46 131.579 156.46 131.665C156.46 131.7 156.46 131.726 156.451 131.76C156.443 131.915 156.434 132.078 156.426 132.259C156.426 132.328 156.417 132.396 156.417 132.465C156.408 132.603 156.4 132.749 156.391 132.904C156.391 132.964 156.383 133.024 156.383 133.093C156.383 133.153 156.374 133.205 156.374 133.265C156.374 133.342 156.366 133.428 156.366 133.506C156.366 133.514 156.366 133.523 156.366 133.532C156.357 133.626 156.357 133.729 156.348 133.824C156.348 133.901 156.34 133.979 156.34 134.065C156.34 134.073 156.34 134.082 156.34 134.091C156.34 134.159 156.331 134.22 156.331 134.288C156.323 134.503 156.306 134.718 156.297 134.942C156.289 135.105 156.28 135.277 156.271 135.458C156.263 135.699 156.246 135.948 156.229 136.206C156.22 136.327 156.22 136.447 156.212 136.567C156.194 136.808 156.186 137.049 156.169 137.29C156.169 137.367 156.16 137.445 156.16 137.513C156.152 137.608 156.152 137.694 156.143 137.789C156.134 137.986 156.117 138.184 156.109 138.382C156.109 138.451 156.1 138.528 156.1 138.597C156.092 138.743 156.083 138.881 156.074 139.027C156.066 139.173 156.057 139.319 156.049 139.466C156.04 139.689 156.023 139.913 156.015 140.145C156.015 140.222 156.006 140.3 156.006 140.377C156.006 140.394 156.006 140.42 156.006 140.437C155.997 140.575 155.989 140.704 155.98 140.842C155.972 141.057 155.955 141.272 155.946 141.495C155.929 141.839 155.903 142.183 155.886 142.536C155.878 142.648 155.878 142.759 155.869 142.871C155.852 143.155 155.835 143.439 155.818 143.723C155.792 144.11 155.775 144.497 155.749 144.892H142.178H130.541C130.541 144.944 130.55 144.995 130.55 145.047C130.55 144.995 130.541 144.944 130.541 144.892C130.541 144.858 130.533 144.832 130.533 144.798C130.524 144.729 130.524 144.66 130.515 144.591C130.507 144.479 130.498 144.376 130.49 144.264C130.43 143.508 130.37 142.768 130.318 142.046C130.293 141.745 130.276 141.452 130.25 141.16C130.25 141.134 130.25 141.108 130.241 141.082C130.224 140.867 130.207 140.652 130.19 140.437C130.181 140.369 130.181 140.3 130.173 140.222C130.164 140.119 130.156 140.016 130.147 139.913C130.139 139.758 130.122 139.603 130.113 139.448C130.087 139.147 130.07 138.855 130.044 138.563C130.027 138.373 130.01 138.176 130.002 137.986C129.993 137.892 129.985 137.806 129.976 137.72C129.967 137.66 129.967 137.608 129.959 137.548C129.95 137.462 129.942 137.376 129.942 137.298C129.942 137.273 129.933 137.238 129.933 137.212C129.925 137.101 129.916 136.989 129.907 136.886C129.907 136.834 129.899 136.782 129.899 136.722C129.89 136.653 129.89 136.576 129.882 136.507C129.873 136.37 129.865 136.241 129.848 136.103C129.848 136.094 129.848 136.094 129.848 136.086C129.839 135.957 129.83 135.828 129.813 135.699C129.813 135.69 129.813 135.69 129.813 135.682C129.805 135.553 129.796 135.432 129.788 135.303C129.779 135.234 129.779 135.174 129.77 135.105C129.753 134.856 129.728 134.607 129.711 134.366C129.711 134.306 129.702 134.254 129.693 134.194C129.685 134.048 129.668 133.901 129.659 133.755C129.608 133.059 129.556 132.414 129.505 131.82C129.377 130.212 129.282 128.991 129.222 128.294C129.188 127.856 129.171 127.623 129.171 127.623L135.593 128.208L156.537 130.16Z" fill="#233862"/>
<path d="M168.875 144.892H164.26H155.723H142.152C139.986 139.354 138.059 134.512 136.817 131.373C136.68 131.021 136.543 130.685 136.424 130.376C136.047 129.421 135.756 128.69 135.567 128.226C135.413 127.839 135.336 127.641 135.336 127.641C135.336 127.641 140.26 119.78 156.229 120.228C160.304 120.339 163.147 123.84 165.194 129.068C166.898 133.446 168.036 139.044 168.875 144.892Z" fill="#2B478B"/>
<path d="M142.203 70.9323C144.549 72.1707 146.844 72.2567 148.831 71.8267C150.646 71.4397 152.213 70.6399 153.326 69.9261C154.465 69.1951 155.141 68.5587 155.141 68.5587C155.141 68.5587 155.064 68.4469 154.927 68.2147C154.234 67.0193 152.127 62.7365 153.069 55.8479C153.078 55.7619 152.401 55.8823 151.374 56.1317C148.317 56.8541 142.186 58.6085 141.912 58.6859C141.903 58.6859 141.903 58.6859 141.903 58.6859C141.903 58.6859 141.826 60.1307 141.578 62.7279C141.561 62.9601 141.535 63.1923 141.51 63.4417C141.475 63.7427 141.45 64.0695 141.407 64.4049C141.116 67.1053 142.203 70.9323 142.203 70.9323Z" fill="#FFB27D"/>
<path d="M141.57 62.7278C146.125 63.777 152.932 57.0174 152.932 57.0174C152.435 56.6476 151.913 56.3552 151.374 56.1316C148.317 56.854 142.186 58.6084 141.912 58.6858C141.903 58.6858 141.903 58.6858 141.903 58.6858C141.903 58.6858 141.818 60.1306 141.57 62.7278Z" fill="#ED975D"/>
<path d="M140.02 58.316C140.02 58.316 141.895 58.9954 144.284 59.3136C147.777 59.7866 152.375 59.5114 153.814 55.263C156.246 48.1164 159.354 43.8336 152.196 40.9096C148.368 39.3444 145.919 39.267 144.25 39.8604C142.803 40.3764 141.955 41.3998 141.304 42.4232C139.917 44.6076 137.126 57.069 140.02 58.316Z" fill="#FFB27D"/>
<path d="M140.003 39.9293C139.112 40.5313 140.105 41.5117 141.064 42.0105C144.01 43.5585 145.859 43.1801 147.332 43.8337C149.113 44.6249 149.43 47.6263 149.464 48.5809C149.498 49.5355 149.618 50.3353 152.041 49.7677C152.435 49.6731 152.726 49.6989 152.915 49.8193C153.917 50.4127 152.632 53.3109 152.247 53.9387C152.247 53.9387 151.69 56.0113 152.923 57.0261C153.069 57.1465 155.501 58.2129 161.34 49.2345C162.256 47.8241 163.138 44.6507 161.717 41.5977C160.304 38.5447 155.501 36.3517 151.005 35.2767C148.12 34.5801 146.51 34.5887 144.601 36.4549C143.779 37.2461 141.818 38.6995 140.003 39.9293Z" fill="#233862"/>
<path d="M162.333 130.333C162.333 130.333 160.33 130.771 157.795 131.201C155.312 131.623 152.324 132.027 150.217 132.018C139.412 131.932 130.37 128.742 130.37 128.742C128.34 128.742 127.407 125.585 127.082 121.174C126.859 118.189 126.902 114.629 127.065 111.086C127.116 109.942 127.184 108.79 127.253 107.663C127.398 105.436 127.561 103.294 127.715 101.402C127.861 99.622 127.989 98.074 128.066 96.8614C128.066 96.8614 127.775 88.4162 127.895 80.9858C127.972 75.6538 130.952 70.7948 131.697 70.0122C133.863 67.716 141.372 65.9272 141.372 65.9272C146.527 68.834 153.617 65.0242 153.617 65.0242C153.771 65.05 153.925 65.0844 154.079 65.1188C154.593 65.007 159.799 65.781 161.006 66.4518C164.003 68.0944 165.741 86.292 165.741 86.292C166.015 93.0258 165.947 101.961 165.998 109.925C166.007 112.316 166.032 114.612 166.075 116.745C166.152 120.554 166.298 123.805 166.589 126.007C166.906 128.484 164.5 129.834 162.333 130.333Z" fill="#F77D48"/>
<path d="M154.037 65.1186C154.037 65.1186 146.356 73.0736 140.867 71.4396C140.867 71.4396 140.14 70.3646 142.606 70.0206C145.072 69.6766 147.752 69.8228 154.037 65.1186Z" fill="#E26337"/>
<path d="M139.968 53.7065C139.968 53.7065 139.814 54.6353 141.964 55.3663C141.964 55.3663 143.762 55.9855 144.087 55.0395C144.087 55.0395 142.657 53.6721 139.968 53.7065Z" fill="white"/>
<path d="M124.941 110.269C125.232 108.996 126.731 93.404 128.169 89.2158C128.469 88.3386 128.46 105.848 129.539 109.486C130.618 113.115 124.941 110.269 124.941 110.269Z" fill="#E26337"/>
<path d="M131.783 109.03H136.843C137.425 109.03 137.802 108.557 137.691 107.973L137.203 105.427C137.091 104.842 136.526 104.369 135.944 104.369H130.884C130.301 104.369 129.925 104.842 130.036 105.427L130.524 107.973C130.635 108.549 131.2 109.03 131.783 109.03Z" fill="#2B478B"/>
<path d="M110.522 109.03H115.582C116.164 109.03 116.541 108.557 116.43 107.973L115.942 105.427C115.831 104.842 115.265 104.369 114.683 104.369H109.623C109.04 104.369 108.664 104.842 108.775 105.427L109.263 107.973C109.383 108.549 109.948 109.03 110.522 109.03Z" fill="#2B478B"/>
<path d="M132.39 104.369H134.351L127.458 71.0012H126.568L132.39 104.369Z" fill="#2B478B"/>
<path d="M128.349 70.2443C128.195 69.4187 127.399 68.7479 126.577 68.7479C125.755 68.7479 125.215 69.4187 125.378 70.2443C125.532 71.0699 126.328 71.7407 127.15 71.7407C127.964 71.7407 128.503 71.0699 128.349 70.2443Z" fill="#2B478B"/>
<path d="M111.147 104.369H113.108L106.215 71.0012H105.325L111.147 104.369Z" fill="#2B478B"/>
<path d="M106.817 71.3485C107.319 70.793 107.184 69.8483 106.516 69.2384C105.847 68.6285 104.898 68.5844 104.396 69.1398C103.893 69.6953 104.028 70.6401 104.697 71.25C105.365 71.8599 106.314 71.904 106.817 71.3485Z" fill="#2B478B"/>
<path d="M118.699 107.517L118.828 103.354H126.123C126.894 104.937 127.99 107.216 128.075 107.465C128.067 107.439 128.067 107.431 128.067 107.414H128.957C128.94 107.336 128.906 107.156 126.774 102.778L126.62 102.46H117.937L117.783 107.319L118.699 107.517Z" fill="#2B478B"/>
<path d="M112.628 122.18H139.78C140.131 122.18 140.362 121.896 140.294 121.543L137.674 107.869C137.605 107.517 137.263 107.233 136.92 107.233H109.768C109.417 107.233 109.186 107.517 109.255 107.869L111.875 121.543C111.943 121.896 112.286 122.18 112.628 122.18Z" fill="#2B478B"/>
<path d="M145.166 111.077C145.166 111.077 145.123 114.663 144.087 114.147C143.051 113.631 138.008 114.827 136.021 115.05C134.035 115.274 132.836 113.33 132.81 112.522C132.776 111.714 137.991 110.492 138.076 109.736C138.093 109.589 138.025 109.452 137.948 109.297L137.554 107.233C138.333 107.551 139.489 108.342 140.191 108.575C141.261 108.91 145.166 111.077 145.166 111.077Z" fill="#FFB27D"/>
<path d="M108.595 108.231C108.595 108.231 108.03 110.63 108.724 111.757C109.417 112.883 112.859 113.064 113.399 112.195C113.938 111.327 112.012 109.529 111.258 108.764C110.505 108.007 109.169 107.07 108.595 108.231Z" fill="#FFB27D"/>
<path d="M166.067 116.727C155.578 119.101 143.753 114.818 143.753 114.818L165.99 109.916C165.998 112.298 166.024 114.603 166.067 116.727Z" fill="#E26337"/>
<path d="M144.113 108.893C144.113 108.893 155.167 105.556 157.222 101.523C159.277 97.4978 158.823 86.5241 158.823 86.5241L167.497 97.1021L165.93 109.091L158.695 109.779L144.113 108.893Z" fill="#E26337"/>
<path d="M160.998 66.4431C160.998 66.4431 165.878 67.1999 169.398 74.8625C172.917 82.5251 175.563 109.194 169.107 113.175C162.65 117.157 143.753 114.818 143.753 114.818C143.753 114.818 142.109 111.92 143.428 109.116C143.428 109.116 160.45 103.587 160.75 102.563C161.041 101.531 158.112 89.0095 158.549 84.1419C158.986 79.2829 160.998 66.4431 160.998 66.4431Z" fill="#F77D48"/>
<path d="M149.036 50.9028C149.524 47.953 152.153 45.9234 154.901 46.3878C157.658 46.8436 159.491 49.6128 159.003 52.5626C158.515 55.5124 155.886 57.542 153.137 57.0776C150.389 56.6218 148.548 53.8612 149.036 50.9028Z" fill="#F77D48"/>
<path d="M150.706 51.4533C151.057 49.3377 152.94 47.8843 154.91 48.2111C156.888 48.5379 158.198 50.5245 157.855 52.6401C157.504 54.7557 155.621 56.2091 153.651 55.8823C151.673 55.5469 150.355 53.5689 150.706 51.4533Z" fill="#FF9E55"/>
<path d="M153.343 52.0295C153.343 51.3673 153.874 50.8341 154.533 50.8341C155.192 50.8341 155.723 51.3673 155.723 52.0295C155.723 52.6917 155.192 53.2249 154.533 53.2249C153.882 53.2249 153.343 52.6917 153.343 52.0295Z" fill="#ED823A"/>
<path d="M154.876 52.4336C154.833 52.4336 154.79 52.4336 154.739 52.425C154.353 52.3476 154.105 51.9778 154.174 51.5908C154.182 51.5564 154.841 48.039 154.756 44.3153C154.679 41.0387 154.371 36.9107 151.75 35.5089C151.451 35.3455 150.372 35.1219 150.372 35.1219C150.398 34.8639 152.264 34.7607 153.086 35.0445C160.124 37.5213 155.689 51.2554 155.569 51.8574C155.509 52.1928 155.21 52.4336 154.876 52.4336Z" fill="#F77D48"/>
<path d="M158.78 30.8906C158.78 30.8906 160.912 27.2958 166.007 27.6914C166.007 27.6914 173.405 21.6972 181.282 26.8916C181.282 26.8916 189.665 25.6016 195.873 28.0096C200.008 29.6092 201.378 31.2948 201.378 31.2948L158.78 30.8906Z" fill="#F8FCFF"/>
<path d="M190.461 40.7548C190.461 40.7548 191.694 38.5618 194.657 38.8026C194.657 38.8026 198.955 35.1476 203.528 38.3124C203.528 38.3124 208.4 37.5298 212.005 38.9918C214.411 39.9722 215.198 40.9956 215.198 40.9956L190.461 40.7548Z" fill="#F8FCFF"/>
<path d="M97.0787 48.5636C97.0787 48.5636 98.072 46.8006 100.452 46.9984C100.452 46.9984 103.903 44.0572 107.585 46.6028C107.585 46.6028 111.498 45.975 114.401 47.1532C116.336 47.9358 116.969 48.7614 116.969 48.7614L97.0787 48.5636Z" fill="#F8FCFF"/>
</svg>
