<svg width="234" height="145" viewBox="0 0 234 145" fill="none" xmlns="http://www.w3.org/2000/svg">
<path d="M233.191 81.5243C233.191 82.2897 233.191 83.0465 233.183 83.8119C233.165 85.2223 233.123 86.6413 233.071 88.0431C231.873 117.36 222.634 144.7 222.634 144.7L168.527 144.717H163.912H155.375H141.804H130.167L106.774 144.726H101.654H90.0262L73.2779 144.734L56.5297 144.743L4.66662 144.76C-5.76251 125.057 3.57918 117.954 10.472 107.892C14.1624 102.508 17.1507 96.2733 16.0291 86.7961C15.6352 83.5109 14.7532 79.8387 13.2291 75.6763C12.5441 73.8101 12.3301 71.8665 12.0047 70.0089C11.8591 69.1747 11.7307 68.3405 11.6194 67.5149C11.5851 67.2999 11.5594 67.0763 11.5337 66.8613C6.19074 24.0591 28.5474 3.90065 63.3283 0.520849C90.617 -2.13655 101.937 5.92165 109.103 12.3115C132.822 33.4503 134.637 13.4897 185.404 17.9101C212.932 20.3095 225.63 36.8989 230.554 57.3411C230.888 58.7343 231.188 60.1447 231.453 61.5723C231.59 62.3291 231.727 63.0859 231.847 63.8513C232.069 65.2531 232.266 66.6635 232.429 68.0825C232.523 68.8823 232.609 69.6907 232.677 70.4991C232.806 71.9009 232.909 73.3199 232.986 74.7303C233.028 75.5731 233.071 76.4159 233.097 77.2587C233.165 78.7035 233.191 80.1139 233.191 81.5243Z" fill="#EBF3FA"/>
<path d="M200.568 47.5526H105.452V119.909H200.619L200.568 47.5526Z" fill="#DB6161"/>
<path d="M197.056 50.026H90.3384V119.909H197.069L197.056 50.026Z" fill="#233862"/>
<path d="M145.343 119.905H158.488V106.546H145.343V119.905Z" fill="#E69D43"/>
<path d="M145.338 119.909H158.483V106.564H155.537L145.338 119.909Z" fill="#E78B37"/>
<path d="M157.935 119.905H165.897V106.546H157.935V119.905Z" fill="#D57912"/>
<path d="M144.641 106.742H166.443V89.7771H144.641V106.742Z" fill="#E69D43"/>
<path d="M144.643 106.744H166.445V89.7792H162.355L144.643 106.744Z" fill="#E78B37"/>
<path d="M165.895 106.742H171.914V89.7771H165.895V106.742Z" fill="#D57912"/>
<path d="M52.8711 124.959H24.7929C24.1112 124.959 23.5581 124.405 23.5581 123.722V112.631C23.5581 111.948 24.1112 111.394 24.7929 111.394H52.8711C53.5528 111.394 54.1059 111.948 54.1059 112.631V123.722C54.1059 124.405 53.5528 124.959 52.8711 124.959Z" fill="#FF9E55"/>
<path d="M154.097 130.921C154.906 124.197 150.119 118.089 143.405 117.279C136.691 116.469 130.592 121.263 129.784 127.987C128.975 134.712 133.762 140.819 140.476 141.629C147.19 142.439 153.288 137.645 154.097 130.921Z" fill="#233862"/>
<path d="M194.876 131.665C196.096 125.004 191.692 118.613 185.04 117.392C178.388 116.171 172.008 120.581 170.788 127.243C169.569 133.905 173.973 140.296 180.625 141.517C187.276 142.738 193.657 138.327 194.876 131.665Z" fill="#233862"/>
<path d="M45.657 132.309C47.2294 125.722 43.172 119.105 36.5946 117.53C30.0173 115.956 23.4107 120.019 21.8384 126.606C20.2661 133.194 24.3235 139.81 30.9008 141.385C37.4781 142.96 44.0847 138.896 45.657 132.309Z" fill="#233862"/>
<path d="M27.5709 129.442C27.5709 126.015 30.3363 123.246 33.7576 123.246C37.179 123.246 39.9443 126.015 39.9443 129.442C39.9443 132.868 37.179 135.638 33.7576 135.638C30.3363 135.638 27.5709 132.868 27.5709 129.442Z" fill="#F59040"/>
<path d="M37.8613 124.83C38.2086 125.603 38.4015 126.466 38.4015 127.368C38.4015 130.782 35.6361 133.564 32.2148 133.564C30.6327 133.564 29.1922 132.971 28.0989 131.992C29.0635 134.144 31.2244 135.651 33.7454 135.651C37.1667 135.651 39.9321 132.881 39.9321 129.455C39.9321 127.613 39.1347 125.964 37.8613 124.83Z" fill="#D36E2A"/>
<path d="M31.8287 129.442C31.8287 128.385 32.6904 127.522 33.7451 127.522C34.7998 127.522 35.6616 128.385 35.6616 129.442C35.6616 130.498 34.7998 131.361 33.7451 131.361C32.6904 131.361 31.8287 130.511 31.8287 129.442Z" fill="#FF9E55"/>
<path d="M29.7448 132.74C29.7448 132.327 30.0793 131.992 30.4908 131.992C30.9024 131.992 31.2369 132.327 31.2369 132.74C31.2369 133.152 30.9024 133.487 30.4908 133.487C30.0793 133.474 29.7448 133.152 29.7448 132.74Z" fill="#FF9E55"/>
<path d="M28.8831 127.213C28.8831 126.801 29.2176 126.466 29.6292 126.466C30.0408 126.466 30.3752 126.801 30.3752 127.213C30.3752 127.625 30.0408 127.96 29.6292 127.96C29.2176 127.96 28.8831 127.625 28.8831 127.213Z" fill="#FF9E55"/>
<path d="M37.0378 127.213C37.0378 126.801 37.3722 126.466 37.7838 126.466C38.1954 126.466 38.5298 126.801 38.5298 127.213C38.5298 127.625 38.1954 127.96 37.7838 127.96C37.3722 127.96 37.0378 127.625 37.0378 127.213Z" fill="#FF9E55"/>
<path d="M36.4206 132.74C36.4206 132.327 36.755 131.992 37.1666 131.992C37.5782 131.992 37.9126 132.327 37.9126 132.74C37.9126 133.152 37.5782 133.487 37.1666 133.487C36.755 133.487 36.4206 133.152 36.4206 132.74Z" fill="#FF9E55"/>
<path d="M33.0118 124.714C33.0118 124.302 33.3463 123.967 33.7578 123.967C34.1694 123.967 34.5039 124.302 34.5039 124.714C34.5039 125.126 34.1694 125.461 33.7578 125.461C33.3463 125.461 33.0118 125.126 33.0118 124.714Z" fill="#FF9E55"/>
<path d="M135.536 129.442C135.536 126.015 138.302 123.246 141.723 123.246C145.145 123.246 147.91 126.015 147.91 129.442C147.91 132.868 145.145 135.638 141.723 135.638C138.302 135.638 135.536 132.868 135.536 129.442Z" fill="#D36E2A"/>
<path d="M139.794 129.442C139.794 128.385 140.656 127.522 141.71 127.522C142.765 127.522 143.627 128.385 143.627 129.442C143.627 130.498 142.765 131.361 141.71 131.361C140.656 131.361 139.794 130.511 139.794 129.442Z" fill="#FF9E55"/>
<path d="M137.71 132.74C137.71 132.327 138.045 131.992 138.456 131.992C138.868 131.992 139.202 132.327 139.202 132.74C139.202 133.152 138.868 133.487 138.456 133.487C138.045 133.487 137.71 133.152 137.71 132.74Z" fill="#FF9E55"/>
<path d="M137.441 127.213C137.441 126.801 137.775 126.466 138.187 126.466C138.598 126.466 138.933 126.801 138.933 127.213C138.933 127.625 138.598 127.96 138.187 127.96C137.775 127.96 137.441 127.625 137.441 127.213Z" fill="#FF9E55"/>
<path d="M144.386 132.74C144.386 132.327 144.72 131.992 145.132 131.992C145.543 131.992 145.878 132.327 145.878 132.74C145.878 133.152 145.543 133.487 145.132 133.487C144.72 133.487 144.386 133.152 144.386 132.74Z" fill="#FF9E55"/>
<path d="M137.17 124.714C137.17 124.302 137.505 123.967 137.916 123.967C138.328 123.967 138.662 124.302 138.662 124.714C138.662 125.126 138.328 125.461 137.916 125.461C137.505 125.461 137.17 125.126 137.17 124.714Z" fill="#FF9E55"/>
<path d="M86.9291 130.942C87.7569 124.22 82.9868 118.099 76.2749 117.27C69.563 116.441 63.4509 121.218 62.6232 127.94C61.7954 134.662 66.5655 140.784 73.2774 141.613C79.9893 142.442 86.1014 137.664 86.9291 130.942Z" fill="#233862"/>
<path d="M33.6164 63.1909C33.6164 63.1909 35.4685 53.0659 49.5012 53.0659L49.707 63.9252L33.6164 63.1909Z" fill="#D57912"/>
<path d="M72.7816 109.076H19.5706L23.9952 73.0842C24.7155 67.2359 29.6803 62.8432 35.5584 62.8432H72.7688V109.076H72.7816Z" fill="#FE7366"/>
<path d="M41.8481 87.0736H26.9279L28.9087 72.8651C29.3203 69.941 31.8156 67.7639 34.761 67.7639H42.3111L41.8481 87.0736Z" fill="#D57912"/>
<path d="M40.742 86.0045H30.9153C29.4361 86.0045 28.2914 84.7035 28.4843 83.2221L29.7834 73.3933C30.1307 70.7912 32.2401 68.8589 34.7354 68.8589H41.1279L40.742 86.0045Z" fill="#DCE7F9"/>
<path d="M151.357 47.5526H49.0255V119.909H151.357V47.5526Z" fill="#F78049"/>
<path d="M52.0351 109.076H19.5709C16.7154 109.269 16.4325 110.686 16.4325 110.686L13.6542 124.134C13.6542 124.598 14.0787 124.972 14.5932 124.972H22.7607C23.2752 124.972 23.6482 124.598 23.8668 124.109C23.8668 124.109 25.1273 122.55 25.9634 121.996C28.0728 120.605 30.3623 119.69 33.745 119.69C37.9124 119.69 41.5781 121.017 43.7904 123.04H52.0222C53.0126 123.04 53.8229 122.524 53.8229 121.88V110.222C53.8487 109.591 53.0255 109.076 52.0351 109.076Z" fill="#D57912"/>
<path d="M160.335 135.471H150.046C149.814 134.221 149.364 133.126 148.759 132.147C145.647 127.149 138.379 125.629 134.225 125.165C132.411 124.959 131.19 124.959 131.19 124.959H148.875C153.505 125.59 156.348 128.115 158.033 130.537C159.808 133.062 160.335 135.471 160.335 135.471Z" fill="#D15050"/>
<path d="M201.057 135.471H190.767C190.497 134.054 189.957 132.817 189.223 131.761C184.529 124.972 171.924 124.959 171.924 124.959H189.609C193.481 125.487 196.092 127.342 197.841 129.339C200.362 132.25 201.057 135.471 201.057 135.471Z" fill="#D15050"/>
<path d="M158.045 130.537C158.045 130.537 151.28 129.107 148.759 132.16C145.646 127.162 138.379 125.642 134.225 125.178C134.135 125.114 134.057 125.036 133.98 124.972H148.887C153.505 125.59 156.348 128.115 158.045 130.537Z" fill="#F77D48"/>
<path d="M197.841 129.352C197.841 129.352 192.182 129.223 189.223 131.761C184.529 124.972 171.924 124.959 171.924 124.959H189.609C193.481 125.487 196.092 127.342 197.841 129.352Z" fill="#F77D48"/>
<path d="M51.3409 126.93H202.215C202.973 126.93 203.591 126.312 203.591 125.551V121.288C203.591 120.528 202.973 119.909 202.215 119.909H51.3409C50.582 119.909 49.9646 120.528 49.9646 121.288V125.551C49.9646 126.312 50.5948 126.93 51.3409 126.93Z" fill="#F77D48"/>
<path d="M85.7086 137.222H57.7976C57.0645 137.222 56.4728 136.63 56.4728 135.896V123.014C56.4728 122.28 57.0645 121.687 57.7976 121.687H85.7086C86.4418 121.687 87.0334 122.28 87.0334 123.014V135.896C87.0334 136.617 86.4289 137.222 85.7086 137.222Z" fill="#F77D48"/>
<path d="M147.386 117.065H53.0095L52.8813 50.3964H73.5719C78.7772 65.7215 97.3606 101.866 147.386 104.61V117.065Z" fill="#F77D48" stroke="#F9621D" stroke-width="0.2"/>
<path d="M20.5356 80.1049C20.5356 80.1049 19.2108 87.2671 19.2751 88.4265C19.3394 89.5987 20.4456 90.1655 21.2816 90.1655L20.5356 80.1049Z" fill="#B64C41"/>
<path d="M24.5743 90.1655H21.3459C20.87 90.1655 20.4842 89.7791 20.4842 89.3024V80.3625C20.4842 79.8859 20.87 79.4994 21.3459 79.4994H24.5743C25.0502 79.4994 25.4361 79.8859 25.4361 80.3625V89.3024C25.4361 89.7791 25.0502 90.1655 24.5743 90.1655Z" fill="#D57912"/>
<path d="M24.3298 89.6502H21.7702C21.3715 89.6502 21.037 89.3152 21.037 88.9159V80.8391C21.037 80.4398 21.3715 80.1049 21.7702 80.1049H24.3298C24.7285 80.1049 25.0629 80.4398 25.0629 80.8391V88.9159C25.0629 89.3152 24.7285 89.6502 24.3298 89.6502Z" fill="#DCE7F9"/>
<path d="M22.9666 79.7055C22.8765 79.7055 22.7994 79.6153 22.7994 79.5123V76.4979C22.7994 76.485 22.7994 76.485 22.7994 76.4721C22.7994 76.4592 23.0052 74.7459 24.8059 74.7975C26.4522 74.849 27.1597 74.7975 27.1725 74.7975C27.2626 74.7846 27.3397 74.8748 27.3526 74.9778C27.3526 75.0809 27.2883 75.171 27.1983 75.1839C27.1725 75.1839 26.4651 75.2355 24.8059 75.1839C23.3525 75.1453 23.1595 76.3691 23.1338 76.5108V79.5123C23.1209 79.6153 23.0566 79.7055 22.9666 79.7055Z" fill="#B64C41"/>
<path d="M40.472 91.6983H37.4622C37.0377 91.6983 36.6905 91.3505 36.6905 90.9254C36.6905 90.5003 37.0377 90.1525 37.4622 90.1525H40.472C40.8964 90.1525 41.2437 90.5003 41.2437 90.9254C41.2308 91.3633 40.8835 91.6983 40.472 91.6983Z" fill="#D57912"/>
<path d="M162.36 119.815H175.505V106.649H162.36V119.815Z" fill="#E69D43"/>
<path d="M162.354 119.909H175.499V106.653H172.708L162.354 116.92V119.909Z" fill="#E78B37"/>
<path d="M174.957 119.906H180.976V106.651H174.957V119.906Z" fill="#D57912"/>
<path d="M172.889 109.501C173.146 108.947 173.004 108.651 173.004 108.651C173.004 108.651 167.088 106.448 166.509 106.306C166.123 106.203 161.673 104.361 159.46 103.06C158.354 102.416 157.505 103.111 156.489 103.82L155.653 104.4C154.65 105.095 154.894 106.757 156.065 107.195C159.37 108.445 164.464 109.372 165.428 109.604C167.847 110.171 172.233 110.325 172.233 110.325C172.233 110.325 172.67 109.977 172.889 109.501Z" fill="#91CECF"/>
<path d="M191.114 109.424L190.316 109.462C190.316 109.462 188.915 108.921 188.168 110.39C188.168 110.39 187.911 111.021 188.4 111.047C188.889 111.073 188.709 110.995 189.39 111.047C190.072 111.098 190.728 110.841 190.96 110.39L191.397 110.016L191.114 109.424Z" fill="#FFB27D"/>
<path d="M190.535 109.991C190.368 109.45 190.406 109.359 190.406 109.359C190.406 109.359 195.255 106.744 195.706 106.487C196.156 106.216 201.172 100.896 201.172 100.896L206.304 102.326C206.304 102.326 198.355 108.367 197.21 109.012C195.333 110.081 190.972 110.686 190.972 110.686C190.972 110.686 190.664 110.416 190.535 109.991Z" fill="#91CECF"/>
<path d="M196.118 113.533L176.027 117.81L171.371 95.911L191.462 91.6343L196.118 113.533Z" fill="#D57912"/>
<path d="M187.565 115.349L172.863 118.48L168.207 96.5806L182.909 93.4504L187.565 115.349Z" fill="#E69D43"/>
<path d="M187.565 115.349L172.863 118.48L171.963 114.241L180.477 93.9656L182.908 93.4504L187.565 115.349Z" fill="#E78B37"/>
<path d="M177.133 138.318C177.133 138.318 177.918 139.181 179.731 138.717C179.731 138.717 181.197 138.382 181.519 139.116C181.519 139.116 179.68 140.288 179.101 140.598C178.676 140.829 178.226 141.203 177.905 141.486C177.66 141.718 177.262 141.68 177.056 141.422C176.953 141.306 176.85 141.152 176.721 140.984C176.374 140.52 175.564 139 175.564 139L177.133 138.318Z" fill="#233862"/>
<path d="M177.828 137.867C177.828 137.867 177.107 139.528 175.435 139.232C175.435 139.232 172.04 136.424 169.699 133.5C168.94 132.546 168.297 131.593 167.911 130.717C166.367 127.136 162.187 121.777 159.538 119.072L166.174 116.663C166.174 116.663 168.297 120.953 171.126 126.209C173.184 129.983 175.59 134.286 177.828 137.867Z" fill="#2B478B"/>
<path d="M171.152 126.196L169.712 133.487C168.953 132.533 168.31 131.58 167.924 130.704C166.38 127.123 162.2 121.764 159.551 119.059L166.188 116.65C166.188 116.65 168.323 120.927 171.152 126.196Z" fill="#233862"/>
<path d="M165.724 139.283C165.724 139.283 165.647 140.61 167.268 140.791C167.268 140.791 168.245 140.816 168.245 141.654H163.512C163.512 141.654 163.37 141.306 163.345 140.585C163.319 140.018 163.885 138.549 163.885 138.549L165.724 139.283Z" fill="#233862"/>
<path d="M164.014 116.651C164.014 116.651 166.972 119.91 168.85 125.771C169.866 128.965 166.972 136.991 166.419 139.773C166.419 139.773 164.477 139.941 163.152 139.425C163.152 139.425 163.049 133.667 163.834 129.236C164.271 126.75 159.936 123.929 158.046 119.433C156.759 116.38 158.329 116.432 160.245 116.354L164.014 116.651Z" fill="#2B478B"/>
<path d="M160.592 102.12C158.946 103.047 155.576 102.197 155.576 102.197C155.576 102.197 156.939 100.626 156.322 98.1007L157.608 98.7577L158.997 99.4662C158.997 99.4662 159.087 99.917 159.152 100.716C159.164 100.922 159.177 101.154 159.19 101.398C160.052 101.656 160.592 102.12 160.592 102.12Z" fill="#FFB07B"/>
<path d="M166.637 116.483C166.637 116.766 166.303 116.908 166.238 116.921C165.57 117.037 163.717 117.758 162.045 117.926C160.643 118.068 159.331 117.939 157.904 117.642C157.711 117.604 157.274 117.488 157.235 117.308C157.196 117.114 151.704 106.1 155.974 101.36C156.077 101.244 156.913 101.45 157.685 101.63C158.393 101.798 159.049 101.708 159.627 101.476L160.348 101.862C161.235 102.352 162.92 104.117 163.113 105.495C163.216 106.203 163.615 106.719 163.73 107.337C163.769 107.569 163.82 107.788 163.859 108.007C163.949 108.432 164.039 108.844 164.129 109.231C164.386 110.274 164.644 111.176 164.901 111.949C165.184 112.773 165.454 113.456 165.698 114.036C166.007 114.783 166.277 115.337 166.444 115.762C166.56 116.058 166.637 116.29 166.637 116.483Z" fill="#ABDDDA"/>
<path d="M166.445 115.749C158.689 112.09 156.001 105.07 156.001 105.07C156.001 105.07 162.239 107.131 163.795 107.736C163.885 108.161 164.027 108.844 164.117 109.23C164.374 110.274 164.631 111.176 164.888 111.949C165.171 112.773 165.441 113.456 165.686 114.035C166.02 114.77 166.278 115.324 166.445 115.749Z" fill="#91CECF"/>
<path d="M169.223 97.9205L169.377 97.2249C169.377 97.2249 168.245 96.0269 169.66 94.9835C169.66 94.9835 170.29 94.5841 170.496 95.0479C170.715 95.4987 170.548 95.3442 170.869 95.9882C171.191 96.6194 171.126 97.3022 170.676 97.6242L170.406 98.1266L169.223 97.9205Z" fill="#FFB07B"/>
<path d="M159.165 100.716C157.544 100.806 156.489 99.4663 156.489 99.4663C156.489 99.4663 157.222 99.0541 157.621 98.7578L159.01 99.4663C159.01 99.4663 159.1 99.9172 159.165 100.716Z" fill="#EA8E50"/>
<path d="M159.846 99.054C159.846 99.054 157.39 100.819 156.322 99.273C155.254 97.7272 154.213 96.9156 155.73 95.7176C157.248 94.5325 157.968 94.9061 158.457 95.3312C158.946 95.7563 160.464 98.5516 159.846 99.054Z" fill="#FFB07B"/>
<path d="M158.714 93.9271C158.624 93.3345 158.431 92.9095 158.431 92.9095C158.431 92.9095 158.277 93.5535 157.107 93.4634C155.936 93.3732 154.097 93.5793 153.479 94.9061C153.441 94.9963 153.402 95.0736 153.377 95.1637C153.261 94.8675 153.235 94.4295 153.235 94.4295C153.016 94.9963 153.235 95.7176 153.235 95.7176C153.235 95.7434 153.235 95.7563 153.222 95.782C152.965 96.001 152.746 96.6709 152.746 96.6709C152.823 96.4776 153.016 96.3617 153.184 96.2844C153.184 97.315 153.595 98.3326 154.328 98.6289C155.409 99.0669 155.396 98.7319 156.476 99.4533C156.476 99.4533 156.772 99.0926 156.566 98.8479C156.373 98.6031 155.627 98.2553 156.039 97.9075C156.451 97.5597 156.605 97.9462 156.759 97.7143C156.914 97.4695 156.142 96.7739 157.132 96.1041C158.148 95.4471 158.804 94.5325 158.714 93.9271Z" fill="#2B478B"/>
<path d="M216.312 137.764C216.312 137.764 217.135 138.524 216.98 139.078C216.813 139.619 216.08 139.98 215.977 140.649C215.874 141.319 215.476 141.68 215.115 141.68C214.755 141.68 213.392 141.68 213.392 141.68C213.392 141.68 213.122 141.216 213.765 141.074C214.408 140.933 214.652 140.147 214.614 139.426C214.575 138.704 214.678 137.738 214.678 137.738L216.041 137.416L216.312 137.764Z" fill="#2C3A64"/>
<path d="M206.034 141.654C206.009 141.667 205.983 141.68 205.931 141.68H201.353C201.391 141.525 201.533 141.203 202.086 141.113C202.806 140.997 204.054 140.572 204.337 139.657C204.349 139.632 204.349 139.593 204.362 139.567C204.581 138.575 206.189 139.864 206.189 139.864C206.189 139.864 206.189 139.902 206.202 139.967C206.24 140.327 206.343 141.5 206.034 141.654Z" fill="#2C3A64"/>
<path d="M202.279 115.234C202.279 115.234 202.523 118.287 202.806 121.958C203.192 126.943 203.668 133.075 203.719 134.234C203.796 136.244 204.118 139.477 204.118 139.477C204.118 139.477 204.877 140.237 206.407 139.915C206.407 139.915 207.771 135.317 208.157 130.447C208.157 130.37 208.169 130.293 208.169 130.202C208.53 125.243 209.095 114.809 209.095 114.809L202.279 115.234Z" fill="#2B478B"/>
<path d="M202.279 115.234C202.279 115.234 202.523 118.287 202.806 121.958L208.157 130.447C208.157 130.37 208.169 130.293 208.169 130.203C208.53 125.243 209.095 114.809 209.095 114.809L202.279 115.234Z" fill="#233862"/>
<path d="M203.397 115.594C203.397 115.594 207.809 126.66 210.703 131.864C213.597 137.068 214.51 138.511 214.51 138.511C214.51 138.511 216.17 137.841 216.324 137.39C216.324 137.39 215.218 127.355 213.276 124.908C212.182 123.53 210.896 119.369 210.832 117.926C210.767 116.47 210.433 113.598 210.433 113.598L203.397 115.594Z" fill="#2B478B"/>
<path d="M203.848 97.7529C203.848 97.7529 201.649 100.651 199.848 100.832C199.848 100.832 200.067 99.7882 200.581 99.1184C200.44 98.8865 200.311 98.6804 200.195 98.5001C199.835 97.8818 199.668 97.5082 199.668 97.5082L200.465 95.9882L201.005 94.9576C201.147 95.3312 201.327 95.6661 201.507 95.9495C202.497 97.418 203.848 97.7529 203.848 97.7529Z" fill="#FFB27D"/>
<path d="M201.533 95.9495C201.533 95.9495 201.533 97.5469 200.208 98.5002C199.848 97.8818 199.68 97.5083 199.68 97.5083L200.478 95.9882C201.134 95.8851 201.533 95.9495 201.533 95.9495Z" fill="#ED975D"/>
<path d="M199.179 97.6757C199.179 97.6757 201.983 96.9929 201.533 95.2539C201.083 93.5149 201.134 92.2525 199.333 92.6131C197.52 92.9738 197.353 93.7339 197.365 94.3522C197.353 94.9705 198.433 97.8045 199.179 97.6757Z" fill="#FFB27D"/>
<path d="M210.871 115.079C209.597 116.483 201.288 117.488 201.52 116.431C201.61 116.032 201.751 115.311 201.803 114.319C201.816 114.087 201.816 113.842 201.816 113.572C201.803 112.142 201.558 110.261 200.748 108.02C200.684 107.852 200.619 107.685 200.555 107.504C200.221 106.628 199.951 105.727 199.771 104.851C199.423 103.163 199.41 101.592 199.822 100.626L200.362 99.0669C202.15 98.513 202.652 97.1346 202.652 97.1346C202.652 97.1346 208.247 98.9252 210.446 107.002C210.446 107.015 211.99 113.868 210.871 115.079Z" fill="#ABDDDA"/>
<path d="M201.803 114.319C201.816 114.087 201.816 113.842 201.816 113.572C201.803 112.142 201.558 110.261 200.748 108.02C201.083 106.912 201.468 106.01 201.803 105.624C203.179 104.065 203.874 103.885 203.874 103.885C203.874 103.885 204.62 111.369 201.803 114.319Z" fill="#91CECF"/>
<path d="M202.304 92.2267C202.33 92.188 202.382 92.1623 202.523 92.1365C202.523 92.1365 202.407 92.0721 202.253 92.085C202.202 91.8917 202.06 91.5568 201.726 91.5053C201.726 91.5053 201.919 91.5826 201.957 91.7887C201.533 91.428 200.671 91.2348 198.42 91.6599C195.449 92.2267 196.645 94.0816 197.069 94.262C197.481 94.4552 198.394 93.7081 199.127 93.6823C199.861 93.6565 200.118 94.7128 200.375 94.8287C200.632 94.9447 200.517 94.6999 200.825 94.5067C201.147 94.3135 201.237 94.8803 201.173 95.2538C201.121 95.6274 201.623 96.0525 201.623 96.0525C201.623 96.0525 201.623 96.0525 202.034 95.4986C202.446 94.9447 202.639 92.7548 202.382 92.3168C202.356 92.304 202.33 92.2653 202.304 92.2267Z" fill="#233862"/>
<path d="M194.099 112.644C194.099 112.644 193.095 112.696 192.877 112.773C192.658 112.85 191.976 113.378 191.989 113.456C192.002 113.52 192.041 113.559 192.182 113.533C192.324 113.507 192.735 113.327 192.722 113.391C192.71 113.456 191.513 114.048 191.578 114.306C191.629 114.564 192.452 114.847 193.044 114.718C193.636 114.589 194.845 113.675 194.922 113.61C194.999 113.533 194.099 112.644 194.099 112.644Z" fill="#FFB27D"/>
<path d="M194.163 113.16C193.79 112.683 193.996 112.412 193.996 112.412C193.996 112.412 198.498 108.033 198.832 107.608C199.179 107.182 200.298 100.793 200.298 100.793C200.298 100.793 200.941 99.2602 202.343 98.8223C203.565 98.4487 204.196 97.9334 204.839 98.6033C205.61 99.4019 205.803 100.587 205.34 101.579C204.311 103.833 202.228 108.303 201.572 109.102C200.298 110.635 196.208 113.108 195.153 113.739C194.999 113.829 194.806 113.816 194.665 113.688C194.523 113.546 194.317 113.353 194.163 113.16Z" fill="#ABDDDA"/>
<path d="M170.831 97.7014C170.831 97.7014 170.612 97.3536 170.072 97.2377C169.403 97.0831 169.095 97.0187 169.095 97.0187C169.095 97.0187 165.725 102.622 165.455 103.189C165.39 103.318 165.287 103.511 165.133 103.782C165.017 103.988 164.773 104.091 164.541 104.026C163.242 103.679 161.815 103.228 160.747 102.738C159.551 102.184 158.149 102.339 157.094 103.138L156.232 103.795C155.191 104.593 155.499 106.242 156.773 106.577C159.834 107.414 164.284 107.904 166.149 108.123C166.998 108.226 168.014 106.126 168.529 104.941C169.609 102.481 170.831 97.7014 170.831 97.7014Z" fill="#ABDDDA"/>
</svg>
