<svg width="832" height="228" viewBox="0 0 832 228" fill="none" xmlns="http://www.w3.org/2000/svg">
<path d="M627.846 106.701C625.982 105.599 624.141 104.178 622.506 102.611C621.961 102.089 620.935 102.818 621.48 103.341C623.661 105.43 626.792 110.485 630.707 110.127C631.481 110.183 631.551 109.223 631.187 108.875C630.279 108.004 628.96 107.425 627.846 106.701Z" fill="black"/>
<path d="M646.413 104.917C643.447 107.643 641.082 110.25 636.478 111.058C635.877 111.178 636.038 111.68 636.639 111.56C641.797 111.283 646.264 109.647 648.146 105.534C648.61 104.587 646.853 104.296 646.413 104.917Z" fill="black"/>
<path d="M653.073 84.169C650.629 88.0492 650.227 93.5392 650.103 97.9132C650.239 98.7348 651.411 98.8202 651.666 98.0271C652.038 95.6192 652.618 93.0642 653.381 90.6848C653.914 88.7756 654.837 86.8949 654.979 84.9573C654.866 83.8127 653.511 83.5516 653.073 84.169Z" fill="black"/>
<path d="M665.095 64.4812C661.16 66.9716 658.702 70.8765 656.475 74.3083C656.035 74.9296 656.982 75.4888 657.607 75.0443C660.226 71.6411 663.399 68.7685 666.756 66.0727C667.613 65.155 666.137 63.7404 665.095 64.4812Z" fill="black"/>
<path d="M685.127 60.2077C682.995 59.8904 680.451 59.8669 678.296 59.8717C676.53 59.905 676.389 61.8378 678.131 62.1267C680.079 62.2684 682.211 62.5859 684.342 62.9032C686.474 63.2202 689.154 64.0636 691.516 63.9118C692.502 63.8218 692.779 62.7085 691.84 62.1543C690.376 60.7522 687.465 60.3781 685.127 60.2077Z" fill="black"/>
<path d="M698.81 66.7223C698.083 66.0255 696.647 67.047 697.374 67.7438C698.987 69.6317 700.213 71.4913 701.62 73.5254C702.846 75.385 703.457 77.6826 705.275 79.4245C706.184 80.2954 707.984 79.6221 707.486 78.459C706.242 74.184 702.288 69.7118 698.81 66.7223Z" fill="black"/>
<path d="M724.969 86.8927C722.795 87.2192 721.011 87.5738 718.884 87.2573C716.392 86.5909 713.788 84.7853 712.145 83.2114C711.596 82.6864 710.566 83.4192 711.114 83.9441C714.172 87.56 721.023 92.7448 726.2 88.76C726.842 87.999 726.159 86.6565 724.969 86.8927Z" fill="black"/>
<path d="M734.754 86.4515C737.724 85.919 740.429 84.7185 743.311 83.9633C747.067 83.2242 750.828 83.2227 754.42 84.2489C755.033 84.3338 755.028 83.5971 754.678 83.4435C747.756 81.3224 738.916 80.1962 733.08 84.4311C732.037 85.4424 733.444 86.7948 734.754 86.4515Z" fill="black"/>
<path d="M781.393 83.3351C779.164 83.3464 776.922 83.8638 774.319 83.9613C772.09 83.9726 769.874 83.4774 767.788 82.7851C766.436 82.4262 765.532 83.8087 766.756 84.3651C771.031 86.5651 777.432 87.9388 782.073 85.6938C783.698 85.1515 782.875 83.496 781.393 83.3351Z" fill="black"/>
<path d="M806.038 79.6774C804.311 79.0632 801.914 79.5395 800.116 79.8968C798.11 80.4017 796.265 81.4069 794.603 82.5881C793.565 83.3263 794.852 84.5593 795.891 83.8211C797.345 82.7876 798.959 82.2545 800.757 81.8972C802.348 81.6873 804.099 81.9777 805.688 81.768C807.071 81.7058 807.189 80.0871 806.038 79.6774Z" fill="black"/>
<path d="M829.049 77.5722C821.952 75.599 815.34 72.3668 808.473 69.925C805.223 68.8793 803.749 72.978 806.793 74.1705C812.308 76.3518 817.8 78.8555 823.752 80.4217C822.077 81.9174 820.402 83.4131 818.521 85.0555C817.878 85.8175 816.433 86.8446 816.545 87.9855L816.522 88.3068C816.522 88.3068 816.315 88.4536 816.498 88.6287C816.451 89.2724 817.596 89.6793 818.008 89.3859C818.398 89.4142 818.605 89.2673 819.017 88.974C820.232 88.415 821.081 87.5067 822.32 86.6263C824.821 84.5437 827.115 82.6076 829.981 80.8755C831.403 80.1704 830.765 78.1827 829.049 77.5722Z" fill="black"/>
<path d="M617.307 103.03C615.166 103.286 612.886 103.736 610.847 104.305C608.808 104.875 606.25 105.714 605.277 107.076C604.72 107.854 605.647 108.84 606.546 108.496C608.446 108.121 609.799 106.684 611.598 105.995C613.535 105.112 615.435 104.737 617.715 104.287C618.614 103.942 618.067 102.88 617.307 103.03Z" fill="black"/>
<path d="M598.688 125.454C596.362 128.577 594.601 131.494 590.252 132.968C589.687 133.175 589.953 133.646 590.518 133.44C595.526 132.407 599.562 130.138 600.524 125.807C600.776 124.806 598.987 124.777 598.688 125.454Z" fill="black"/>
<path d="M581.219 135.146C579.063 135.721 576.61 136.07 574.135 136.182C573.31 136.219 573.419 137.409 574.244 137.372C577.545 137.223 584.276 138.354 586.213 135.398C586.72 134.898 585.829 134.221 585.279 134.246C583.904 134.308 582.572 134.846 581.219 135.146Z" fill="black"/>
<path d="M601.289 121.095C600.863 117.427 600.128 114.199 602.582 110.895C602.89 110.454 602.321 110.199 602.013 110.64C598.693 113.903 597.087 117.703 599.527 121.696C600.067 122.634 601.55 121.792 601.289 121.095Z" fill="black"/>
<path d="M567.306 138.642C565.165 138.898 562.885 139.348 560.846 139.917C558.807 140.487 556.249 141.326 555.275 142.688C554.719 143.466 555.646 144.453 556.545 144.108C558.445 143.733 559.798 142.296 561.596 141.607C563.533 140.724 565.433 140.349 567.713 139.899C568.613 139.554 568.066 138.492 567.306 138.642Z" fill="black"/>
<path d="M550.895 146.538C549.845 147.923 547.951 148.85 547.265 150.358C546.602 151.352 547.285 152.625 548.63 152.905C549.862 152.972 550.889 152.101 551.779 151.532C552.419 151.052 552.442 150.538 552.1 149.901C552.626 149.208 553.151 148.516 553.312 147.701C553.86 146.494 551.695 145.243 550.895 146.538Z" fill="black"/>
<path d="M98.7364 83.7654C98.0598 81.9556 97.6318 79.9063 97.4704 77.8465C97.4165 77.1599 96.084 77.2127 96.1378 77.8993C96.3531 80.6457 95.1847 86.2019 98.5264 87.9062C99.0953 88.3428 99.841 87.6246 99.8051 87.1668C99.7154 86.0225 99.0926 84.8992 98.7364 83.7654Z" fill="black"/>
<path d="M114.776 91.7333C110.408 92.3774 106.609 93.235 102.331 91.5159C101.762 91.3024 101.524 91.7837 102.093 91.9972C106.427 94.4221 111.2 95.4138 115.713 93.1122C116.778 92.5983 115.584 91.4655 114.776 91.7333Z" fill="black"/>
<path d="M135.317 78.6714C130.52 80.4791 126.18 84.5846 122.88 87.9549C122.388 88.6688 123.264 89.3294 124.049 88.8357C126.109 87.1346 128.444 85.4228 130.796 83.9418C132.62 82.713 134.736 81.7044 136.267 80.2554C137.015 79.3001 136.12 78.4086 135.317 78.6714Z" fill="black"/>
<path d="M159.398 69.0964C154.425 69.0566 149.601 70.8938 145.308 72.4748C144.501 72.7419 144.85 73.6696 145.676 73.6371C150.263 72.2799 154.904 71.6267 159.565 71.208C160.923 70.9193 160.774 69.0422 159.398 69.0964Z" fill="black"/>
<path d="M178.423 75.7911C176.95 74.4636 174.931 73.1573 173.203 72.0704C171.766 71.2031 170.24 72.6474 171.422 73.7555C172.878 74.8529 174.351 76.1805 175.825 77.508C177.299 78.8355 178.827 80.8534 180.828 81.9296C181.683 82.358 182.718 81.6252 182.372 80.7154C182.225 78.8746 180.17 77.1081 178.423 75.7911Z" fill="black"/>
<path d="M184.376 87.8738C184.304 86.9581 182.433 87.032 182.505 87.9477C182.418 90.2476 182.045 92.329 181.69 94.6394C181.318 96.7209 180.143 98.834 180.323 101.123C180.413 102.268 182.32 102.652 182.765 101.486C184.865 97.4993 184.967 91.984 184.376 87.8738Z" fill="black"/>
<path d="M190.376 117.011C188.402 116.167 186.719 115.542 185.252 114.217C183.749 112.434 182.987 109.7 182.822 107.633C182.767 106.944 181.41 106.997 181.465 107.686C181.27 112.07 182.958 119.604 189.997 119.099C191.065 118.827 191.498 117.428 190.376 117.011Z" fill="black"/>
<path d="M198.309 121.568C201.096 122.637 204.153 123.071 207.029 123.928C210.601 125.231 213.641 127.093 215.799 129.647C216.232 130.015 216.763 129.456 216.591 129.167C212.538 124.137 206.212 118.908 198.423 119.214C196.846 119.461 197.002 121.178 198.309 121.568Z" fill="black"/>
<path d="M237.741 142.611C235.947 141.502 233.768 140.783 231.611 139.554C229.818 138.444 228.409 136.943 227.25 135.353C226.432 134.392 224.686 135.025 225.254 136.076C227.051 139.951 231.163 144.242 236.541 144.806C238.243 145.195 238.809 143.481 237.741 142.611Z" fill="black"/>
<path d="M259.951 152.175C259.016 150.815 256.746 149.973 255.044 149.341C253.067 148.72 250.853 148.574 248.657 148.66C247.284 148.713 247.414 150.337 248.786 150.283C250.708 150.208 252.391 150.608 254.094 151.24C255.522 151.883 256.713 153 258.14 153.642C259.293 154.295 260.573 153.082 259.951 152.175Z" fill="black"/>
<path d="M279.8 162.09C275.568 156.951 272.641 151.07 268.935 145.681C267.1 143.216 262.928 145.684 264.491 148.16C267.307 152.661 269.87 157.404 273.484 161.644C271.053 161.969 268.621 162.295 265.918 162.63C264.847 162.903 262.942 162.977 262.198 163.929L261.945 164.169C261.945 164.169 261.673 164.179 261.691 164.409C261.183 164.89 261.801 165.788 262.345 165.767C262.636 165.986 262.909 165.976 263.453 165.955C264.832 166.131 266.175 165.848 267.808 165.785C271.328 165.417 274.576 165.06 278.134 165.152C279.785 165.318 280.727 163.437 279.8 162.09Z" fill="black"/>
<path d="M93.1414 75.55C91.2377 74.677 89.0789 73.8867 87.0248 73.311C84.9707 72.7353 82.3017 72.1108 80.5162 72.6906C79.4959 73.0219 79.5094 74.2603 80.4841 74.4409C82.2831 75.0994 84.4284 74.6513 86.3778 75.0125C88.5822 75.2908 90.3812 75.9493 92.5401 76.7395C93.5147 76.9201 93.8611 75.8135 93.1414 75.55Z" fill="black"/>
<path d="M61.8038 83.9607C57.6474 85.2452 54.0949 86.6527 49.5328 85.6169C48.9291 85.4939 48.7956 85.9995 49.3994 86.1225C54.1636 87.8389 59.0598 88.0904 63.0127 85.166C63.9507 84.5046 62.541 83.5781 61.8038 83.9607Z" fill="black"/>
<path d="M40.7921 82.8499C38.6451 82.201 36.4178 81.237 34.3411 80.0858C33.6489 79.702 32.896 80.6383 33.5883 81.0221C36.3572 82.5571 40.9916 86.7507 44.6444 85.5269C45.407 85.4082 45.1665 84.4627 44.705 84.2068C43.5513 83.5673 42.0964 83.3022 40.7921 82.8499Z" fill="black"/>
<path d="M67.0071 81.7303C69.419 78.6471 71.2607 75.7618 75.6449 74.3526C76.2151 74.1547 75.9627 73.6808 75.3925 73.8787C70.3633 74.8379 66.2688 77.045 65.1843 81.3521C64.9038 82.3479 66.6893 82.4021 67.0071 81.7303Z" fill="black"/>
<path d="M27.2426 78.581C25.3389 77.708 23.1801 76.9178 21.1259 76.3421C19.0718 75.7664 16.4029 75.1419 14.6173 75.7217C13.597 76.053 13.6105 77.2914 14.5852 77.4719C16.3843 78.1304 18.5296 77.6823 20.479 78.0434C22.6834 78.3218 24.4824 78.9803 26.6413 79.7705C27.6159 79.951 27.9622 78.8444 27.2426 78.581Z" fill="black"/>
<path d="M8.37678 76.6342C6.49681 77.1724 4.26729 76.9373 2.59407 77.7521C1.31944 78.1842 0.935747 79.5032 1.82669 80.3902C2.78157 81.0573 4.26295 80.9019 5.40969 80.9095C6.28572 80.8603 6.68431 80.4775 6.87616 79.818C7.81615 79.5489 8.75613 79.2798 9.48937 78.7341C10.8279 78.0822 9.98606 76.0392 8.37678 76.6342Z" fill="black"/>
</svg>
