<svg width="401" height="306" viewBox="0 0 401 306" fill="none" xmlns="http://www.w3.org/2000/svg">
<path d="M124.238 185.932L142.906 172.584" stroke="#3E3B3B" stroke-width="0.8351" stroke-miterlimit="10" stroke-linecap="round" stroke-linejoin="round"/>
<ellipse cx="132" cy="298" rx="114" ry="8" fill="#F1E9D6"/>
<path d="M183.355 279.071L182.251 291.014C182.251 291.014 176.931 293.323 176.931 294.126C176.931 294.929 177.935 295.932 182.251 295.932C186.566 295.932 187.972 294.326 187.972 293.022C187.972 291.717 197.205 281.48 197.205 281.48C197.205 281.48 198.008 279.472 196.603 277.766C195.198 276.16 190.18 275.96 190.18 275.96L183.355 279.071Z" fill="#FFBE2E"/>
<path d="M177.032 294.928C177.032 294.928 184.258 294.427 186.165 293.323C188.072 292.219 194.998 281.68 195.6 280.877C196.202 280.075 196.202 278.669 196.202 278.669" stroke="#3E3B3B" stroke-width="0.4175" stroke-miterlimit="10" stroke-linecap="round" stroke-linejoin="round"/>
<path d="M192.689 276.161C192.689 276.161 198.511 277.265 198.009 279.774C197.407 282.283 188.273 293.424 186.868 294.829C185.463 296.234 176.831 296.234 177.132 294.829C177.433 293.424 182.452 290.915 182.452 290.915L184.158 280.878" stroke="#3E3B3B" stroke-width="0.8351" stroke-miterlimit="10" stroke-linecap="round" stroke-linejoin="round"/>
<path d="M69.0347 288.806L51.7713 297.237C51.7713 297.237 49.4628 298.843 54.0798 298.843C58.5964 298.843 82.4841 299.044 82.4841 299.044C82.4841 299.044 85.1941 299.646 85.7963 298.441C86.8 296.434 87.2015 295.129 86.5992 294.527C85.8967 293.925 69.0347 288.806 69.0347 288.806Z" fill="#FFBE2E"/>
<path d="M53.377 296.936C53.377 296.936 82.3836 296.936 83.1865 296.936C83.9895 296.936 83.9895 296.936 83.9895 296.936" stroke="#3E3B3B" stroke-width="0.4175" stroke-miterlimit="10" stroke-linecap="round" stroke-linejoin="round"/>
<path d="M67.8303 289.81C67.8303 289.81 50.2657 297.337 50.4665 298.241C50.7676 299.044 68.3321 299.044 75.0568 299.044C81.7815 299.044 86.4989 299.345 86.4989 297.638" stroke="#3E3B3B" stroke-width="0.8351" stroke-miterlimit="10" stroke-linecap="round" stroke-linejoin="round"/>
<path d="M192.689 276.16L134.576 233.706L132.669 190.951C132.669 190.951 129.055 194.162 125.543 195.567C121.929 196.972 101.153 207.511 101.153 207.511C101.153 207.511 110.387 240.23 112.093 243.04C113.799 245.85 184.158 281.078 184.158 281.078L192.689 276.16Z" fill="#3E3B3B"/>
<path d="M86.4989 296.033C86.4989 296.033 84.2908 295.43 81.7816 294.928C79.2724 294.326 67.8303 289.91 67.8303 289.91C67.8303 289.91 67.5292 289.107 67.5292 287.1C67.5292 285.193 69.2355 283.989 69.2355 283.989C69.2355 283.989 25.6755 225.877 24.5714 224.171C23.4674 222.465 24.2703 219.655 31.798 213.834C39.3256 208.013 88.707 177.803 88.707 177.803C86.8 175.595 90.4133 174.19 90.4133 174.19L94.9299 175.595L124.238 185.932L135.981 178.104C135.981 178.104 137.888 185.33 130.661 190.95C123.435 196.571 56.9905 226.078 56.9905 226.078L55.8865 226.179L85.7963 291.516C85.696 291.516 87.7034 295.029 86.4989 296.033Z" fill="#3E3B3B"/>
<path d="M49.463 218.752L54.9833 225.677L52.7752 216.544" stroke="white" stroke-width="0.8351" stroke-miterlimit="10" stroke-linecap="round" stroke-linejoin="round"/>
<path d="M103.863 208.013C103.863 208.013 115.204 225.677 119.32 229.29" stroke="white" stroke-width="0.8351" stroke-miterlimit="10" stroke-linecap="round" stroke-linejoin="round"/>
<path d="M105.569 207.41C105.569 207.41 109.182 210.722 115.506 214.837" stroke="white" stroke-width="0.8351" stroke-miterlimit="10" stroke-linecap="round" stroke-linejoin="round"/>
<path d="M125.342 113.87L86.1979 140.567L94.7293 175.896L123.836 185.631L162.679 158.031L157.962 122.502L125.342 113.87Z" fill="#FFBE2E"/>
<path d="M86.3983 140.567L88.9075 151.607" stroke="#3E3B3B" stroke-width="0.8351" stroke-miterlimit="10" stroke-linecap="round" stroke-linejoin="round"/>
<path d="M90.9152 159.737L94.8295 175.595L124.238 185.932L120.524 159.737" stroke="#3E3B3B" stroke-width="0.8351" stroke-miterlimit="10" stroke-linecap="round" stroke-linejoin="round"/>
<path d="M120.323 157.429L119.119 150.704" stroke="#3E3B3B" stroke-width="0.8351" stroke-miterlimit="10" stroke-linecap="round" stroke-linejoin="round"/>
<path d="M154.95 164.153L162.779 158.332L158.865 125.011" stroke="#3E3B3B" stroke-width="0.8351" stroke-miterlimit="10" stroke-linecap="round" stroke-linejoin="round"/>
<path d="M123.033 148.797L144.311 132.839" stroke="#3E3B3B" stroke-width="0.8351" stroke-miterlimit="10" stroke-linecap="round" stroke-linejoin="round"/>
<path d="M143.208 118.587L125.543 113.87L87.0017 140.166" stroke="#3E3B3B" stroke-width="0.8351" stroke-miterlimit="10" stroke-linecap="round" stroke-linejoin="round"/>
<path d="M87.3018 141.27L93.2236 142.976" stroke="#3E3B3B" stroke-width="0.8351" stroke-miterlimit="10" stroke-linecap="round" stroke-linejoin="round"/>
<path d="M103.26 145.184L119.119 149.6" stroke="#3E3B3B" stroke-width="0.8351" stroke-miterlimit="10" stroke-linecap="round" stroke-linejoin="round"/>
<path d="M140.397 118.086L116.409 136.452" stroke="#3E3B3B" stroke-width="0.4175" stroke-miterlimit="10" stroke-linecap="round" stroke-linejoin="round"/>
<path d="M114.401 138.159L105.77 144.883" stroke="#3E3B3B" stroke-width="0.4175" stroke-miterlimit="10" stroke-linecap="round" stroke-linejoin="round"/>
<path d="M140.999 102.629C140.999 102.629 147.121 153.013 147.121 155.221C147.121 157.429 141.501 158.533 141.501 161.343C141.501 164.153 140.096 168.067 140.096 168.067C140.096 168.067 138.992 169.171 138.992 169.974C138.992 170.777 140.899 170.576 142.605 169.673C144.311 168.87 144.813 165.759 144.813 165.759C144.813 165.759 144.01 169.974 144.01 171.379L142.906 172.483C142.906 172.483 139.594 175.595 141.802 175.795C144.01 176.097 154.348 172.182 154.95 169.673C155.552 167.164 153.545 155.12 153.545 155.12C153.545 155.12 161.675 98.4141 161.675 93.0948C161.675 87.7754 157.158 86.0692 157.158 86.0692" fill="white"/>
<path opacity="0.3" d="M161.575 100.321C160.37 95.905 159.166 87.7755 159.166 87.7755L153.846 86.1696L146.82 94.6003L152.341 91.1879C152.341 91.1879 152.341 154.719 152.341 158.131C152.341 161.544 148.125 174.792 148.125 174.792C148.125 174.792 156.958 172.885 155.553 164.856C154.147 156.826 152.441 158.131 154.95 141.872C157.46 125.713 162.779 104.737 161.575 100.321Z" fill="#FFBE2E"/>
<path d="M140.999 102.629C140.999 102.629 147.121 153.013 147.121 155.221C147.121 157.429 141.501 158.533 141.501 161.343C141.501 164.153 140.096 168.067 140.096 168.067C140.096 168.067 138.992 169.171 138.992 169.974C138.992 170.777 140.899 170.576 142.605 169.673C144.311 168.87 144.813 165.759 144.813 165.759C144.813 165.759 144.01 169.974 144.01 171.379L142.906 172.483C142.906 172.483 139.594 175.595 141.802 175.795C144.01 176.097 154.348 172.182 154.95 169.673C155.552 167.164 153.545 155.12 153.545 155.12C153.545 155.12 161.675 98.4141 161.675 93.0948C161.675 87.7754 157.158 86.0692 157.158 86.0692" stroke="#3E3B3B" stroke-width="0.8351" stroke-miterlimit="10" stroke-linecap="round" stroke-linejoin="round"/>
<path d="M147.824 169.372C147.824 169.372 148.426 171.58 147.523 172.985C146.72 174.39 145.616 175.494 145.616 175.494" stroke="#3E3B3B" stroke-width="0.4175" stroke-miterlimit="10" stroke-linecap="round" stroke-linejoin="round"/>
<path d="M151.136 169.372C151.136 169.372 150.835 171.279 150.333 172.684" stroke="#3E3B3B" stroke-width="0.4175" stroke-miterlimit="10" stroke-linecap="round" stroke-linejoin="round"/>
<path d="M153.545 168.469C153.545 168.469 153.244 170.376 152.742 171.781" stroke="#3E3B3B" stroke-width="0.4175" stroke-miterlimit="10" stroke-linecap="round" stroke-linejoin="round"/>
<path d="M63.3142 63.8886C63.0131 60.978 57.1917 55.5583 49.1622 53.9525C41.1327 52.3467 32.501 52.3467 29.1889 54.9561C27.9844 55.9598 27.1815 58.1678 26.6796 60.4762C27.2819 59.2718 28.3859 56.7627 29.5903 55.7591C35.5121 50.8412 37.118 53.7518 38.1217 58.0675C39.1254 62.3832 37.8206 74.1259 37.8206 74.1259C37.8206 74.1259 24.3712 78.0401 26.2782 71.2153C26.2782 71.2153 25.8767 70.0109 25.676 68.2043C25.676 68.7062 25.676 69.0073 25.676 69.0073L25.0737 73.2226L19.6538 74.2262L0.684143 73.624C0.684143 73.624 10.3195 79.6459 15.8398 79.6459C21.2597 79.6459 25.4752 75.9324 25.4752 75.9324L60.6043 78.6423C60.5039 78.6423 63.6153 66.7992 63.3142 63.8886Z" fill="#FFBE2E"/>
<path d="M22.3632 73.9259L0.683563 73.6248C0.683563 73.6248 6.70569 79.3457 14.7352 79.3457C22.7647 79.3457 25.4746 76.0336 25.4746 76.0336L60.6037 78.7435C60.6037 78.7435 65.2207 70.0117 62.8118 62.2836C60.5033 54.5555 39.4259 52.0464 33.5041 53.4515C26.2776 55.1577 25.7758 61.3803 25.7758 64.6924C25.7758 68.0044 25.0732 72.019 25.0732 72.019" stroke="#3E3B3B" stroke-width="0.8351" stroke-miterlimit="10" stroke-linecap="round" stroke-linejoin="round"/>
<path opacity="0.3" d="M42.6379 77.4379L28.4859 77.6386C28.4859 77.6386 24.4711 83.6605 25.4748 85.3667C26.4785 87.0729 28.4859 88.3777 28.4859 88.3777C28.4859 88.3777 27.4822 96.3065 28.6866 99.1167C29.891 101.827 39.9279 100.622 39.9279 100.622C39.9279 100.622 37.4187 102.328 32.7014 102.83C27.984 103.332 26.4785 102.328 25.7759 99.6185C25.0733 96.9087 24.7722 88.9799 24.7722 88.9799L21.3597 85.3667L23.8689 78.6423L26.5789 75.9324L42.6379 77.4379Z" fill="#FFBE2E"/>
<path d="M24.0696 76.936C24.0696 76.936 20.3559 85.6678 22.0622 86.9725C23.7685 88.2773 24.7721 88.9798 24.7721 88.9798C24.7721 88.9798 25.7758 100.723 27.4821 102.73C29.1884 104.737 39.8275 101.425 39.8275 101.425C39.8275 101.425 61.5071 123.104 62.2097 119.089C62.9123 115.075 60.2023 100.02 60.2023 98.4141C60.2023 96.7079 55.485 92.3922 55.485 92.3922" stroke="#3E3B3B" stroke-width="0.8351" stroke-miterlimit="10" stroke-linecap="round" stroke-linejoin="round"/>
<path d="M43.4406 77.2372C43.4406 77.2372 44.1432 80.2481 46.1505 80.5492C48.1579 80.8503 49.8642 77.5383 49.8642 77.5383L43.4406 77.2372Z" fill="#3E3B3B"/>
<path d="M60.5033 78.6423C60.5033 78.6423 62.5107 84.6642 60.2022 87.9762C57.8937 91.2883 56.8901 91.2883 56.8901 91.2883C54.8827 94.6003 49.5631 87.2737 49.5631 87.2737C49.5631 87.2737 53.5779 87.0729 54.5816 84.4635C55.5853 81.7536 54.1801 77.9398 54.1801 77.9398L60.5033 78.6423Z" fill="#3E3B3B"/>
<path d="M54.4814 78.6423C54.4814 78.6423 55.4851 83.3594 54.4814 85.6678C53.4777 87.9762 49.4629 87.374 49.4629 87.374L47.4556 92.3922" stroke="#3E3B3B" stroke-width="0.8351" stroke-miterlimit="10" stroke-linecap="round" stroke-linejoin="round"/>
<path d="M27.0804 90.8868C27.0804 90.8868 30.9948 91.6898 33.4036 87.2737" stroke="#3E3B3B" stroke-width="0.6263" stroke-miterlimit="10" stroke-linecap="round" stroke-linejoin="round"/>
<path d="M95.8637 112.667L87.6704 115.686L92.3199 128.305L100.513 125.286L95.8637 112.667Z" fill="#3E3B3B"/>
<path d="M94.4467 115.46L90.4909 116.917L92.6421 122.757L96.598 121.299L94.4467 115.46Z" fill="white"/>
<path d="M91.5394 110.651L89.8442 111.276L91.2668 115.137L92.962 114.512L91.5394 110.651Z" fill="white" stroke="#3E3B3B" stroke-width="0.4175" stroke-miterlimit="10" stroke-linecap="round" stroke-linejoin="round"/>
<path d="M82.9859 165.759L90.4132 174.19" stroke="#3E3B3B" stroke-width="0.8351" stroke-miterlimit="10" stroke-linecap="round" stroke-linejoin="round"/>
<path d="M228.062 51.4835L220.735 55.6988L216.619 48.4725L223.946 44.2572L228.062 51.4835Z" stroke="#3E3B3B" stroke-width="0.8351" stroke-miterlimit="10" stroke-linecap="round" stroke-linejoin="round"/>
<path d="M225.653 43.2536L214.01 49.8777L207.085 37.1314L218.728 30.4069L225.653 43.2536Z" stroke="#3E3B3B" stroke-width="0.8351" stroke-miterlimit="10" stroke-linecap="round" stroke-linejoin="round"/>
<path d="M337.492 205.941C372.376 171.058 372.376 114.501 337.492 79.6176C302.607 44.7345 246.048 44.7345 211.164 79.6177C176.279 114.501 176.279 171.058 211.164 205.941C246.048 240.824 302.607 240.824 337.492 205.941Z" fill="white"/>
<path d="M275.034 38.2354C218.125 38.2354 171.956 84.4032 171.956 141.31C171.956 198.217 218.125 244.385 275.034 244.385C331.943 244.385 378.113 198.217 378.113 141.31C378.113 84.3029 332.044 38.2354 275.034 38.2354ZM275.034 230.535C225.753 230.535 185.706 190.589 185.706 141.21C185.706 91.9306 225.653 51.885 275.034 51.885C324.315 51.885 364.362 91.8303 364.362 141.21C364.362 190.589 324.416 230.535 275.034 230.535Z" fill="#3E3B3B" stroke="#3E3B3B" stroke-width="0.8351" stroke-miterlimit="10" stroke-linecap="round" stroke-linejoin="round"/>
<path d="M338.267 63.5274C328.13 55.2974 316.286 48.9745 303.439 45.1606" stroke="white" stroke-width="1.6702" stroke-miterlimit="10" stroke-linecap="round" stroke-linejoin="round"/>
<path d="M294.004 42.8522C290.391 42.1496 286.677 41.6478 282.964 41.3467" stroke="white" stroke-width="1.6702" stroke-miterlimit="10" stroke-linecap="round" stroke-linejoin="round"/>
<path d="M350.211 196.31C361.553 180.854 368.277 161.784 368.277 141.21C368.277 119.431 360.75 99.3575 348.203 83.4999" stroke="white" stroke-width="0.8351" stroke-miterlimit="10" stroke-linecap="round" stroke-linejoin="round"/>
<path d="M337.263 210.662C340.174 208.053 342.984 205.243 345.493 202.332" stroke="white" stroke-width="0.8351" stroke-miterlimit="10" stroke-linecap="round" stroke-linejoin="round"/>
<path d="M237.195 226.419C248.738 231.538 261.585 234.449 275.135 234.449C297.216 234.449 317.591 226.721 333.549 213.874" stroke="white" stroke-width="0.8351" stroke-miterlimit="10" stroke-linecap="round" stroke-linejoin="round"/>
<path d="M223.847 219.193C226.657 221 229.467 222.706 232.478 224.211" stroke="white" stroke-width="0.8351" stroke-miterlimit="10" stroke-linecap="round" stroke-linejoin="round"/>
<path d="M213.91 211.565C216.219 213.573 218.728 215.58 221.237 217.387" stroke="white" stroke-width="0.8351" stroke-miterlimit="10" stroke-linecap="round" stroke-linejoin="round"/>
<path d="M249.34 51.6843C210.397 62.8248 181.893 98.7554 181.893 141.31C181.893 168.208 193.234 192.396 211.401 209.357" stroke="white" stroke-width="0.8351" stroke-miterlimit="10" stroke-linecap="round" stroke-linejoin="round"/>
<path d="M340.977 75.3704C324.115 58.5091 300.829 48.0711 275.035 48.0711C268.611 48.0711 262.388 48.6733 256.366 49.978" stroke="white" stroke-width="0.8351" stroke-miterlimit="10" stroke-linecap="round" stroke-linejoin="round"/>
<path d="M288.384 174.23H261.585V181.456H288.384V174.23Z" fill="#FFBE2E"/>
<path d="M282.562 141.21C282.562 137.496 279.953 134.485 276.44 133.883L275.637 84.8047H274.533L273.73 133.883C270.217 134.485 267.607 137.597 267.607 141.21C267.607 144.823 270.116 147.834 273.529 148.536L273.228 165.899H276.941L276.64 148.536C280.053 147.834 282.562 144.823 282.562 141.21ZM275.034 145.224C272.826 145.224 271.02 143.418 271.02 141.21C271.02 139.002 272.826 137.195 275.034 137.195C277.243 137.195 279.049 139.002 279.049 141.21C279.049 143.518 277.243 145.224 275.034 145.224Z" fill="#3E3B3B"/>
<path d="M275.035 145.325C277.307 145.325 279.15 143.482 279.15 141.21C279.15 138.937 277.307 137.095 275.035 137.095C272.762 137.095 270.92 138.937 270.92 141.21C270.92 143.482 272.762 145.325 275.035 145.325Z" fill="#FFBE2E"/>
<path d="M275.034 57.0036V71.8576" stroke="#3E3B3B" stroke-width="3.3403" stroke-miterlimit="10" stroke-linecap="round" stroke-linejoin="round"/>
<path d="M275.034 211.164V226.018" stroke="#3E3B3B" stroke-width="3.3403" stroke-miterlimit="10" stroke-linecap="round" stroke-linejoin="round"/>
<path d="M232.779 68.3448L240.207 81.1915" stroke="#3E3B3B" stroke-width="3.3403" stroke-miterlimit="10" stroke-linecap="round" stroke-linejoin="round"/>
<path d="M309.862 201.83L317.39 214.677" stroke="#3E3B3B" stroke-width="3.3403" stroke-miterlimit="10" stroke-linecap="round" stroke-linejoin="round"/>
<path d="M201.866 99.2572L214.713 106.684" stroke="#3E3B3B" stroke-width="3.3403" stroke-miterlimit="10" stroke-linecap="round" stroke-linejoin="round"/>
<path d="M335.456 176.337L348.303 183.764" stroke="#3E3B3B" stroke-width="3.3403" stroke-miterlimit="10" stroke-linecap="round" stroke-linejoin="round"/>
<path d="M359.645 141.511H344.791" stroke="#3E3B3B" stroke-width="3.3403" stroke-miterlimit="10" stroke-linecap="round" stroke-linejoin="round"/>
<path d="M205.379 141.511H190.524" stroke="#3E3B3B" stroke-width="3.3403" stroke-miterlimit="10" stroke-linecap="round" stroke-linejoin="round"/>
<path d="M359.645 141.511H344.791" stroke="#3E3B3B" stroke-width="3.3403" stroke-miterlimit="10" stroke-linecap="round" stroke-linejoin="round"/>
<path d="M205.379 141.511H190.524" stroke="#3E3B3B" stroke-width="3.3403" stroke-miterlimit="10" stroke-linecap="round" stroke-linejoin="round"/>
<path d="M348.303 99.2572L335.456 106.684" stroke="#3E3B3B" stroke-width="3.3403" stroke-miterlimit="10" stroke-linecap="round" stroke-linejoin="round"/>
<path d="M214.713 176.337L201.866 183.764" stroke="#3E3B3B" stroke-width="3.3403" stroke-miterlimit="10" stroke-linecap="round" stroke-linejoin="round"/>
<path d="M317.39 68.3448L309.862 81.1915" stroke="#3E3B3B" stroke-width="3.3403" stroke-miterlimit="10" stroke-linecap="round" stroke-linejoin="round"/>
<path d="M240.207 201.83L232.779 214.677" stroke="#3E3B3B" stroke-width="3.3403" stroke-miterlimit="10" stroke-linecap="round" stroke-linejoin="round"/>
<path d="M279.351 34.9233H270.819V42.4507H279.351V34.9233Z" stroke="#3E3B3B" stroke-width="0.8351" stroke-miterlimit="10" stroke-linecap="round" stroke-linejoin="round"/>
<path d="M281.86 14.8503H268.411V34.5218H281.86V14.8503Z" stroke="#3E3B3B" stroke-width="0.8351" stroke-miterlimit="10" stroke-linecap="round" stroke-linejoin="round"/>
<path d="M284.57 1H265.198V14.4489H284.57V1Z" fill="#FFBE2E"/>
<path d="M284.771 1H265.4V14.4489H284.771V1Z" stroke="#3E3B3B" stroke-width="0.8351" stroke-miterlimit="10" stroke-linecap="round" stroke-linejoin="round"/>
<path d="M267.507 9.33028V1.30109" stroke="#3E3B3B" stroke-width="0.8351" stroke-miterlimit="10" stroke-linecap="round" stroke-linejoin="round"/>
<path d="M267.507 14.6496V11.1368" stroke="#3E3B3B" stroke-width="0.8351" stroke-miterlimit="10" stroke-linecap="round" stroke-linejoin="round"/>
<path d="M270.016 14.6496V1.30109" stroke="#3E3B3B" stroke-width="0.8351" stroke-miterlimit="10" stroke-linecap="round" stroke-linejoin="round"/>
<path d="M272.425 4.61314V1.30109" stroke="#3E3B3B" stroke-width="0.8351" stroke-miterlimit="10" stroke-linecap="round" stroke-linejoin="round"/>
<path d="M272.425 14.6497V6.21899" stroke="#3E3B3B" stroke-width="0.8351" stroke-miterlimit="10" stroke-linecap="round" stroke-linejoin="round"/>
<path d="M276.54 14.6496V1.30109" stroke="#3E3B3B" stroke-width="0.8351" stroke-miterlimit="10" stroke-linecap="round" stroke-linejoin="round"/>
<path opacity="0.3" d="M64.6186 116.982L71.8452 117.484L71.6444 114.774C71.544 114.774 65.1204 114.272 64.6186 116.982Z" fill="#FFBE2E"/>
<path opacity="0.3" d="M44.645 173.889L59.2989 164.153L40.5299 171.379C40.5299 171.379 38.8237 133.04 40.1284 130.029C41.4332 127.018 49.4627 121.498 49.4627 121.498C49.4627 121.498 48.9609 118.387 51.5705 117.283C54.1801 116.078 57.0908 117.283 57.0908 117.283L58.9978 117.985C56.89 116.781 53.3771 114.372 48.0576 109.354H47.9572L49.262 110.558L48.6598 115.577L43.0391 120.193C41.7344 121.498 36.9166 127.62 36.9166 127.62L36.6155 178.505L44.2436 173.587C44.4443 173.487 44.5447 173.587 44.645 173.889Z" fill="#FFBE2E"/>
<path d="M48.7602 115.577C48.7602 115.577 37.0171 125.111 37.0171 127.62C37.0171 130.129 36.2141 177.301 36.716 178.505C37.3182 179.609 59.2989 164.254 59.2989 164.254L57.0908 143.879" stroke="#3E3B3B" stroke-width="0.8351" stroke-miterlimit="10" stroke-linecap="round" stroke-linejoin="round"/>
<path d="M50.9683 138.761L74.7557 157.73" stroke="#3E3B3B" stroke-width="0.8351" stroke-miterlimit="10" stroke-linecap="round" stroke-linejoin="round"/>
<path opacity="0.3" d="M153.846 86.1697L139.494 81.854L92.9226 74.0255L81.0791 86.9726C81.0791 86.9726 91.3167 80.5492 94.3278 80.5492C97.1381 80.5492 142.304 93.2956 146.52 94.5L153.846 86.1697Z" fill="#FFBE2E"/>
<path d="M67.0273 95.8047C67.0273 95.8047 90.0118 73.9251 92.8221 73.9251C95.6324 73.9251 141.702 83.1587 145.114 83.6605C148.426 84.2627 154.047 85.3667 154.047 85.3667C154.047 85.3667 144.311 97.6112 140.899 101.827C137.587 106.042 135.88 108.551 135.88 108.551L98.242 91.2882" stroke="#3E3B3B" stroke-width="0.8351" stroke-miterlimit="10" stroke-linecap="round" stroke-linejoin="round"/>
<path d="M104.666 95.4032L114.1 120.595" stroke="#3E3B3B" stroke-width="0.8351" stroke-miterlimit="10" stroke-linecap="round" stroke-linejoin="round"/>
<path d="M75.5588 133.14L73.3507 135.348L62.4105 121.398" stroke="#3E3B3B" stroke-width="0.8351" stroke-miterlimit="10" stroke-linecap="round" stroke-linejoin="round"/>
<path d="M93.9263 96.4069L104.967 94.4999L95.6326 101.124" stroke="#3E3B3B" stroke-width="0.4175" stroke-miterlimit="10" stroke-linecap="round" stroke-linejoin="round"/>
<path d="M57.0911 143.779L43.1398 141.671" stroke="#3E3B3B" stroke-width="0.4175" stroke-miterlimit="10" stroke-linecap="round" stroke-linejoin="round"/>
<path d="M49.3624 110.558C49.3624 110.558 47.6561 114.171 49.0612 118.387C50.4664 122.602 55.1837 129.828 55.1837 129.828L61.3062 121.197" stroke="#3E3B3B" stroke-width="0.8351" stroke-miterlimit="10" stroke-linecap="round" stroke-linejoin="round"/>
<path d="M63.3138 117.785C63.3138 117.785 66.4252 114.974 69.1352 114.974C71.8451 114.974 73.8525 114.974 73.8525 114.974C73.8525 114.974 73.0496 104.035 69.1352 98.2134C65.2208 92.3923 59.9012 95.4032 59.9012 95.4032" stroke="#3E3B3B" stroke-width="0.8351" stroke-miterlimit="10" stroke-linecap="round" stroke-linejoin="round"/>
<path d="M58.2952 165.859L91.8184 150.202L94.6287 140.467L106.071 137.958C106.071 137.958 108.279 135.75 107.978 137.958C107.677 140.166 104.666 141.069 103.461 143.277C102.357 145.485 102.357 150.002 100.952 151.909C99.5468 153.816 94.5283 156.124 94.5283 156.124C94.5283 156.124 56.7897 187.739 53.9794 189.345C51.169 191.051 45.5484 175.093 45.5484 175.093" fill="white"/>
<path opacity="0.3" d="M44.645 173.889C45.9498 175.996 51.2693 184.527 51.5704 187.94C51.9719 191.753 55.3844 187.94 55.3844 187.94L86.0973 162.347C86.0973 162.347 55.7859 181.516 53.2767 180.713C50.7675 179.91 50.2656 173.487 50.2656 173.487L59.2988 164.153L44.645 173.889Z" fill="#FFBE2E"/>
<path d="M58.2952 165.859L91.8184 150.202L94.6287 140.467L106.071 137.958C106.071 137.958 108.279 135.75 107.978 137.958C107.677 140.166 104.666 141.069 103.461 143.277C102.357 145.485 102.357 150.002 100.952 151.909C99.5468 153.816 94.5283 156.124 94.5283 156.124C94.5283 156.124 56.7897 187.739 53.9794 189.345C51.169 191.051 45.5484 175.093 45.5484 175.093" stroke="#3E3B3B" stroke-width="0.8351" stroke-miterlimit="10" stroke-linecap="round" stroke-linejoin="round"/>
<path d="M106.071 137.858C106.071 137.858 100.55 141.069 101.153 142.274" stroke="#3E3B3B" stroke-width="0.4175" stroke-miterlimit="10" stroke-linecap="round" stroke-linejoin="round"/>
<path d="M101.655 138.962L97.5395 141.17" stroke="#3E3B3B" stroke-width="0.4175" stroke-miterlimit="10" stroke-linecap="round" stroke-linejoin="round"/>
</svg>
