<svg width="1049" height="275" viewBox="0 0 1049 275" fill="none" xmlns="http://www.w3.org/2000/svg">
<path d="M97.6277 80.6924C97.0745 78.4795 96.7979 75.9901 96.7979 73.5007C96.7979 72.6708 95.4149 72.6708 95.4149 73.5007C95.4149 76.8199 93.7553 83.4584 97.0745 85.6713C97.6277 86.2245 98.4576 85.3947 98.4576 84.8414C98.4576 83.4584 97.9043 82.0754 97.6277 80.6924Z" fill="black"/>
<path d="M113.115 91.2033C108.69 91.7565 104.817 92.5863 100.668 90.3735C100.115 90.0969 99.8382 90.6501 100.391 90.9267C104.54 93.9693 109.243 95.3524 113.945 92.8629C115.051 92.3097 113.945 90.9267 113.115 91.2033Z" fill="black"/>
<path d="M133.034 76.82C130.821 77.6498 129.162 79.3094 127.225 80.6924C125.013 82.352 123.076 84.0117 121.14 85.9479C120.587 86.5011 121.417 87.6075 122.246 87.0543C123.906 85.3947 125.842 84.2883 127.779 82.9053C129.715 81.5222 132.204 80.4158 133.864 78.7562C134.694 77.9264 134.14 76.2667 133.034 76.82Z" fill="black"/>
<path d="M151.566 56.9043C146.587 58.8405 141.884 63.5428 138.288 67.4153C137.735 68.2451 138.565 69.0749 139.395 68.5217C141.608 66.5855 144.097 64.6492 146.587 62.9896C148.523 61.6066 150.736 60.5002 152.395 58.8405C153.225 57.7341 152.395 56.6277 151.566 56.9043Z" fill="black"/>
<path d="M176.181 46.67C171.202 46.3934 166.224 48.3296 161.798 49.9893C160.968 50.2659 161.245 51.3723 162.075 51.3723C166.777 49.9893 171.479 49.4361 176.181 49.1594C177.564 48.8828 177.564 46.67 176.181 46.67Z" fill="black"/>
<path d="M194.714 55.798C193.331 54.1384 191.395 52.4788 189.735 51.0957C188.352 49.9893 186.693 51.6489 187.799 53.032C189.182 54.415 190.565 56.0746 191.948 57.7342C193.332 59.3939 194.714 61.8833 196.65 63.2663C197.48 63.8195 198.587 62.9897 198.31 61.8833C198.31 59.6705 196.374 57.4576 194.714 55.798Z" fill="black"/>
<path d="M199.97 70.7346C199.97 69.6282 198.035 69.6282 198.035 70.7346C197.758 73.5006 197.205 75.9901 196.651 78.7561C196.098 81.2456 194.715 83.735 194.715 86.5011C194.715 87.8841 196.651 88.4373 197.205 87.0543C199.694 82.352 200.247 75.7135 199.97 70.7346Z" fill="black"/>
<path d="M188.078 98.6716C186.695 100.608 185.312 102.544 183.929 104.48C182.823 106.417 180.886 108.353 180.609 110.566C180.609 111.672 181.716 111.949 182.546 111.672C184.482 110.842 185.312 108.353 186.141 106.693C187.524 104.48 188.631 101.991 190.014 99.7781C190.568 98.395 188.908 97.5652 188.078 98.6716Z" fill="black"/>
<path d="M174.245 118.864C171.756 121.077 169.819 123.29 168.16 125.779C166.5 128.268 164.287 131.864 164.841 134.907C165.117 136.29 166.5 136.567 167.33 135.46C168.713 133.524 168.99 130.758 169.819 128.545C170.926 125.226 172.862 122.183 175.075 119.417C175.628 119.14 174.798 118.311 174.245 118.864Z" fill="black"/>
<path d="M158.478 145.971C155.989 148.184 154.053 150.673 152.393 153.716C150.733 156.759 148.797 160.631 149.35 163.951C149.627 165.057 151.287 165.057 151.563 164.227C153.223 161.737 153.223 158.418 154.329 155.652C155.436 152.61 157.372 149.567 159.585 146.801C160.138 146.248 159.308 145.141 158.478 145.971Z" fill="black"/>
<path d="M158.202 188.291C156.266 187.185 154.606 186.355 153.223 184.696C151.84 182.483 151.287 179.164 151.287 176.674C151.287 175.844 149.904 175.844 149.904 176.674C149.351 181.93 150.457 191.057 157.649 190.781C158.755 190.504 159.308 188.845 158.202 188.291Z" fill="black"/>
<path d="M187.523 197.973C184.481 197.696 181.438 198.249 178.396 198.249C174.523 197.973 170.927 196.866 167.884 194.653C167.331 194.377 167.055 195.207 167.331 195.483C173.14 199.908 181.162 203.781 188.354 200.738C189.736 199.908 188.906 197.973 187.523 197.973Z" fill="black"/>
<path d="M211.036 179.164C209.1 180.27 207.44 181.93 205.228 183.313C203.291 184.419 201.078 184.972 198.866 185.249C197.482 185.526 197.482 187.462 198.866 187.462C203.845 187.738 210.207 186.079 212.973 181.376C214.079 179.993 212.419 178.61 211.036 179.164Z" fill="black"/>
<path d="M222.375 162.567C218.779 166.163 214.907 170.035 212.417 174.461C211.587 175.844 213.524 176.674 214.353 175.567C217.396 171.695 222.375 168.929 224.588 164.226C224.864 162.844 223.481 161.461 222.375 162.567Z" fill="black"/>
<path d="M243.121 162.844C242.291 161.184 240.078 160.078 238.419 159.248C236.482 158.418 234.27 158.142 232.057 158.142C230.674 158.142 230.674 160.078 232.057 160.078C233.993 160.078 235.653 160.632 237.312 161.461C238.696 162.291 239.802 163.674 241.185 164.504C242.291 165.333 243.674 163.95 243.121 162.844Z" fill="black"/>
<path d="M259.718 173.631C255.846 167.27 253.356 160.078 250.037 153.439C248.377 150.397 243.952 153.163 245.335 156.205C247.824 161.737 250.037 167.546 253.356 172.802C250.867 173.078 248.377 173.355 245.611 173.631C244.505 173.908 242.569 173.908 241.739 175.015L241.463 175.291C241.463 175.291 241.186 175.291 241.186 175.568C240.633 176.121 241.186 177.227 241.739 177.227C242.016 177.504 242.293 177.504 242.846 177.504C244.229 177.78 245.612 177.504 247.271 177.504C250.867 177.227 254.187 176.95 257.782 177.227C259.442 177.504 260.548 175.291 259.718 173.631Z" fill="black"/>
<path d="M92.5884 70.4027C90.7509 69.2667 88.6509 68.2184 86.6387 67.4324C84.6264 66.6464 82.0017 65.7733 80.1652 66.3867C79.1158 66.7372 79.0292 68.2242 79.9916 68.4861C81.7415 69.3597 83.928 68.921 85.8526 69.4447C88.0397 69.8807 89.7896 70.7543 91.8895 71.8027C92.8518 72.0645 93.2884 70.7522 92.5884 70.4027Z" fill="black"/>
<path d="M60.748 78.8777C56.4915 80.2097 52.8285 81.7154 48.3519 80.2763C47.7583 80.1026 47.5845 80.6962 48.1781 80.8699C52.8025 83.1256 57.6758 83.6497 61.86 80.3631C62.8503 79.6218 61.5154 78.4578 60.748 78.8777Z" fill="black"/>
<path d="M39.819 76.3633C37.7185 75.4741 35.5635 74.1976 33.5748 72.7002C32.9119 72.201 32.0799 73.3058 32.7428 73.805C35.3944 75.8016 39.6993 81.1207 43.4637 79.8002C44.2384 79.691 44.0746 78.529 43.6327 78.1962C42.5279 77.3643 41.0903 76.9743 39.819 76.3633Z" fill="black"/>
<path d="M66.0273 76.4863C68.667 72.8913 70.7257 69.508 75.1846 68.0149C75.7657 67.8031 75.554 67.222 74.9729 67.4338C69.9111 68.3565 65.6748 70.8218 64.2514 75.9485C63.8929 77.1324 65.6579 77.2792 66.0273 76.4863Z" fill="black"/>
<path d="M26.5845 70.4027C24.747 69.2667 22.647 68.2184 20.6347 67.4324C18.6225 66.6464 15.9978 65.7733 14.1613 66.3867C13.1119 66.7372 13.0253 68.2242 13.9877 68.4861C15.7376 69.3597 17.9241 68.921 19.8487 69.4447C22.0358 69.8807 23.7857 70.7543 25.8856 71.8027C26.8479 72.0645 27.2845 70.7522 26.5845 70.4027Z" fill="black"/>
<path d="M7.88224 67.0283C5.9702 67.5963 3.77416 67.2083 2.04489 68.1222C0.743022 68.589 0.25378 70.1748 1.06641 71.2939C1.96058 72.1487 3.44523 72.0278 4.58402 72.0896C5.4585 72.07 5.88589 71.6229 6.13051 70.8299C7.08653 70.5459 8.04255 70.2619 8.81579 69.6321C10.1992 68.901 9.52996 66.3788 7.88224 67.0283Z" fill="black"/>
<path d="M459.029 128.782C457.165 127.466 455.331 125.761 453.706 123.875C453.164 123.246 452.116 124.149 452.658 124.778C454.825 127.292 457.901 133.405 461.86 132.915C462.64 132.973 462.727 131.803 462.366 131.383C461.463 130.336 460.141 129.649 459.029 128.782Z" fill="black"/>
<path d="M477.627 126.634C474.635 129.941 472.243 133.098 467.655 134.13C467.056 134.281 467.207 134.881 467.807 134.729C472.936 134.326 477.401 132.304 479.339 127.349C479.816 126.208 478.075 125.882 477.627 126.634Z" fill="black"/>
<path d="M484.363 101.552C481.855 106.269 481.362 112.901 481.165 118.182C481.288 119.171 482.458 119.258 482.726 118.298C483.138 115.386 483.76 112.295 484.563 109.412C485.127 107.101 486.081 104.818 486.255 102.478C486.162 101.098 484.811 100.801 484.363 101.552Z" fill="black"/>
<path d="M496.333 77.7303C492.38 80.7707 489.872 85.4874 487.603 89.6335C487.154 90.3847 488.086 91.0424 488.715 90.5007C491.375 86.3836 494.576 82.8952 497.958 79.6163C498.825 78.504 497.38 76.8276 496.333 77.7303Z" fill="black"/>
<path d="M516.334 72.5487C514.203 72.1942 511.652 72.2007 509.492 72.2362C507.722 72.3008 507.548 74.6414 509.289 74.9669C511.24 75.1116 513.371 75.4665 515.502 75.8211C517.633 76.1754 520.306 77.1589 522.675 76.9428C523.665 76.8202 523.962 75.4694 523.03 74.8117C521.585 73.1353 518.674 72.7227 516.334 72.5487Z" fill="black"/>
<path d="M530.066 80.4344C529.344 79.5962 527.877 80.8598 528.6 81.698C530.196 83.9741 531.401 86.2211 532.787 88.678C533.993 90.9251 534.57 93.7138 536.376 95.8093C537.279 96.8571 539.107 96.0124 538.623 94.6032C537.44 89.4159 533.526 84.0258 530.066 80.4344Z" fill="black"/>
<path d="M556.158 104.757C553.969 105.183 552.17 105.637 550.039 105.283C547.547 104.509 544.961 102.355 543.336 100.469C542.794 99.8404 541.746 100.743 542.288 101.372C545.3 105.715 552.096 111.907 557.364 107.004C558.022 106.072 557.357 104.454 556.158 104.757Z" fill="black"/>
<path d="M565.888 104.369C568.868 103.696 571.593 102.233 574.488 101.297C578.258 100.368 582.02 100.314 585.595 101.483C586.207 101.576 586.215 100.701 585.866 100.523C578.978 98.1002 570.153 96.8845 564.247 101.993C563.187 103.208 564.572 104.794 565.888 104.369Z" fill="black"/>
<path d="M612.583 100.434C610.353 100.478 608.102 101.14 605.497 101.295C603.267 101.339 601.059 100.765 598.984 99.9491C597.637 99.5295 596.71 101.229 597.925 101.892C602.164 104.518 608.544 106.107 613.223 103.303C614.857 102.619 614.062 100.61 612.583 100.434Z" fill="black"/>
<path d="M637.237 96.0491C635.525 95.3335 633.126 95.9396 631.327 96.3943C629.319 97.0295 627.462 98.2647 625.786 99.709C624.738 100.612 626.002 102.078 627.049 101.176C628.516 99.9117 630.135 99.2479 631.934 98.7932C633.524 98.5189 635.265 98.8444 636.853 98.5703C638.233 98.4764 638.378 96.5265 637.237 96.0491Z" fill="black"/>
<path d="M660.255 93.3889C653.169 91.0969 646.588 87.2734 639.741 84.4108C636.497 83.189 634.95 88.1733 637.984 89.5756C643.48 92.1414 648.949 95.0979 654.894 96.9128C653.188 98.7473 651.483 100.582 649.568 102.597C648.91 103.529 647.443 104.792 647.537 106.173L647.508 106.562C647.508 106.562 647.299 106.743 647.479 106.952C647.421 107.732 648.562 108.21 648.981 107.848C649.372 107.877 649.581 107.697 650 107.336C651.229 106.642 652.096 105.53 653.353 104.447C655.897 101.89 658.23 99.5138 661.136 97.3766C662.573 96.5032 661.967 94.1045 660.255 93.3889Z" fill="black"/>
<path d="M448.496 124.276C446.362 124.615 444.087 125.191 442.049 125.909C440.012 126.627 437.454 127.679 436.463 129.342C435.896 130.293 436.801 131.476 437.701 131.046C439.597 130.566 440.968 128.806 442.767 127.947C444.709 126.849 446.605 126.369 448.88 125.793C449.78 125.363 449.254 124.084 448.496 124.276Z" fill="black"/>
<path d="M429.908 151.479C427.553 155.266 425.761 158.798 421.43 160.63C420.867 160.886 421.123 161.449 421.686 161.193C426.662 159.883 430.696 157.099 431.72 151.878C431.987 150.67 430.216 150.66 429.908 151.479Z" fill="black"/>
<path d="M412.414 163.234C410.242 163.931 407.776 164.371 405.292 164.534C404.464 164.589 404.555 165.969 405.383 165.914C408.695 165.696 415.428 166.916 417.418 163.459C417.934 162.87 417.051 162.097 416.499 162.133C415.119 162.224 413.775 162.867 412.414 163.234Z" fill="black"/>
<path d="M432.345 146.221C431.999 141.775 431.35 137.868 433.753 133.826C434.055 133.286 433.516 132.984 433.214 133.524C429.981 137.527 428.381 142.16 430.649 146.973C431.15 148.104 432.583 147.063 432.345 146.221Z" fill="black"/>
<path d="M398.496 167.357C396.362 167.696 394.087 168.272 392.049 168.99C390.012 169.708 387.454 170.76 386.463 172.423C385.896 173.374 386.801 174.557 387.701 174.127C389.597 173.647 390.968 171.887 392.767 171.028C394.709 169.93 396.605 169.45 398.88 168.873C399.78 168.444 399.254 167.165 398.496 167.357Z" fill="black"/>
<path d="M382.123 177.009C381.045 178.687 379.128 179.827 378.414 181.648C377.733 182.851 378.397 184.372 379.743 184.69C380.979 184.754 382.025 183.693 382.928 182.996C383.577 182.411 383.609 181.793 383.277 181.033C383.816 180.193 384.355 179.354 384.53 178.372C385.1 176.915 382.947 175.441 382.123 177.009Z" fill="black"/>
<path d="M886.425 105.049C885.871 102.836 885.595 100.347 885.595 97.8572C885.595 97.0274 884.212 97.0274 884.212 97.8572C884.212 101.176 882.552 107.815 885.871 110.028C886.425 110.581 887.254 109.751 887.254 109.198C887.254 107.815 886.701 106.432 886.425 105.049Z" fill="black"/>
<path d="M901.912 115.56C897.486 116.113 893.614 116.943 889.465 114.73C888.912 114.454 888.635 115.007 889.188 115.283C893.337 118.326 898.04 119.709 902.742 117.22C903.848 116.666 902.742 115.283 901.912 115.56Z" fill="black"/>
<path d="M921.831 101.177C919.618 102.006 917.958 103.666 916.022 105.049C913.809 106.709 911.873 108.368 909.937 110.304C909.384 110.858 910.214 111.964 911.043 111.411C912.703 109.751 914.639 108.645 916.575 107.262C918.512 105.879 921.001 104.772 922.661 103.113C923.491 102.283 922.937 100.623 921.831 101.177Z" fill="black"/>
<path d="M940.362 81.2609C935.384 83.1971 930.681 87.8994 927.085 91.7719C926.532 92.6017 927.362 93.4315 928.192 92.8783C930.405 90.942 932.894 89.0058 935.384 87.3462C937.32 85.9632 939.533 84.8567 941.192 83.1971C942.022 82.0907 941.192 80.9843 940.362 81.2609Z" fill="black"/>
<path d="M964.978 71.0266C959.999 70.75 955.02 72.6862 950.595 74.3458C949.765 74.6224 950.042 75.7289 950.871 75.7289C955.574 74.3458 960.276 73.7926 964.978 73.516C966.361 73.2394 966.361 71.0266 964.978 71.0266Z" fill="black"/>
<path d="M983.511 80.1546C982.128 78.495 980.192 76.8353 978.532 75.4523C977.149 74.3459 975.489 76.0055 976.596 77.3885C977.979 78.7716 979.362 80.4312 980.745 82.0908C982.128 83.7504 983.511 86.2399 985.447 87.6229C986.277 88.1761 987.383 87.3463 987.107 86.2399C987.107 84.027 985.171 81.8142 983.511 80.1546Z" fill="black"/>
<path d="M988.767 95.0912C988.767 93.9847 986.831 93.9847 986.831 95.0912C986.555 97.8572 986.002 100.347 985.448 103.113C984.895 105.602 983.512 108.092 983.512 110.858C983.512 112.241 985.448 112.794 986.002 111.411C988.491 106.709 989.044 100.07 988.767 95.0912Z" fill="black"/>
<path d="M976.875 123.028C975.492 124.964 974.109 126.901 972.726 128.837C971.62 130.773 969.683 132.709 969.406 134.922C969.406 136.029 970.513 136.305 971.342 136.029C973.279 135.199 974.109 132.709 974.938 131.05C976.321 128.837 977.428 126.347 978.811 124.135C979.364 122.752 977.705 121.922 976.875 123.028Z" fill="black"/>
<path d="M963.042 143.22C960.553 145.433 958.616 147.646 956.957 150.136C955.297 152.625 953.084 156.221 953.637 159.263C953.914 160.646 955.297 160.923 956.127 159.817C957.51 157.88 957.786 155.114 958.616 152.902C959.723 149.582 961.659 146.54 963.872 143.774C964.425 143.497 963.595 142.667 963.042 143.22Z" fill="black"/>
<path d="M962.421 179.24C960.485 178.134 958.825 177.304 957.442 175.644C956.059 173.431 955.506 170.112 955.506 167.623C955.506 166.792 954.123 166.792 954.123 167.623C953.569 172.878 954.676 182.006 961.868 181.73C962.974 181.453 963.527 179.793 962.421 179.24Z" fill="black"/>
<path d="M982.442 191.593C980.33 190.876 977.987 190.734 975.485 189.993C973.373 189.277 971.492 187.986 969.819 186.513C968.694 185.66 967.245 186.943 968.161 187.979C971.254 191.891 976.713 195.555 982.068 194.509C983.837 194.422 983.773 192.262 982.442 191.593Z" fill="black"/>
<path d="M1008.85 186.83C1003.89 187.911 998.535 189.077 994.048 191.454C992.602 192.17 993.783 193.914 995.079 193.432C999.732 191.818 1005.42 192.182 1009.82 189.422C1010.8 188.408 1010.38 186.497 1008.85 186.83Z" fill="black"/>
<path d="M1031.92 187.2C1031.09 185.541 1028.88 184.434 1027.22 183.605C1025.28 182.775 1023.07 182.499 1020.85 182.499C1019.47 182.499 1019.47 184.434 1020.85 184.434C1022.79 184.434 1024.45 184.988 1026.11 185.818C1027.49 186.648 1028.6 188.031 1029.98 188.86C1031.09 189.689 1032.47 188.307 1031.92 187.2Z" fill="black"/>
<path d="M1048.52 197.988C1044.64 191.626 1042.15 184.434 1038.83 177.796C1037.17 174.753 1032.75 177.519 1034.13 180.562C1036.62 186.094 1038.83 191.903 1042.15 197.158C1039.66 197.435 1037.17 197.711 1034.41 197.988C1033.3 198.265 1031.37 198.265 1030.54 199.372L1030.26 199.648C1030.26 199.648 1029.98 199.648 1029.98 199.924C1029.43 200.477 1029.98 201.584 1030.54 201.584C1030.81 201.86 1031.09 201.86 1031.64 201.86C1033.03 202.137 1034.41 201.86 1036.07 201.86C1039.66 201.584 1042.98 201.307 1046.58 201.584C1048.24 201.86 1049.34 199.648 1048.52 197.988Z" fill="black"/>
<path d="M881.385 94.7593C879.548 93.6233 877.448 92.5749 875.436 91.7889C873.423 91.0029 870.799 90.1298 868.962 90.7432C867.913 91.0938 867.826 92.5808 868.788 92.8426C870.538 93.7163 872.725 93.2776 874.65 93.8012C876.837 94.2373 878.586 95.1109 880.686 96.1593C881.649 96.4211 882.085 95.1088 881.385 94.7593Z" fill="black"/>
<path d="M849.545 103.234C845.288 104.566 841.625 106.072 837.149 104.633C836.555 104.459 836.381 105.053 836.975 105.227C841.599 107.482 846.473 108.006 850.657 104.72C851.647 103.978 850.312 102.814 849.545 103.234Z" fill="black"/>
<path d="M828.616 100.72C826.515 99.8307 824.36 98.5542 822.372 97.0567C821.709 96.5576 820.877 97.6624 821.54 98.1616C824.191 100.158 828.496 105.477 832.261 104.157C833.035 104.048 832.871 102.886 832.43 102.553C831.325 101.721 829.887 101.331 828.616 100.72Z" fill="black"/>
<path d="M854.824 100.843C857.464 97.2478 859.523 93.8645 863.981 92.3715C864.563 92.1597 864.351 91.5786 863.77 91.7903C858.708 92.7131 854.472 95.1784 853.048 100.305C852.69 101.489 854.455 101.636 854.824 100.843Z" fill="black"/>
<path d="M815.381 94.7593C813.544 93.6233 811.444 92.5749 809.432 91.7889C807.419 91.0029 804.795 90.1298 802.958 90.7432C801.909 91.0938 801.822 92.5808 802.785 92.8426C804.534 93.7163 806.721 93.2776 808.646 93.8012C810.833 94.2373 812.583 95.1109 814.682 96.1593C815.645 96.4211 816.081 95.1088 815.381 94.7593Z" fill="black"/>
<path d="M796.679 91.3849C794.767 91.9529 792.571 91.5649 790.842 92.4788C789.54 92.9455 789.051 94.5314 789.863 95.6505C790.757 96.5053 792.242 96.3844 793.381 96.4462C794.255 96.4265 794.683 95.9794 794.927 95.1865C795.883 94.9025 796.839 94.6185 797.613 93.9886C798.996 93.2575 798.327 90.7353 796.679 91.3849Z" fill="black"/>
</svg>
