<svg width="630" height="438" viewBox="0 0 630 438" fill="none" xmlns="http://www.w3.org/2000/svg">
<path d="M195.536 51.6619C106.905 117.284 135.664 215.313 135.664 215.313C135.664 215.313 36.21 232.195 20.2618 319.744C4.3135 407.293 36.5499 436.876 36.5499 436.876L591.732 438C591.732 438 678.219 196.705 587.601 83.0227C496.932 -30.66 284.166 -13.9343 195.536 51.6619Z" fill="#FFEECC"/>
<path d="M382.627 289.063C386.548 287.887 391.202 287.181 396.17 287.155C400.771 282.163 411.491 278.818 423.674 278.818C430.994 278.818 437.923 280.046 443.256 282.189C449.217 275.969 462.865 271.631 478.343 271.631C488.513 271.631 498.16 273.461 505.298 276.701C506.317 276.623 507.363 276.597 508.383 276.597C519.468 276.597 528.462 280.726 528.462 285.77C528.462 286.893 527.991 288.017 527.129 289.063H382.627Z" fill="#7A7A7A"/>
<path d="M185.523 322.07C180.189 320.45 173.862 319.535 167.117 319.483C160.868 312.688 146.28 308.141 129.73 308.141C119.795 308.141 110.357 309.813 103.089 312.714C95.0098 304.273 76.421 298.367 55.3745 298.367C44.1584 298.367 33.413 300.013 24.5761 302.992C22.7982 308.271 21.3341 313.864 20.2622 319.796C20.1315 320.554 19.9746 321.338 19.8439 322.096H185.523V322.07Z" fill="#7A7A7A"/>
<path d="M628.701 216.149C626.087 215.574 623.133 215.261 620.047 215.261C619.002 215.261 617.982 215.287 616.962 215.365C609.825 212.124 600.178 210.295 590.007 210.295C574.53 210.295 560.856 214.633 554.921 220.853C549.588 218.736 542.633 217.482 535.339 217.482C523.155 217.482 512.436 220.827 507.835 225.819C502.867 225.845 498.213 226.55 494.292 227.726H628.963C628.911 223.859 628.832 219.991 628.701 216.149Z" fill="#7A7A7A"/>
<path d="M235.511 128.156C237.106 128.156 237.184 126.431 235.589 126.379C235.014 126.353 234.413 126.353 233.812 126.327C229.393 121.544 219.118 118.33 207.458 118.33C200.451 118.33 193.81 119.506 188.686 121.544C182.986 115.586 169.888 111.43 155.038 111.43C151.691 111.43 148.397 111.639 145.233 112.031C142.724 117.441 140.632 122.825 138.906 128.13H235.511V128.156Z" fill="#7A7A7A"/>
<path d="M623.786 438H5.98713C2.66676 438 0 435.308 0 432.015C0 428.696 2.6929 426.031 5.98713 426.031H623.786C627.106 426.031 629.773 428.722 629.773 432.015C629.773 435.334 627.08 438 623.786 438Z" fill="#5C8097"/>
<path d="M491.442 402.876C491.442 402.876 491.494 403.346 491.494 404.157C491.494 406.587 491.023 411.918 487.232 415.838C482.186 421.091 482.16 427.625 487.494 428.722C492.827 429.846 505.534 428.357 505.534 428.357C505.534 428.357 508.41 423.365 506.449 410.037C504.488 396.708 503.338 382.073 503.338 382.073L488.853 379.8L491.442 402.876Z" fill="#FF7446"/>
<path d="M488.591 408.547C488.591 408.547 483.205 415.839 481.95 418.87C480.695 421.902 480.957 429.481 481.95 430.265C490.63 437.112 507.127 430.944 507.127 430.944C507.127 430.944 508.252 425.926 508.827 419.733C509.402 413.565 509.088 407.816 507.127 407.816C505.167 407.816 504.827 411.056 500.382 410.142C495.911 409.227 493.166 407.633 488.591 408.547Z" fill="#001653"/>
<path d="M508.488 422.816C505.142 424.123 500.592 425.665 496.357 426.266C491.834 426.919 485.768 424.907 481.193 422.895C480.958 426.135 481.298 429.742 481.951 430.264C490.631 437.111 507.129 430.944 507.129 430.944C507.129 430.944 507.913 427.494 508.488 422.816Z" fill="#7B5119"/>
<path d="M508.487 422.816C496.016 426.553 493.716 427.233 481.192 422.869C483.284 423.992 485.48 424.933 487.755 425.639C492.565 427.128 495.415 426.998 498.422 426.318C502.003 425.534 505.376 424.306 508.487 422.816Z" fill="#957447"/>
<path d="M346.495 176.007C350.051 177.34 354.783 179.326 354.783 179.326C355.384 177.863 343.619 175.328 341.972 171.748C341.083 169.84 355.489 176.896 356.482 176.06C356.901 175.72 340.194 170.284 340.978 168.977C341.632 167.88 358.522 173.838 358.626 173.002C358.757 171.852 343.985 168.899 345.318 167.253C345.998 166.416 363.907 171.251 365.842 171.539C368.221 171.539 359.646 165.737 362.574 164.953C366.522 163.907 376.483 175.302 377.267 175.459C379.516 175.929 398.68 178.281 408.066 172.14C415.648 167.174 422.994 159.569 424.798 153.01C426.576 146.581 429.008 137.381 426.916 130.299C435.465 128.992 443.727 128.705 452.407 129.724C452.93 140.361 440.171 182.567 434.838 186.017C423.099 193.648 402.183 191.792 387.438 190.564C375.542 189.597 363.907 187.245 353.188 181.809C350.783 180.607 347.593 179.222 345.737 177.131C345.266 176.582 345.815 175.772 346.495 176.007Z" fill="#F25C12"/>
<path d="M432.25 94.5477C425.897 101.107 419.491 140.413 421.844 149.795C425.923 157.4 444.381 158.707 450.368 162.339C464.146 156.668 454.708 131.292 454.708 131.292L459.728 81.8466C459.728 81.8205 444.355 82.0557 432.25 94.5477Z" fill="#FA8E00"/>
<path d="M449.636 394.069C451.518 399.975 449.662 406.482 444.825 410.376C443.152 411.735 441.217 412.99 439.047 413.931C430.603 417.615 419.674 416.779 418.158 424.358C416.641 431.937 471.676 422.241 471.676 422.241C471.676 422.241 467.859 403.817 467.624 400.733C467.388 397.649 467.964 386.307 467.964 386.307L446.708 384.791L449.636 394.069Z" fill="#FF7446"/>
<path d="M469.428 409.227C469.428 409.227 470.108 412.154 471.651 417.119C473.193 422.085 472.226 426.763 472.226 426.763C472.226 426.763 420.669 429.193 418.603 427.573C416.512 425.952 417.583 419.994 418.106 419.471C418.629 418.949 425.165 417.171 428.538 415.107C431.885 413.042 443.362 405.202 447.232 405.516C451.101 405.829 452.879 408.678 460.252 409.018C467.572 409.331 467.598 407.789 469.428 409.227Z" fill="#001653"/>
<path d="M418.577 427.547C420.669 429.167 472.2 426.736 472.2 426.736C472.2 426.736 472.827 423.679 472.252 419.863C445.349 424.855 418.08 419.445 418.08 419.445C417.584 419.994 416.512 425.926 418.577 427.547Z" fill="#7B5119"/>
<path d="M472.277 419.889C453.898 423.548 433.531 422.79 418.105 419.471C446.159 423.705 468.774 420.412 467.231 420.595C467.284 420.569 472.617 419.837 472.277 419.889Z" fill="#957447"/>
<path d="M512.07 215.548C520.907 247.875 509.926 392.867 509.926 392.867L483.441 391.063C483.441 391.063 477.428 246.804 473.062 242.44C471.781 241.159 470.421 241.577 469.349 242.283C468.277 243.015 467.545 244.112 467.153 245.367C464.434 254.278 448.852 306.076 451.989 317.418C455.414 329.832 470.761 396.395 470.761 396.395L448.538 397.283C448.538 397.283 418.08 346.427 418.08 310.937C418.08 275.447 423.047 228.38 437.427 209.249C443.989 200.547 476.225 193.804 476.225 193.804C476.225 193.804 509.325 205.434 512.07 215.548Z" fill="#021F6E"/>
<path d="M464.225 396.343C464.225 396.343 448.879 325.389 445.454 312.139C442.97 302.522 452.303 265.621 457.585 246.125C459.18 240.271 466.212 237.919 470.997 241.63C470.997 241.63 448.565 305.004 452.016 317.418C455.441 329.832 470.788 396.395 470.788 396.395L448.565 397.283C448.565 397.283 448.513 397.179 448.408 397.022L464.225 396.343Z" fill="#021753"/>
<path d="M506.58 208.832C509.429 211.053 511.469 213.327 512.07 215.548C520.907 247.876 509.926 392.867 509.926 392.867L503.364 392.423C503.756 387.17 513.273 250.698 506.58 208.832Z" fill="#021753"/>
<path d="M432.381 217.926C433.923 214.633 435.623 211.706 437.479 209.249C438.237 208.23 439.335 207.263 440.721 206.296C444.407 208.178 449.479 210.216 456.539 212.385C477.768 218.919 500.645 215.443 510.161 212.124C511.129 213.274 511.808 214.398 512.122 215.522C512.88 218.318 513.508 221.977 514.005 226.315C509.246 229.843 481.664 238.363 456.565 230.392C440.564 225.322 434.629 222.264 432.381 217.926Z" fill="#021753"/>
<path d="M509.926 403.843C503.154 406.038 486.814 405.49 482.918 403.843C479.31 402.327 479.075 388.947 482.918 388.215C488.304 387.196 503.599 387.3 509.926 388.215C513.795 388.79 513.638 402.641 509.926 403.843Z" fill="#5D70A2"/>
<path d="M469.663 397.885C462.891 400.08 446.551 399.531 442.655 397.885C439.047 396.369 438.812 382.988 442.655 382.257C448.041 381.237 463.336 381.342 469.663 382.257C473.532 382.805 473.375 396.683 469.663 397.885Z" fill="#5D70A2"/>
<path d="M434.551 198.117C435.44 200.939 439.492 205.774 457.767 211.419C481.559 218.789 507.599 212.438 511.076 209.302C512.488 208.021 512.802 222.604 511.076 224.146C504.2 230.34 491.991 231.464 483.128 231.725C473.951 231.986 464.774 230.523 455.989 227.857C448.538 225.583 437.374 222.735 433.871 214.999C433.426 214.006 433.322 206.244 434.551 198.117Z" fill="#8F4800"/>
<path d="M479.781 80.6965C479.781 80.6965 501.874 79.5727 510.893 90.2615C519.913 100.95 518.423 206.192 514.763 209.328C511.103 212.464 483.834 220.696 458.892 213.326C433.976 205.957 432.381 195.843 432.381 195.843C432.381 195.843 435.675 128.6 435.675 107.954C435.675 87.3084 455.859 75.1561 479.781 80.6965Z" fill="#FCB500"/>
<path d="M499.259 194.458C501.22 189.022 499.128 171.8 496.906 159.308C495.18 159.647 493.507 160.039 491.912 160.484C489.245 152.225 486.892 130.822 486.814 117.337C486.657 92.065 499.468 84.7214 499.468 84.7214C502.004 84.1464 506.057 86.5246 512.41 93.1365C519.73 113.155 518.214 206.349 514.763 209.302C513.299 210.556 508.044 212.647 500.645 214.189C498.736 206.662 497.455 199.476 499.259 194.458Z" fill="#FA8E00"/>
<path d="M481.689 80.9318C486.473 85.3223 486.84 85.4269 481.872 91.1763C476.904 96.9519 460.433 103.512 458.08 102.414C452.25 99.6699 457.688 90.4707 461.558 83.885C462.76 81.8204 476.905 76.5413 481.689 80.9318Z" fill="#FCDB86"/>
<path d="M460.277 64.3106C460.277 64.3106 458.996 94.7044 460.277 96.0372C461.558 97.3701 480.042 90.9411 481.663 87.1517C483.284 83.3884 474.918 28.4287 474.918 28.4287L460.277 64.3106Z" fill="#F25C12"/>
<path opacity="0.6" d="M459.728 84.3295C462.996 83.7284 465.82 82.9182 466.631 81.9774C474.16 73.4577 468.513 59.659 469.114 56.0525C470.291 48.9179 472.696 43.0117 471.493 36.8441L460.277 64.2847C460.277 64.3109 459.833 75.2871 459.728 84.3295Z" fill="#B5450E"/>
<path d="M360.927 128.6C360.587 130.691 362.365 132.494 364.483 132.155C365.764 131.945 366.783 130.926 366.993 129.646C367.332 127.555 365.555 125.752 363.437 126.091C362.156 126.3 361.136 127.32 360.927 128.6Z" fill="#00424C"/>
<path d="M362.889 129.018L363.83 130.142L364.405 128.783C365.137 127.006 371.412 111.404 364.484 107.85C362.444 106.804 360.51 107.144 359.202 108.764C356.169 112.528 357.111 121.988 362.889 129.018ZM360.588 109.888C361.215 109.104 362.026 108.843 362.993 109.156C363.229 109.235 363.438 109.313 363.699 109.444C367.909 111.613 365.242 121.57 363.359 126.692C358.706 120.159 358.523 112.449 360.588 109.888Z" fill="#00424C"/>
<path d="M363.777 128.13L365.215 128.391C366.522 128.626 367.855 128.757 369.11 128.757C375.542 128.757 381.163 125.882 382.522 122.563C383.254 120.812 382.679 119.114 380.954 117.964C375.176 114.096 365.737 125.647 364.692 126.98L363.777 128.13ZM367.071 126.902C369.764 123.792 374.757 118.983 378.261 118.983C378.888 118.983 379.437 119.14 379.96 119.48C380.98 120.159 381.293 120.969 380.901 121.936C379.829 124.55 373.921 127.607 367.071 126.902Z" fill="#00424C"/>
<path d="M315.932 179.274H406.393C410.158 179.274 413.217 176.216 413.217 172.453V136.937C413.217 133.174 410.158 130.142 406.419 130.142H315.958C312.194 130.142 309.161 133.2 309.161 136.937V172.453C309.135 176.216 312.167 179.274 315.932 179.274Z" fill="#0087FC"/>
<path d="M315.932 130.142H348.456V179.274H315.932C312.167 179.274 309.134 176.216 309.134 172.479V136.937C309.134 133.2 312.167 130.142 315.932 130.142Z" fill="#0062B8"/>
<path d="M377.712 130.142H380.274C394.157 145.822 385.66 173.263 383.568 179.274H381.555C382.993 175.249 392.902 145.378 377.816 130.299C377.79 130.247 377.764 130.194 377.712 130.142Z" fill="#00424C"/>
<path d="M329.71 179.065C329.71 179.117 329.736 179.196 329.736 179.248H327.828C322.233 151.258 328.403 136.467 332.586 130.116H334.939C331.148 135.421 323.854 150.03 329.71 179.065Z" fill="#00424C"/>
<path d="M484.198 264.131H549.037C550.265 264.131 551.259 263.138 551.259 261.91V219.834C551.259 218.606 550.265 217.613 549.037 217.613H484.198C482.969 217.613 481.976 218.606 481.976 219.834V261.91C481.976 263.138 482.969 264.131 484.198 264.131Z" fill="#0087FC"/>
<path d="M484.594 258.785H543.289V222.982H484.594V258.785Z" fill="#FFE6A6"/>
<path d="M481.741 251.116H485.427C486.107 251.116 486.682 250.568 486.682 249.862V231.908C486.682 231.228 486.133 230.653 485.427 230.653H481.741C481.061 230.653 480.486 231.202 480.486 231.908V249.862C480.486 250.541 481.035 251.116 481.741 251.116Z" fill="#557A80"/>
<path d="M504.592 194.458C500.226 207.734 515.599 236.481 509.351 245.68C503.102 254.88 506.239 264.523 513.821 269.332C521.403 274.114 530.789 267.398 530.031 263.765C529.273 260.133 527.234 250.306 526.292 245.811C525.351 241.316 542.973 205.382 530.58 183.586C523.233 170.65 534.11 148.384 528.358 134.01C523.207 143.575 498.867 137.59 500.278 148.122C502.501 157.086 507.05 186.984 504.592 194.458Z" fill="#F25C12"/>
<path d="M448.146 24.1427C448.146 24.1427 444.93 35.2235 444.93 44.3181C444.93 53.4127 445.139 69.1714 451.597 69.1714C458.055 69.1714 467.284 67.3943 469.428 54.5364C471.572 41.6785 469.428 27.4617 462.97 24.1427C456.512 20.8236 448.146 24.1427 448.146 24.1427Z" fill="#FF7446"/>
<path d="M450.133 33.1069C452.015 32.3229 453.95 33.9955 453.584 36.0601C453.008 39.353 453.139 42.9333 456.224 43.6912C462.133 45.1286 464.93 43.6912 465.898 44.6843C466.865 45.6774 463.1 51.0087 465.898 52.0018C468.695 52.9949 470.186 43.456 472.669 43.456C475.153 43.456 475.676 57.2024 472.669 60.3124C469.663 63.4223 473.088 67.6299 477.062 67.6299C481.036 67.6299 476.565 72.6215 481.924 74.294C487.284 75.9666 491.572 75.9666 493.297 69.1979C495.023 62.4292 493.297 58.666 493.297 58.666C493.297 58.666 498.762 52.2631 497.376 45.9387C496.592 42.4368 493.036 36.1124 493.036 36.1124C493.036 36.1124 490.265 28.6119 489.533 24.2737C488.774 19.9354 478.133 15.6233 470.839 14.8393C463.545 14.0553 467.205 9.63867 461.061 9.63867C454.943 9.63867 454.107 17.7141 454.107 17.7141C454.107 17.7141 445.374 12.4873 444.956 12.7486C439.858 15.8585 444.093 21.2944 444.093 21.2944C444.093 21.2944 439.91 21.7387 439.047 27.1745C438.184 32.6104 441.74 35.9294 447.309 34.1523C448.355 33.7864 449.296 33.4467 450.133 33.1069Z" fill="#100062"/>
<path d="M444.067 13.3233C445.139 13.4801 446.551 13.8198 448.25 14.3164C450.865 15.7799 454.054 17.6877 454.054 17.6877C454.054 17.6877 465.479 20.876 472.016 23.9859C480.408 27.9844 487.755 31.9829 492.67 35.1451C492.879 35.7201 493.01 36.0598 493.01 36.0598C493.01 36.0598 494.317 38.3858 495.52 40.9991C490.317 39.8754 480.199 35.9553 468.878 30.5717C456.12 24.5086 443.361 13.9505 444.067 13.3233Z" fill="#0C004A"/>
<path d="M468.774 42.698C468.774 42.698 466.16 44.3183 462.081 47.2192C453.558 53.2561 448.669 46.5397 444.878 46.6965C441.61 50.7473 442.917 66.7412 448.225 69.9557C451.571 71.9942 459.885 69.9819 464.565 65.4607C469.245 60.9395 469.245 55.5559 469.245 55.5559C460.853 60.6259 460.67 52.3676 468.774 42.698Z" fill="white"/>
<path d="M468.774 42.698C468.774 42.698 471.729 37.2621 474.369 40.2937C477.01 43.3252 475.624 56.1569 471.572 56.1569C467.519 56.1569 467.336 46.1477 468.774 42.698Z" fill="#FF7446"/>
<path d="M498.789 84.9827C498.789 84.9827 491.286 90.706 491.416 115.951C491.495 129.41 495.443 152.225 497.874 160.484C507.992 157.295 522.241 157.086 532.568 160.484C533.954 149.455 531.156 125.935 529.405 118.356C525.091 99.67 509.508 80.6967 498.789 84.9827Z" fill="#FCC332"/>
<path d="M451.675 14.7869C457.165 3.288 470.996 -1.54678 482.604 3.99362C494.212 9.50788 499.18 23.3066 493.689 34.8055C493.48 35.2498 493.245 35.668 493.01 36.1122L451.1 16.1459C451.283 15.6755 451.466 15.2312 451.675 14.7869Z" fill="#FCB500"/>
<path d="M460.407 20.0136C460.59 19.5693 460.773 19.125 460.982 18.6808C465.558 9.08959 475.963 4.12414 486.029 5.97965C484.957 5.22176 483.807 4.56842 482.604 3.96734C470.996 -1.54693 457.165 3.26172 451.675 14.7607C451.466 15.2049 451.283 15.6492 451.1 16.0935L493.01 36.0598C493.088 35.9553 460.407 20.0136 460.407 20.0136Z" fill="#FCC332"/>
<path d="M432.381 7.75675C432.825 6.81593 454.656 15.7276 468.617 22.3656C482.578 29.0036 493.533 35.1713 493.089 36.0859C492.644 37.0268 469.506 31.5909 455.545 24.9529C441.557 18.3149 431.936 8.69757 432.381 7.75675Z" fill="#FC9700"/>
<path d="M81.598 396.708C77.3364 401.569 77.9378 411.735 77.0488 412.336C75.1926 413.643 71.5323 404.209 71.5323 404.209L76.6828 385.967C76.6828 385.967 87.0884 375.853 99.0104 363.309C102.592 366.654 105.886 370.235 108.762 374.181C97.0495 382.831 86.7485 390.828 81.598 396.708Z" fill="#FFA283"/>
<path d="M76.6826 385.993C76.6826 385.993 76.029 384.425 72.7347 385.732C69.4144 387.039 60.6298 401.256 60.6298 401.256L62.7998 403.608C62.7998 403.608 69.8588 393.598 70.3556 394.121C70.8785 394.644 64.656 405.803 65.5711 407.423C66.4862 409.043 74.2511 418.034 76.8656 418.06C79.4801 418.086 77.4931 410.69 77.4931 410.69C77.4931 410.69 72.7347 407.005 72.7609 405.907C72.7609 404.81 76.6826 385.993 76.6826 385.993Z" fill="#09434C"/>
<path d="M135.926 414.009C136.475 420.438 144.214 427.05 144.057 428.121C143.717 430.343 134.383 426.475 134.383 426.475L124.788 410.141C124.788 410.141 124.71 395.637 123.899 378.362C128.788 378.101 133.677 378.205 138.514 378.859C136.606 393.258 135.246 406.221 135.926 414.009Z" fill="#FFA283"/>
<path d="M124.762 410.141C124.762 410.141 123.194 409.514 121.834 412.807C120.475 416.1 124.658 432.303 124.658 432.303L127.874 432.355C127.874 432.355 125.521 420.333 126.279 420.333C127.011 420.333 130.75 432.538 132.554 433.008C134.357 433.479 146.227 434.08 148.031 432.224C149.861 430.343 143.168 426.658 143.168 426.658C143.168 426.658 137.233 427.546 136.423 426.762C135.639 426.004 124.762 410.141 124.762 410.141Z" fill="#09434C"/>
<path d="M136.501 210.269L156.79 199.972L156.136 208.596C156.136 208.596 174.803 292.382 170.306 305.03C159.796 334.614 98.9314 384.478 98.9314 384.478L86.9571 373.501C86.9571 373.501 133.861 309.003 133.861 296.72C133.861 284.411 118.566 214.607 118.566 214.607L136.501 210.269Z" fill="#0001AB"/>
<path opacity="0.51" d="M133.835 296.694C133.835 284.385 118.541 214.581 118.541 214.581L136.502 210.269L156.79 199.972L156.137 208.596C156.137 208.596 158.934 221.193 162.124 237.344C151.614 244.347 151.012 298.549 144.894 341.252L126.358 314.23C130.829 306.285 133.835 299.804 133.835 296.694Z" fill="#531C2E"/>
<path d="M156.79 199.946C156.79 199.946 155.666 214.11 155.666 216.096C155.666 218.083 137.835 374.468 143.482 399.74H122.2C122.2 399.74 98.9316 256.447 98.9316 232.848C98.9316 209.249 110.252 193.621 110.252 193.621L156.79 199.946Z" fill="#0001E4"/>
<path d="M110.226 193.647L156.789 199.972C156.789 199.972 155.665 214.136 155.665 216.123C155.665 216.332 155.456 218.422 155.09 221.951C146.096 218.71 134.985 214.476 128.553 211.131C116.631 204.937 113.232 198.325 107.585 198.116C109.075 195.216 110.226 193.647 110.226 193.647Z" fill="#F7604B"/>
<path d="M131.559 80.7489C131.559 80.7489 126.853 97.6576 128.84 107.902C131.089 119.558 133.285 130.064 133.285 130.064L104.918 103.485L112.971 69.8772L131.559 80.7489Z" fill="#FFA283"/>
<path opacity="0.68" d="M129.285 91.5422C126.383 89.8696 123.272 87.7266 119.925 85.0871C116.003 81.9772 113.886 77.4037 113.337 72.5167L114.199 70.6089L131.56 80.7489C131.56 80.7489 130.226 85.5314 129.285 91.5422Z" fill="#FF4900"/>
<path d="M103.245 98.5722C103.245 98.5722 126.017 99.0688 142.488 115.533C158.959 131.998 158.776 130.822 158.776 137.146C158.776 143.47 160.763 170.049 160.763 185.677C160.763 201.305 162.724 209.955 160.763 210.269C146.436 212.569 123.01 193.308 108.709 195.634C108.709 195.634 95.8983 175.85 98.0683 168.219C100.238 160.562 96.7349 155.414 95.2447 141.615C93.7544 127.816 90.2772 98.5722 103.245 98.5722Z" fill="#ACF0FD"/>
<path d="M108.788 139.001C100.788 127.999 94.5395 109.392 107.167 106.386C107.167 106.386 115.194 129.463 127.613 139.21C134.489 144.594 148.319 149.403 159.509 152.487C159.927 160.274 160.424 169.578 160.659 177.68C147.639 171.408 115.743 148.593 108.788 139.001Z" fill="#69BFDB"/>
<path d="M107.141 106.386C107.141 106.386 119.665 103.12 131.9 112.031C144.11 120.943 165.418 144.333 167.379 144.725C172.686 145.796 187.981 145.3 187.981 145.3C187.981 145.3 192.321 147.965 192.922 162.914C193.236 170.937 171.013 174.204 163.718 173.655C156.398 173.08 116.083 147.077 108.292 136.885C100.475 126.692 94.5397 109.392 107.141 106.386Z" fill="#CCF7FF"/>
<path d="M186.151 145.326C185.706 145.326 185.183 145.352 184.608 145.352C182.935 154.891 184.974 164.978 186.203 169.787C187.745 169.134 189.105 168.402 190.203 167.566C191.092 162.705 190.229 156.223 190.229 156.223L186.151 145.326Z" fill="#69BFDB"/>
<path d="M137.469 42.6977C137.469 42.6977 145.103 46.7746 147.299 53.4649C149.495 60.1552 148.162 90.4444 142.462 92.3261C136.763 94.1816 126.645 90.1047 114.383 76.0185C102.069 61.9323 117.729 32.6884 137.469 42.6977Z" fill="#FFA283"/>
<path d="M145.495 45.7293C145.495 45.7293 139.168 47.6109 137.651 59.4496C136.135 71.2883 125.965 74.2676 121.18 79.2069C116.396 84.1201 114.749 94.835 100.343 90.6013C85.9371 86.3937 88.9176 72.3598 91.8458 62.4289C94.7479 52.4719 106.957 39.1697 117.415 34.9098C128.814 30.2319 153.024 34.0474 145.495 45.7293Z" fill="#0B0080"/>
<path d="M111.48 38.1245C103.689 44.1353 96.5519 53.1776 94.4341 60.4428C91.5321 70.3999 88.5516 84.4077 103.088 88.6675C107.977 90.1049 111.402 89.8435 113.99 88.6937C111.193 91.2286 107.219 92.6137 100.343 90.6014C85.9371 86.3939 88.9176 72.3599 91.8458 62.429C94.1988 54.3014 102.748 43.9785 111.48 38.1245Z" fill="#080060"/>
<path d="M99.3499 53.2558C99.3499 53.2558 97.3629 61.9846 91.5327 63.4481C85.7024 64.9116 82.7742 64.0492 82.0944 60.6779C81.4147 57.3066 74.434 58.2474 77.3622 52.0276C80.2904 45.8077 81.2578 41.2604 86.6959 41.1558C92.134 41.0774 93.7288 43.2204 98.6963 44.6578C103.664 46.1474 99.3499 53.2558 99.3499 53.2558Z" fill="#0B0080"/>
<path d="M187.013 147.965C187.013 147.965 229.001 139.184 235.799 138.531C242.596 137.877 266.806 139.524 266.31 141.014C265.813 142.529 250.074 143.914 249.943 144.333C249.812 144.751 251.721 147.834 250.518 149.22C249.316 150.605 248.453 151.284 247.904 153.009C247.355 154.734 245.655 155.047 244.426 155.675C243.198 156.302 238.91 156.981 236.583 156.25C234.282 155.492 232.949 152.12 229.341 152.303C225.707 152.46 189.81 164.142 189.81 164.142L187.013 147.965Z" fill="#FFA283"/>
<path d="M203.772 164.508C203.772 164.508 190.778 172.087 188.713 171.408C186.648 170.728 183.144 143.758 185.785 141.955C188.425 140.151 198.622 141.327 199.223 142.503C199.824 143.679 206.256 163.097 203.772 164.508Z" fill="#ACF0FD"/>
</svg>
