<svg width="542" height="528" viewBox="0 0 542 528" fill="none" xmlns="http://www.w3.org/2000/svg">
<path d="M477.381 453.594C463.568 467.823 451.212 476.205 441.751 482.525C349.45 544.154 243.961 526.386 211.34 520.312C158.718 510.511 114.289 503.604 76.1241 469.129C-10.5947 390.773 -6.37509 227.327 59.8892 126.076C67.7417 114.079 133.911 15.9886 239.647 2.15675C242.239 1.81616 244.169 1.62694 245.853 1.45665C262.201 -0.284162 363.566 -9.42341 446.197 59.8305C458.023 69.7455 477.059 87.6267 494.713 114.893C559.255 214.554 559.463 368.975 477.381 453.594Z" fill="url(#paint0_linear_1_1033)"/>
<path d="M138.49 24.8063C125.87 25.9037 116.201 36.4621 116.163 49.1398C115.936 126.587 115.576 393.706 120.628 488.259C121.158 498.268 129.37 506.14 139.399 506.253C189.012 506.783 331.701 507.767 412.725 502.583C429.603 501.504 442.735 487.521 442.716 470.624C442.621 389.335 441.315 160.76 430.189 56.2733C428.846 43.747 418.798 33.9834 406.234 32.9994C352.118 28.7799 208.444 18.7134 138.49 24.8063Z" fill="url(#paint1_linear_1_1033)"/>
<path d="M136.087 69.424C135.122 135.669 132.341 356.033 137.185 437.378C137.885 449.261 147.119 458.646 158.529 459.044C205.474 460.671 325.873 463.85 394.465 456.3C406.821 454.938 416.263 444.228 416.585 431.266C418.306 363.659 422.942 158.413 418.231 77.9767C417.474 65.1477 407.672 54.911 395.392 54.0784C344.568 50.6536 214.026 42.7632 155.69 47.6072C144.735 48.5343 136.258 57.9574 136.087 69.424Z" fill="#FFEECC"/>
<path d="M249.505 36.3296C249.543 38.1651 251 39.641 252.835 39.6977C261.861 39.9816 287.311 40.7574 298.683 41.1547C300.934 41.2304 302.637 39.1868 302.164 36.9919C302.126 36.9162 301.843 34.1158 298.967 33.9076C291.265 33.3778 268.067 31.9208 252.722 32.8102C249.581 32.9994 249.41 36.5756 249.505 36.3296Z" fill="url(#paint2_linear_1_1033)"/>
<path d="M191.188 269.485C191.188 269.485 255.9 253.25 324.265 263.032C343.508 265.795 360.538 276.978 370.926 293.402C389.64 322.995 416.074 375.75 410.473 430.755L381.106 438.021C381.106 438.021 360.822 372.741 337.983 346.175C337.983 346.175 310.944 407.822 312.306 441.673C312.344 442.638 312.401 443.565 312.496 444.474C315.599 477.587 182.673 450.661 182.673 450.661L191.188 269.485Z" fill="url(#paint3_linear_1_1033)"/>
<path d="M261.142 214.214L247.367 258.094C246.08 262.181 247.367 266.552 250.564 269.011C257.944 274.688 272.514 283.733 290.319 283.468C293.574 283.411 296.317 280.648 296.545 277.224L301.445 203.883L261.142 214.214Z" fill="url(#paint4_linear_1_1033)"/>
<path d="M314.482 166.134C314.482 166.134 319.837 200.685 316.469 217.204C313.101 233.722 313.839 245.208 294.141 243.543C274.463 241.878 261.066 228.33 256.733 209.862C256.733 209.862 249.845 181.347 255.541 171.905C261.274 162.463 314.482 166.134 314.482 166.134Z" fill="url(#paint5_linear_1_1033)"/>
<path d="M266.232 199.89L268.616 200.514C268.616 200.514 264.094 177.827 273.63 176.559C283.167 175.292 319.118 177.297 329.658 167.117C339.819 157.316 337.453 140.57 329.09 133.872C328.56 133.455 327.784 133.55 327.33 134.042L326.157 135.329C325.362 136.199 323.887 135.65 323.868 134.458C323.849 133.323 322.486 132.736 321.673 133.512C318.475 136.54 310.812 140.816 293.668 139.548C269.316 137.732 251.492 143.106 246.913 159.038C246.629 160.041 245.38 160.324 244.661 159.568C243.223 158.073 240.612 156.862 236.127 158.981C228.35 162.671 227.291 177.259 238.265 192.378C238.795 193.097 238.511 194.138 237.66 194.403C234.689 195.387 229.883 198.32 238.303 206.115C246.913 214.1 252.986 215.065 255.371 215.084C256.014 215.084 256.563 214.649 256.695 214.025L259.552 199.568C259.704 198.811 260.442 198.357 261.18 198.547L266.232 199.89Z" fill="url(#paint6_linear_1_1033)"/>
<path d="M266.043 203.012C266.043 203.012 266.099 181.857 255.749 185.074C245.399 188.291 254.519 208.48 261.463 211.092L266.043 203.012Z" fill="url(#paint7_linear_1_1033)"/>
<path d="M193.894 408.484C191.036 388.238 209.693 351.454 218.359 340.158C220.838 336.922 222.22 332.986 222.257 328.899C222.503 300.232 210.469 281.822 191.188 269.466C191.188 269.466 121.196 351.019 139.02 413.726C140.95 420.5 143.921 426.309 147.705 431.304C150.506 407.69 180.118 409.582 193.894 408.484Z" fill="url(#paint8_linear_1_1033)"/>
<path d="M192.891 393.631L190.223 393.328C192.474 373.479 209.901 348.975 217.281 339.363L219.419 340.99C212.172 350.413 195.086 374.444 192.891 393.631Z" fill="url(#paint9_linear_1_1033)"/>
<path d="M194.234 407.538C186.363 407.557 150.146 408.787 146.797 430.396C178.037 471.702 264.131 456.811 264.131 456.811V440.727C264.131 440.727 210.166 430.925 196.448 408.768C195.975 407.992 195.142 407.538 194.234 407.538Z" fill="url(#paint10_linear_1_1033)"/>
<path d="M256.752 453.291C256.752 453.291 269.467 423.3 291.871 433.934C314.274 444.568 312.514 451.532 312.514 451.532L256.752 453.291Z" fill="url(#paint11_linear_1_1033)"/>
<path d="M253.895 459.517C254.065 461.787 256.014 463.509 258.285 463.433L374.351 459.384C376.149 459.327 377.719 458.135 378.268 456.394L381.636 445.609C382.469 442.96 380.576 440.235 377.795 440.103L335.467 437.851C335.088 437.832 334.691 437.87 334.312 437.946L257.206 455.032C255.144 455.505 253.724 457.416 253.895 459.517Z" fill="url(#paint12_linear_1_1033)"/>
<path d="M331.701 455.297L334.899 440.405L378.381 442.487L375.505 454.824L331.701 455.297Z" fill="url(#paint13_linear_1_1033)"/>
<path d="M309.411 295.105C306.951 315.219 295.882 396.904 292.703 420.254C292.249 423.527 294.86 426.422 298.172 426.328L485.952 420.954C488.412 420.878 490.512 419.156 491.042 416.753L520.257 285.209C521.033 281.727 518.252 278.472 514.713 278.681L314.426 290.412C311.833 290.545 309.733 292.531 309.411 295.105Z" fill="url(#paint14_linear_1_1033)"/>
<path d="M384.891 377.604L357.132 456.375L421.675 457.738L427.048 378.077C427.294 374.33 424.191 371.227 420.464 371.492L390.321 373.498C387.861 373.649 385.723 375.258 384.891 377.604Z" fill="url(#paint15_linear_1_1033)"/>
<path d="M330.982 457.492C330.263 459.668 331.89 461.882 334.161 461.882H435.223C437.077 461.882 438.572 460.387 438.572 458.532V454.199C438.572 452.288 436.982 450.774 435.071 450.85L334.01 455.183C332.628 455.24 331.417 456.167 330.982 457.492Z" fill="url(#paint16_linear_1_1033)"/>
<path d="M306.573 378.209L305.249 378.039L314.482 305.284C315.05 300.762 318.759 297.299 323.3 297.016L496.378 286.571L496.454 287.914L323.376 298.359C319.478 298.586 316.299 301.576 315.807 305.455L306.573 378.209Z" fill="#91B3FA"/>
<path d="M302.626 398.75L300.642 414.502L301.975 414.67L303.959 398.918L302.626 398.75Z" fill="#91B3FA"/>
<path d="M296.053 225.321C275.201 226.892 263.072 205.34 262.958 205.113L264.358 204.337C264.472 204.545 276.109 225.227 295.939 223.713L296.053 225.321Z" fill="url(#paint17_linear_1_1033)"/>
<path d="M304.548 224.526C304.548 225.756 303.546 226.759 302.316 226.759H296.355C295.125 226.759 294.123 225.756 294.123 224.526C294.123 223.297 295.125 222.294 296.355 222.294H302.316C303.546 222.275 304.548 223.278 304.548 224.526Z" fill="url(#paint18_linear_1_1033)"/>
<path d="M264.396 181.195C264.396 181.195 271.889 142.803 293.933 139.189C293.933 139.189 287.689 136.048 281.18 139.454C274.671 142.86 258.209 161.554 258.89 182.141C263.356 183.75 264.396 181.195 264.396 181.195Z" fill="url(#paint19_linear_1_1033)"/>
<path d="M260.574 179.379C249.108 181.706 250.527 196.2 250.527 196.2C249.694 206.721 252.778 211.943 256.714 214.422C259.401 216.125 262.788 216.277 265.626 214.838C268.465 213.4 270.338 210.581 270.584 207.421C270.792 204.564 271.038 201.839 271.246 200.874C271.738 198.528 272.022 177.052 260.574 179.379Z" fill="url(#paint20_linear_1_1033)"/>
<path d="M261.615 183.05C259.231 182.634 256.884 183.901 255.938 186.115C249.089 201.991 257.49 212.303 261.634 212.53C265.986 212.757 265.891 191.811 264.983 186.456C264.586 184.204 263.148 183.315 261.615 183.05Z" fill="url(#paint21_linear_1_1033)"/>
<path d="M427.067 249.862C466.089 249.862 497.721 218.23 497.721 179.208C497.721 140.187 466.089 108.554 427.067 108.554C388.046 108.554 356.413 140.187 356.413 179.208C356.413 218.23 388.046 249.862 427.067 249.862Z" fill="white"/>
<path d="M424.418 223.618C421.088 223.845 417.985 222.293 416.263 219.512L387.332 173.059C384.626 168.707 386.083 162.746 390.586 159.738C395.089 156.729 400.936 157.827 403.661 162.179L423.718 194.421L450.19 140.494C452.574 135.65 458.269 133.436 462.943 135.537C467.598 137.637 469.452 143.257 467.087 148.082L432.876 217.828C431.306 221.026 428.203 223.22 424.74 223.561C424.645 223.599 424.532 223.618 424.418 223.618Z" fill="url(#paint22_linear_1_1033)"/>
<path d="M196.637 508.675V424.871C196.637 413.858 187.782 404.908 176.769 404.776C143.732 404.416 75.5754 404.397 19.7938 409.09C12.1872 409.733 6.26469 415.977 5.98086 423.603L0.796278 504.626C0.417842 515.336 8.8759 524.305 19.6046 524.494L177.45 527.503C187.99 527.711 196.637 519.215 196.637 508.675Z" fill="url(#paint23_linear_1_1033)"/>
<path d="M177.488 433.934C177.621 441.067 177.413 452.383 177.242 459.686C177.148 463.49 173.818 466.385 170.033 465.95L142.843 462.771C139.228 462.354 136.674 459.005 137.204 455.391L140.534 433.12C141.007 429.96 143.732 427.614 146.93 427.614H171.036C174.556 427.614 177.432 430.414 177.488 433.934Z" fill="white"/>
<path opacity="0.37" d="M106.418 476.13L83.7306 478.571C80.5518 478.911 77.846 476.3 78.073 473.102L83.0305 405.627C92.5482 405.324 101.915 405.097 110.978 404.946V471.059C110.997 473.67 109.029 475.865 106.418 476.13Z" fill="white"/>
<path d="M97.1273 464.436C97.0516 465.647 96.0488 466.593 94.8567 466.593C94.8189 466.593 94.7621 466.593 94.7243 466.593C93.4565 466.517 92.5104 465.439 92.5861 464.19L96.0109 405.286C97.5436 405.249 99.0574 405.211 100.59 405.173L97.1273 464.436Z" fill="white"/>
<path d="M164.924 455.183C165.322 455.183 165.662 454.881 165.681 454.464L166.854 435.921C166.873 435.505 166.57 435.145 166.135 435.107C165.7 435.069 165.359 435.391 165.322 435.826L164.148 454.37C164.13 454.786 164.432 455.145 164.867 455.183C164.886 455.183 164.905 455.183 164.924 455.183Z" fill="url(#paint24_linear_1_1033)"/>
<path d="M162.502 455.183C162.919 455.183 163.24 454.862 163.259 454.445L163.884 435.543C163.902 435.126 163.562 434.767 163.146 434.748C162.654 434.729 162.37 435.069 162.351 435.486L161.726 454.389C161.708 454.805 162.048 455.164 162.464 455.183C162.464 455.183 162.483 455.183 162.502 455.183Z" fill="url(#paint25_linear_1_1033)"/>
<path d="M159.21 455.183C158.794 455.164 158.472 454.805 158.491 454.388C158.794 448.031 159.361 435.921 159.38 435.504C159.38 435.088 159.721 434.748 160.137 434.748C160.553 434.748 160.894 435.088 160.894 435.504C160.894 435.826 160.156 451.342 160.005 454.445C159.986 454.861 159.645 455.164 159.248 455.164C159.229 455.183 159.229 455.183 159.21 455.183Z" fill="url(#paint26_linear_1_1033)"/>
<path d="M154.177 455.959C154.99 455.959 155.672 455.316 155.69 454.483C156.334 436.167 156.22 435.751 156.145 435.486C155.918 434.672 155.085 434.199 154.271 434.426C153.533 434.634 153.06 435.353 153.155 436.091C153.212 437.189 152.871 447.842 152.644 454.389C152.606 455.221 153.268 455.94 154.101 455.959C154.139 455.959 154.158 455.959 154.177 455.959Z" fill="url(#paint27_linear_1_1033)"/>
<path d="M150.884 455.183C151.301 455.183 151.641 454.843 151.641 454.426V435.883C151.641 435.467 151.301 435.126 150.884 435.126C150.468 435.126 150.128 435.467 150.128 435.883V454.426C150.128 454.843 150.468 455.183 150.884 455.183Z" fill="url(#paint28_linear_1_1033)"/>
<path d="M148.216 455.183C148.633 455.183 148.973 454.862 148.973 454.445C149.125 447.993 149.465 437.472 149.768 436.205C149.9 435.959 149.9 435.656 149.749 435.41C149.522 435.05 149.049 434.956 148.689 435.183C148.273 435.448 147.876 435.713 147.459 454.389C147.441 454.843 147.781 455.183 148.216 455.183Z" fill="url(#paint29_linear_1_1033)"/>
<path d="M169.011 456.886C169.806 456.886 170.487 456.262 170.525 455.448L171.547 435.978C171.585 435.145 170.941 434.426 170.109 434.388C169.314 434.331 168.557 434.994 168.519 435.826L167.498 455.297C167.46 456.129 168.103 456.848 168.936 456.886C168.955 456.886 168.992 456.886 169.011 456.886Z" fill="url(#paint30_linear_1_1033)"/>
<path d="M155.104 395.258V336.392C155.104 328.653 148.897 322.371 141.158 322.276C117.96 322.03 70.088 322.011 30.9198 325.304C25.5839 325.758 21.4211 330.129 21.2318 335.503L17.5799 392.401C17.315 399.932 23.2565 406.214 30.7874 406.365L141.631 408.465C149.03 408.617 155.104 402.656 155.104 395.258Z" fill="url(#paint31_linear_1_1033)"/>
<path d="M141.669 342.769C141.764 347.783 141.613 355.73 141.499 360.858C141.442 363.526 139.096 365.569 136.428 365.248L117.336 363.015C114.8 362.712 113.003 360.366 113.381 357.83L115.727 342.182C116.068 339.968 117.96 338.322 120.212 338.322H137.147C139.588 338.341 141.613 340.309 141.669 342.769Z" fill="white"/>
<path opacity="0.37" d="M91.7536 372.4L75.8214 374.122C73.5886 374.368 71.6964 372.533 71.8478 370.281L75.3294 322.882C82.0088 322.674 88.5936 322.522 94.9514 322.409V368.824C94.9514 370.678 93.5701 372.211 91.7536 372.4Z" fill="white"/>
<path d="M85.2254 364.188C85.1686 365.039 84.4685 365.702 83.636 365.702C83.5981 365.702 83.5792 365.702 83.5414 365.702C82.652 365.645 81.9898 364.888 82.0276 364.018L84.4307 322.655C85.5092 322.636 86.5689 322.598 87.6474 322.579L85.2254 364.188Z" fill="white"/>
<path d="M132.833 357.698C133.117 357.698 133.344 357.49 133.363 357.206L134.195 344.169C134.214 343.866 133.987 343.62 133.703 343.601C133.4 343.582 133.154 343.809 133.136 344.093L132.303 357.13C132.284 357.433 132.511 357.679 132.795 357.698C132.814 357.698 132.814 357.698 132.833 357.698Z" fill="url(#paint32_linear_1_1033)"/>
<path d="M131.13 357.698C131.414 357.698 131.66 357.471 131.66 357.187L132.095 343.904C132.095 343.601 131.868 343.355 131.584 343.355C131.243 343.336 131.035 343.582 131.035 343.866L130.6 357.149C130.581 357.433 130.827 357.679 131.13 357.698C131.111 357.698 131.13 357.698 131.13 357.698Z" fill="url(#paint33_linear_1_1033)"/>
<path d="M128.821 357.698C128.519 357.679 128.292 357.433 128.31 357.13C128.519 352.665 128.935 344.169 128.935 343.866C128.935 343.582 129.181 343.336 129.465 343.336C129.767 343.336 129.995 343.582 129.995 343.866C129.995 344.093 129.484 354.992 129.37 357.168C129.351 357.452 129.124 357.679 128.84 357.679C128.84 357.698 128.84 357.698 128.821 357.698Z" fill="url(#paint34_linear_1_1033)"/>
<path d="M125.283 358.228C125.851 358.228 126.324 357.774 126.343 357.206C126.797 344.339 126.721 344.055 126.664 343.866C126.513 343.298 125.926 342.958 125.359 343.109C124.829 343.261 124.507 343.753 124.583 344.282C124.621 345.058 124.375 352.532 124.223 357.13C124.204 357.717 124.659 358.209 125.245 358.228C125.264 358.228 125.283 358.228 125.283 358.228Z" fill="url(#paint35_linear_1_1033)"/>
<path d="M122.975 357.698C123.277 357.698 123.504 357.452 123.504 357.168V344.131C123.504 343.828 123.258 343.601 122.975 343.601C122.672 343.601 122.445 343.847 122.445 344.131V357.168C122.445 357.452 122.672 357.698 122.975 357.698Z" fill="url(#paint36_linear_1_1033)"/>
<path d="M121.101 357.698C121.385 357.698 121.631 357.471 121.631 357.168C121.726 352.646 121.972 345.247 122.18 344.358C122.274 344.188 122.274 343.98 122.161 343.809C121.991 343.563 121.669 343.488 121.423 343.658C121.139 343.847 120.855 344.036 120.553 357.149C120.571 357.452 120.799 357.698 121.101 357.698Z" fill="url(#paint37_linear_1_1033)"/>
<path d="M135.709 358.89C136.277 358.89 136.75 358.455 136.769 357.868L137.488 344.188C137.525 343.601 137.071 343.09 136.485 343.071C135.917 343.033 135.387 343.488 135.368 344.074L134.649 357.755C134.612 358.341 135.066 358.852 135.652 358.871C135.671 358.89 135.69 358.89 135.709 358.89Z" fill="url(#paint38_linear_1_1033)"/>
<defs>
<linearGradient id="paint0_linear_1_1033" x1="589.721" y1="613.394" x2="215.536" y2="215.068" gradientUnits="userSpaceOnUse">
<stop stop-color="#DAE3FE"/>
<stop offset="1" stop-color="#E9EFFD"/>
</linearGradient>
<linearGradient id="paint1_linear_1_1033" x1="562.351" y1="706.733" x2="-37.903" y2="-202.744" gradientUnits="userSpaceOnUse">
<stop stop-color="#3E3B3B"/>
<stop offset="1" stop-color="#7D7A7A"/>
</linearGradient>
<linearGradient id="paint2_linear_1_1033" x1="249.494" y1="36.8391" x2="302.261" y2="36.8391" gradientUnits="userSpaceOnUse">
<stop stop-color="#4F52FF"/>
<stop offset="1" stop-color="#4042E2"/>
</linearGradient>
<linearGradient id="paint3_linear_1_1033" x1="255.402" y1="405.766" x2="538.638" y2="58.8654" gradientUnits="userSpaceOnUse">
<stop stop-color="#E1473D"/>
<stop offset="1" stop-color="#E9605A"/>
</linearGradient>
<linearGradient id="paint4_linear_1_1033" x1="250.008" y1="324.21" x2="281.642" y2="238.555" gradientUnits="userSpaceOnUse">
<stop stop-color="#FEBBBA"/>
<stop offset="1" stop-color="#FF928E"/>
</linearGradient>
<linearGradient id="paint5_linear_1_1033" x1="310.143" y1="194.166" x2="217.454" y2="232.941" gradientUnits="userSpaceOnUse">
<stop stop-color="#FEBBBA"/>
<stop offset="1" stop-color="#FF928E"/>
</linearGradient>
<linearGradient id="paint6_linear_1_1033" x1="304.658" y1="97.043" x2="265.681" y2="213.976" gradientUnits="userSpaceOnUse">
<stop stop-color="#09005D"/>
<stop offset="1" stop-color="#1A0F91"/>
</linearGradient>
<linearGradient id="paint7_linear_1_1033" x1="303.857" y1="179.139" x2="211.168" y2="217.915" gradientUnits="userSpaceOnUse">
<stop stop-color="#FEBBBA"/>
<stop offset="1" stop-color="#FF928E"/>
</linearGradient>
<linearGradient id="paint8_linear_1_1033" x1="184.958" y1="348.25" x2="468.194" y2="1.34978" gradientUnits="userSpaceOnUse">
<stop stop-color="#E1473D"/>
<stop offset="1" stop-color="#E9605A"/>
</linearGradient>
<linearGradient id="paint9_linear_1_1033" x1="165.334" y1="194.65" x2="239.391" y2="518.164" gradientUnits="userSpaceOnUse">
<stop stop-color="#FF928E"/>
<stop offset="1" stop-color="#FE7062"/>
</linearGradient>
<linearGradient id="paint10_linear_1_1033" x1="185.621" y1="383.313" x2="233.463" y2="509.212" gradientUnits="userSpaceOnUse">
<stop stop-color="#FEBBBA"/>
<stop offset="1" stop-color="#FF928E"/>
</linearGradient>
<linearGradient id="paint11_linear_1_1033" x1="247.531" y1="354.192" x2="298.552" y2="488.457" gradientUnits="userSpaceOnUse">
<stop stop-color="#FEBBBA"/>
<stop offset="1" stop-color="#FF928E"/>
</linearGradient>
<linearGradient id="paint12_linear_1_1033" x1="300.282" y1="481.001" x2="366.541" y2="381.613" gradientUnits="userSpaceOnUse">
<stop stop-color="#4F52FF"/>
<stop offset="1" stop-color="#4042E2"/>
</linearGradient>
<linearGradient id="paint13_linear_1_1033" x1="322.898" y1="496.077" x2="389.156" y2="396.69" gradientUnits="userSpaceOnUse">
<stop stop-color="#4F52FF"/>
<stop offset="1" stop-color="#4042E2"/>
</linearGradient>
<linearGradient id="paint14_linear_1_1033" x1="369.594" y1="372.355" x2="602.473" y2="245.684" gradientUnits="userSpaceOnUse">
<stop stop-color="#4F52FF"/>
<stop offset="1" stop-color="#4042E2"/>
</linearGradient>
<linearGradient id="paint15_linear_1_1033" x1="395.286" y1="329.519" x2="391.388" y2="436.702" gradientUnits="userSpaceOnUse">
<stop stop-color="#4F52FF"/>
<stop offset="1" stop-color="#4042E2"/>
</linearGradient>
<linearGradient id="paint16_linear_1_1033" x1="362.411" y1="496.213" x2="462.848" y2="326.403" gradientUnits="userSpaceOnUse">
<stop stop-color="#4F52FF"/>
<stop offset="1" stop-color="#4042E2"/>
</linearGradient>
<linearGradient id="paint17_linear_1_1033" x1="262.165" y1="231.892" x2="289.476" y2="205.635" gradientUnits="userSpaceOnUse">
<stop stop-color="#4F52FF"/>
<stop offset="1" stop-color="#4042E2"/>
</linearGradient>
<linearGradient id="paint18_linear_1_1033" x1="294.111" y1="224.518" x2="304.554" y2="224.518" gradientUnits="userSpaceOnUse">
<stop stop-color="#4F52FF"/>
<stop offset="1" stop-color="#4042E2"/>
</linearGradient>
<linearGradient id="paint19_linear_1_1033" x1="353.391" y1="132.676" x2="125.296" y2="211.736" gradientUnits="userSpaceOnUse">
<stop stop-color="#4F52FF"/>
<stop offset="1" stop-color="#4042E2"/>
</linearGradient>
<linearGradient id="paint20_linear_1_1033" x1="296.191" y1="129.707" x2="259.162" y2="201.815" gradientUnits="userSpaceOnUse">
<stop stop-color="#4F52FF"/>
<stop offset="1" stop-color="#4042E2"/>
</linearGradient>
<linearGradient id="paint21_linear_1_1033" x1="281.06" y1="177.872" x2="316.789" y2="143.442" gradientUnits="userSpaceOnUse">
<stop stop-color="#4F52FF"/>
<stop offset="1" stop-color="#4042E2"/>
</linearGradient>
<linearGradient id="paint22_linear_1_1033" x1="412.716" y1="32.6001" x2="421.486" y2="108.023" gradientUnits="userSpaceOnUse">
<stop stop-color="#FF928E"/>
<stop offset="1" stop-color="#FE7062"/>
</linearGradient>
<linearGradient id="paint23_linear_1_1033" x1="223.654" y1="382.028" x2="-167.977" y2="655.26" gradientUnits="userSpaceOnUse">
<stop stop-color="#FF928E"/>
<stop offset="1" stop-color="#FE7062"/>
</linearGradient>
<linearGradient id="paint24_linear_1_1033" x1="156.31" y1="431.792" x2="204.992" y2="502.532" gradientUnits="userSpaceOnUse">
<stop stop-color="#09005D"/>
<stop offset="1" stop-color="#1A0F91"/>
</linearGradient>
<linearGradient id="paint25_linear_1_1033" x1="154.559" y1="432.997" x2="203.241" y2="503.738" gradientUnits="userSpaceOnUse">
<stop stop-color="#09005D"/>
<stop offset="1" stop-color="#1A0F91"/>
</linearGradient>
<linearGradient id="paint26_linear_1_1033" x1="152.447" y1="434.45" x2="201.129" y2="505.191" gradientUnits="userSpaceOnUse">
<stop stop-color="#09005D"/>
<stop offset="1" stop-color="#1A0F91"/>
</linearGradient>
<linearGradient id="paint27_linear_1_1033" x1="148.794" y1="436.965" x2="197.476" y2="507.705" gradientUnits="userSpaceOnUse">
<stop stop-color="#09005D"/>
<stop offset="1" stop-color="#1A0F91"/>
</linearGradient>
<linearGradient id="paint28_linear_1_1033" x1="146.385" y1="438.622" x2="195.067" y2="509.364" gradientUnits="userSpaceOnUse">
<stop stop-color="#09005D"/>
<stop offset="1" stop-color="#1A0F91"/>
</linearGradient>
<linearGradient id="paint29_linear_1_1033" x1="144.89" y1="439.651" x2="193.571" y2="510.392" gradientUnits="userSpaceOnUse">
<stop stop-color="#09005D"/>
<stop offset="1" stop-color="#1A0F91"/>
</linearGradient>
<linearGradient id="paint30_linear_1_1033" x1="158.814" y1="430.069" x2="207.496" y2="500.809" gradientUnits="userSpaceOnUse">
<stop stop-color="#09005D"/>
<stop offset="1" stop-color="#1A0F91"/>
</linearGradient>
<linearGradient id="paint31_linear_1_1033" x1="168.306" y1="310.345" x2="-106.727" y2="502.228" gradientUnits="userSpaceOnUse">
<stop stop-color="#FF928E"/>
<stop offset="1" stop-color="#FE7062"/>
</linearGradient>
<linearGradient id="paint32_linear_1_1033" x1="126.786" y1="341.264" x2="160.974" y2="390.945" gradientUnits="userSpaceOnUse">
<stop stop-color="#09005D"/>
<stop offset="1" stop-color="#1A0F91"/>
</linearGradient>
<linearGradient id="paint33_linear_1_1033" x1="125.557" y1="342.11" x2="159.744" y2="391.791" gradientUnits="userSpaceOnUse">
<stop stop-color="#09005D"/>
<stop offset="1" stop-color="#1A0F91"/>
</linearGradient>
<linearGradient id="paint34_linear_1_1033" x1="124.074" y1="343.131" x2="158.262" y2="392.81" gradientUnits="userSpaceOnUse">
<stop stop-color="#09005D"/>
<stop offset="1" stop-color="#1A0F91"/>
</linearGradient>
<linearGradient id="paint35_linear_1_1033" x1="121.508" y1="344.897" x2="155.697" y2="394.575" gradientUnits="userSpaceOnUse">
<stop stop-color="#09005D"/>
<stop offset="1" stop-color="#1A0F91"/>
</linearGradient>
<linearGradient id="paint36_linear_1_1033" x1="119.817" y1="346.061" x2="154.005" y2="395.74" gradientUnits="userSpaceOnUse">
<stop stop-color="#09005D"/>
<stop offset="1" stop-color="#1A0F91"/>
</linearGradient>
<linearGradient id="paint37_linear_1_1033" x1="118.767" y1="346.784" x2="152.955" y2="396.463" gradientUnits="userSpaceOnUse">
<stop stop-color="#09005D"/>
<stop offset="1" stop-color="#1A0F91"/>
</linearGradient>
<linearGradient id="paint38_linear_1_1033" x1="128.546" y1="340.054" x2="162.734" y2="389.733" gradientUnits="userSpaceOnUse">
<stop stop-color="#09005D"/>
<stop offset="1" stop-color="#1A0F91"/>
</linearGradient>
</defs>
</svg>
